<svg enable-background="new 0 0 350 350" viewBox="0 0 350 350" xmlns="http://www.w3.org/2000/svg"><g fill="#fff"><path d="m283.9 150c6.2.8 11.7 3.5 17.2 6.4 3.5 1.9 7.1 3.7 10.7 5.4 6.8 2.9 12.1 8.6 14.6 15.7 1.6 4.4 1.1 8.8 0 13.2-.9 3.6-2.1 7.2-3.4 10.7-.4 1.2-.4 1.9.9 2.4.4.3.7.8.6 1.3-.9 4.2-1.7 8.4-3 12.4s-2.9 7.9-4.7 11.6c-2.4 4.9-5.1 9.7-7.8 14.4-3.6 6.3-8.2 12-13.4 17-4.1 3.8-8.3 7.5-12.6 11.2-4.7 4-9.5 7.9-14.3 11.7-3.9 3-8.2 5.6-12.6 7.8-1.8.9-3.5 2.3-5.2 3.4-.6.4-1.2.7-1.9.8-2.8 1-5.6 1.8-8.4 2.4-6 .9-11.9 2.6-18.1 2.5-2.3 0-4.6.6-6.9.6-4.4.1-8.8.2-13.2 0-3.8-.2-7.5-.6-11.3-1.3-2.8-.5-5.6-1.7-8.4-2.4s-5.8-1.1-8.7-1.8c-3.7-.8-7.5-1.8-11.2-2.6-2.9-.5-5.8-1.2-8.7-2.1-4.3-1.5-8.6-3.4-12.8-5.2-4.7-2-9.3-4.1-14-6.2-.8-.5-1.6-1-2.3-1.6l.6-.1c.5-1.7 1-3.4 1.4-5.1 0-.2-.4-.6-.7-.9-1.6-1.4-3.2-2.8-4.7-4.3-3.2-3.3-5.3-7.6-5.9-12.2-.7-4.5.9-8.4 2.4-12.4 1-2.8 2.1-5.7 3.2-8.5 1.3-3.5 2.7-6.9 4.1-10.4.8-1.9 1.5-3.8 2.4-5.7 2.3-5.1 5.5-9.8 9.5-13.8 2-2 3.9-4.2 5.9-6.4-2.7.2-5.2.6-7.7.5-3.6-.1-7.1-.5-10.7-.7-4.7-.2-9.4-.9-14-2.1-1.6-.5-3.2-1.3-4.7-1.9-2.5-.9-5-1.7-7.4-2.8-1.9-.9-3.8-1.9-5.6-3-1.9-1.2-3.6-2.5-5.5-3.7-2.3-1.4-3-3.6-3.4-6-.2-1.3.1-2.9-1-4-.1-.1-.1-.2-.1-.3 0-2.2.2-4.5.5-6.7.7-1.8 1.6-3.5 2.7-5.1.3-.5.5-1.1.8-1.6 1.6-2.4 2.1-5.4 4.3-7.6 1.3-1.3 1.7-3.3 2.5-4.9 2.2-3.9 4.5-7.8 6.6-11.7 1.6-2.9 3.1-5.9 4.7-8.8 1.9-3.6 3.8-7.3 6-10.7 3-4.7 6.1-9.4 9.4-13.9 3.9-5.2 8.1-10.3 12.3-15.4 1.4-1.8 3-3.6 4.6-5.2 2.9-2.9 6-5.7 9.1-8.4 3.1-2.8 6.2-5.7 9.5-8.3 4-3.2 8.3-5.8 12.9-8 2.3-1.3 4.7-2.4 7.1-3.3 4.2-1.4 8.5-2.2 12.9-2.5 3.1-.4 6.1-.9 9.1-1.7 5.4-1.1 10.8-1.4 16.3-1 3.8.4 7.7.1 11.5.4 4.5.3 9.1.7 13.6 1.1 2.9.3 5.8.7 8.7 1 4.4.5 8.6 1.7 12.6 3.6 2.3 1.1 5 1.3 7.5 1.8 1 .2 2.3-.2 3 1 .1.1.2.2.4.2 2.4.4 4.8.9 7.2 1.5 2.2.7 4.2 1.7 6.2 2.8 3.5 1.9 6.9 4.3 10.5 6 3.3 1.5 6.7 2.6 10.2 3.5 2.5.7 4.2 2.5 6.1 4 .8.7 1.5 1.4 2.1 2.2.2.3.4 1 .3 1.2-1.1 1.3-1 3.1.1 4.3.1.2.2.4.2.6-1.9.5-1.3 2.3-1.7 3.5-.8 3.8-2 7.4-3.8 10.8-1.5 2.7-2.5 5.6-3.8 8.3-.8 1.8-1.6 3.6-2.4 5.4-1 2.1-1.8 4.2-2.5 6.4-1.7 5.3-4.3 10.2-7.6 14.6-3.1 4.3-6.1 8.6-9.1 13-.3.4-.1 1-.1 1.6-.1.6.1 1.4.3 2.1zm-104.5 75.3.4.2.2.4.3.3c1 1.3 1.9 2.4 2.8 3.7.2.4.3.8.3 1.2-.4 0-.7-.1-1.1-.2-2.8-1.4-5.2-3.5-7-6.2-.7-1-1.8-1-2.3-.3s-.8 2.3-.3 2.8c2.2 2.4 4.7 4.6 7.1 6.8.3.3.5.7.7 1.1-3.9-1.3-5.8-4.4-8.6-6.4-.7 1.5 0 2.3 1.1 3 2.2 1.5 4.3 3 6.4 4.6.3.2.4.7.6 1.1-.4 0-.8-.1-1.2-.2-2.4-1.4-4.7-2.9-7.3-4.5 1 2.5 1.9 4.8 3 7.1.3.6 1.1.9 1.7.6.1 0 .2-.1.3-.2.6-.4 1.2-.8 1.8-1.2 3.1-1.7 6.1-2.9 9.8-1.4 3.7 1.4 7.8.8 11.7-.4 1.1-.3 2.2-.3 3.2-.2.9.2 1.7.6 2.5 1-1.6 1.3-2.9 2.7-4.5 3.4-1.7.7-3.6.5-5.5.7.8 2 3.1 1.7 4.4 3 .1-2.1.7-2.5 2.5-1.6 2.1 1.2 4.1 2.6 6.1 4 1.6.9 3.6 1 5.3.1l-6.8-5.1.4-.6c.7.2 1.5.5 2.1.8 2.1 1.4 4 2.9 6.1 4.3.6.2 1.2.3 1.8.4l.2-.5c-1.3-1-2.5-2.1-3.7-3.1s-2.4-1.9-3.5-2.8l.4-.5c.4.1.9.4 1.3.6 2 1.5 3.9 3 5.8 4.7 1.1 1.1 2.9 1.2 4.1.2l-6.2-6.6c.5.1 1.1.4 1.5.7 1.6 1.5 3.2 2.9 4.7 4.5 1.1 1.1 2.2 1.8 3.8 1.2-1.6-2.5-4-4.5-5.1-7.4.5.1.9.4 1.3.7 1.4 1.7 2.8 3.4 4.2 5.2 1.1 1.4 2.2 1.7 4 .6-1.7-2.5-4.1-4.8-4.6-8.1.5.2.8.6 1.1 1 1.3 1.8 2.6 3.6 3.9 5.4.7 1.1 1.5 1.9 3 1-1-2.2-2.1-4.4-3.1-6.6l.6-.3c1.3 2.2 2.6 4.5 4.1 6.8l2-.6-2.5-8.1.5-.2c.3.6.7 1.3.9 1.9.5 1.4.9 2.9 1.4 4.3.3.7.5 1.9 2.1 1.5-1.5-2.4-2.3-5.1-2.3-7.9.3.2.6.4.7.7.9 2 1.7 4 2.7 5.9.2.4.8.7 1.3 1.1.2-.5.6-1.1.6-1.5-.2-1.8-.6-3.5-.9-5.2-.1-.5-.1-1-.1-1.5l.5-.1c.3.5.5 1.1.7 1.7.3 1.6.5 3.2.9 4.8.1.3.5.5.8.8.2-.4.5-.7.5-1.1-.1-2.1-.2-4.2-.3-6.4.1-.4.2-.9.4-1.3l1.3 7.6c1.1-.5 2-.6 1.9-1.8-.2-2.1-.3-4.2-.4-6.4.1-.4.2-.9.4-1.3.5 2 .9 3.9 1.2 5.9.1.7 0 1.6 1.1 1.4s1.6-.6 1.5-1.8c-.2-1.9-.2-3.8-.2-5.8 0-.5.1-1 .3-1.4h.4l1 7.4c1.5-.4 2-1.1 1.7-2.5-.2-1.1-.2-2.3-.1-3.5s.3-2.3.5-3.5h.5c.1.8.1 1.6.2 2.4.2 1.4.4 2.8.7 4.1.1.3.8.4 1.2.6.1-.4.4-.9.3-1.3-.5-2.3-.4-4.6.2-6.9 0-.3.3-.5.5-.7.2.5.3 1.1.3 1.7.1 1.6.2 3.2.4 4.8 0 .3.5.6.8.9.3-.3.6-.6.8-1 .1-.3.1-.7.1-1 .2-1.9.3-3.8.5-5.7h.3v6.7c2.2-.3 2.5-.8 2.7-2.8.1-1.7.3-3.4.5-5.1h.3v6.4l2.7-1.3c-1.5-3.4-.5-6.5.1-9.6h.5l.4 7.6h.7c.6-3.4 1.2-6.9 1.7-10.3l.7.1-.5 5.9.5.1c.3-4.3 2.5-8.2 2.5-12.6-.7.4-1.4.9-2.1 1.4-1.9 1.6-3.8 3.1-5.7 4.6-1 .8-2.1 1.4-3.2 2-1.9 1.2-3.8 2.5-5.8 3.6-2.7 1.5-5.6 2.5-8.1 4.2-3.6 2.4-7.6 2.9-11.6 3.5-.3 0-.6-.1-.7-.3s-.1-.5.1-.7c1.9-1.3 3.8-3.1 5.9-3.6 3.1-.7 5.4-2.5 8.1-3.7 1.5-.7 2.9-1.8 4.3-2.6 3.3-1.9 6.8-3.5 10-5.6 1.7-1.4 3.1-3.1 4.3-5 1.9-2.5 3.7-5.3 5.5-7.9.7-.8 1.2-1.7 1.6-2.7 1-3.1 1.7-6.2 2.5-9.3l-.3-.4c-.3.2-.9.3-1 .6-.7 1.5-1.3 3-1.9 4.5-1-2 1.5-3.2 1.3-5.1l-.5-.3-3.7 5.2-.8-.1c.5-2.2 1.9-4.2 3.8-5.5.6-.5 1.1-1.1 1.5-1.8l-.4-.3c-2.1.5-4.4.6-5.2 3.3-.3 1-1 1.9-1.4 2.8-.1.7-.2 1.4-.2 2-.1.7-.3 1.3-.6 1.9-.1.3-.7.3-1.1.4-.1-.4-.3-.7-.3-1 .3-1 .7-2 1.1-3 .8-1.6 1.6-3.2 2.5-5.1-5 0-4.3 4.5-5.9 7 0 0 .1.2.2.3l1-.6c-.6 2.6-1.4 3.6-3.2 3.4.3-3.3 2.2-6 3.7-9.2-1.3.3-2.8.2-3.1.8-1.4 2.7-2.9 5.5-3.1 8.6 0 .4-.5.8-.7 1.2-.3-.4-.9-.9-.8-1.3.2-.7.4-1.5.8-2.1.9-2.1 1.9-4.3 2.9-6.4-.7 0-1.4.1-2.2.2-.6.2-1.6.3-1.8.8-1.2 2.5-2.3 5.1-1.8 8.1.1.8 0 1.6-1.3 1.7-.6-3.3.8-6.2 1.7-9.5-2.1.6-3.9 1-5.6 1.6-.5.3-.9.7-1.1 1.3-.4 1.2-.7 2.5-1 3.8-.4 2.3-.7 4.6-1 6.8-.1.4-.3.9-.6 1.3l-.6-.2c-.6-4.4 1.8-8.3 2.4-12.5-1.9 0-3.1.7-3 2.7v.1c-.5 2.6-1.1 5.2-1.7 7.9-.2.4-.4.7-.6 1l-.4-.3c.2-3.3.9-6.5 2.1-9.5.2-.4.1-1.3-.2-1.4-1.2-.6-2.6-.1-3.2 1.1-.1.2-.1.3-.2.5-.2.5-.3 1-.3 1.5-.3 2.2-.5 4.4-.9 6.6-.2.6-.4 1.1-.8 1.6-.2-.5-.4-1-.4-1.6.1-1.2.2-2.3.5-3.4.4-1.9 1-3.7 1.4-5.6.1-.4 0-.7-.3-1-.2-.1-.7 0-1.1.2-2.4 1.3-4.9 2.6-7.3 3.9-2 1-4.1 1.9-3.9 4.8-.1.9-.2 1.7-.4 2.5-.1 1.3-.1 2.5 0 3.8 0 .4.3.8.3 1.3 0 .2-.7.5-.7.5-.3-.3-.8-.8-.8-1.2 0-1.9.2-3.8.3-5.7 0-.5 0-.9 0-1.4l1.2-1.9c-2.2-.1-2.8.4-3.5 2.2-1.3 3.3-2.1 6.6-1 10.2l-.9.9-1.3-2.7c1.6-1.6-.4-3-.3-4.5-.4 1.1-.7 2.1-.8 3.3-.2 1.7-.3 3.4-.4 5.1l-.3 1c-.2-.4-.7-.8-.7-1.1.4-3.2.9-6.4 1.4-9.6.1-.3.4-.5.7-.6 1.4-.2 2.4-1.3 2.7-2.6-.9.2-1.8.3-2.7.6-1.1.1-2.1.9-2.4 2-.4 1.5-1.1 2.9-1.6 4.4-.3.9-.5 1.9-.6 2.9-.2 1.7-.2 3.5-.3 5.2h-.5v-4c-.4.2-.8.5-1.1.7-1.8 2-3.2 4.3-5.8 5.5-.2.1 0 .8 0 1.3-1-.5-2.3-.4-2.5.5s.3 2.1.5 3c-.7-.6-1.5-1.1-2.3-1.5-.7-.2-1.4-.1-2.1.2-.1 0 0 1 0 1.6s.1.9.2 1.3c-.3-.4-.6-.7-.9-1s-.4-1.6-1.6-1.3c-.7.2-1.5.3-2.6.6l2.2 2.7c-.9-.4-1.6-1-2.2-1.7-1-1.4-2.1-1.3-3.5-.6.1.5.3 1 .4 1.4v-.1l3.3 2.5c-.6-.1-1.2-.2-1.8-.5-.9-.4-1.7-1.1-2.5-1.5-.3-.2-1-.2-1.1-.1-.2.4-.4.9-.3 1.4 0 .4.4.7.7 1.3-1.4-.7-2.5-1.3-3.7-1.8-.4-.1-.8-.1-1.2-.1l-2-1-.2 2.3c-.3 0-.6 0-.9-.1-1-.7-2-1.3-3.1-1.8-.8-.1-1.6-.1-2.4 0 .2.6.5 1.1.9 1.6 1.1 1.2 2.3 2.2 3.4 3.4.2.3.2.8.3 1.2l-.4.4-6.7-4.2-.3-.3-.3-.4-.3-.2-.3-.5-.6-.5-.1.3.7.2zm18.2-64.7.4.3c.1 1.3 1.2 2.3 2.5 2.3l-2.5-2.3zm49.9-85.9v-.1s0 0-.1 0zm10.6 167.4.3-.5c1.8-.8 3.5-1.7 5.1-2.8 2.8-2 5.5-4.2 8.2-6.4.7-.6 1.3-1.2 1.9-1.9l-.3-.3c-.3 0-.6 0-.8.1-2.2 1-4.3 1.9-6.5 3-3.8 2-7.5 4.1-11.2 6.2-.4.2-.5.8-.7 1.3-1.6-.9-2.3.6-3.3 1.3l3.3-1.3c2.8-1.6 5.6-3.3 8.9-4-.4.8-.9 1.5-1.5 2-1 1-2 2-3 3l-.3.5c-.2-.1-.2-.1-.1-.2zm-21.3-132.1-.1.9c-.1.2-.1.4 0 .1 0 .2 0 0 0-.1l.1-.9.2-.2v.3zm-21.1 36.2c0-.2-.1-.3 0 0-.2-.2-.1-.1 0 0l.1.9 2.3 5.2c-.8 1.1.1 1.6.9 2.2l-.6-1.9c.6 1 1.1 2 1.7 2.9 1.5 2.4 2.8 5.2 6.2 5.9-3.6 3.2-8.1 4.3-12.3 5.9l.7 1.9-.3.3c-.8-.5-1.6-1.3-2.4-1.3-1.1.1-2.2.5-3.2 1l1.7 1.9c-.5.2-1 .2-1.3 0-.9-1.2-2.6-1.4-3.8-.5-.6.3-1.2.5-1.8.6-1.4.5-2.7 1.2-4.4 1.9-.6-.3-11.9 2.3-13.3 3.4l1 1.1c-1-.3-2.1-.9-3-.7-3.5 1-7 2.4-10.5 3.5-2.1.7-4.3 1.2-6.6 1.8.1-1.5 1.3-2.1 2.7-2.3 1.6-.3 3.2-.7 4.8-1.2l.1-.6c-2.4-1.5-4.9-2.8-7.4-4-4.3-1.8-8.6-3.3-13-4.7-3.8-1.3-7.7-2.4-11.6-3.5-2.4-.7-4.8-1.3-7.2-1.8-2.5-.7-5.1-1.2-7.7-1.6-3.3-.3-6.6-.3-10-.3-3.1 0-6.1 0-9.2.3-3.8.4-7.5 1.1-11.2 1.7-.5.1-.9.4-1.2.8-1.1 2.4-2.2 4.8-3.2 7.2-.3.5-.5 1.2-.4 1.8.3.6.9 1.1 1.5 1.4 1.9 1.2 3.8 2.2 5.8 3.2 2.8 1.3 5.7 2.3 8.6 3.2 4.2 1.3 8.7 2.1 12.8 3.6 5.9 2.1 11.9 2.2 18 2.5 3.8.2 7.6-.1 11.2 1l-1 3.8c1.3-.8 2.2-1.4 3.2-1.9 1.3-.7 2.4-1.5 3.7-2.1 1.1-.5 2.3.3 1.9 1.2-.7 1.7-1.6 3.3-2.8 4.7-1.8 2-3.8 3.6-6.1 5.6l6.8.6v.5h-6.9v.3l4.2 1.5-.1.4c-1.4-.3-2.9-.6-4.3-.9-1.4-.6-2.9 0-3.5 1.4 0 0 0 .1-.1.1l7.8 1.8v.4l-4.8.6.9 1.5c-1.7-.4-3.1-.8-4.5-1.2s-2.7.4-3 2.4l5.7.4c-.3.4-.8.6-1.3.7-1.6.1-3.1.1-4.7.2-.5 0-1.2 0-1.4.3-.8 1.1-1.4 2.3-2.4 3.8l5.5-.4c-1.2.5-2.5.9-3.8 1-2.5.3-2.5.3-3.1 3l6.2 1.5v.5l-6.9-.7c-.4 1-.7 2-1 2.9l6.4 1v.6c-.7 0-1.3 0-2 0-1.4-.1-2.8-.2-4.3-.2-.5 0-.9.3-1.2.7-.5 1.1-.9 2.3-1.5 3.7h3.3c2.4.1 2.4.1 2.5.9-1.6.1-3.3.2-4.9.2-1.3 0-1.7.6-1.8 2l5.4-.6.1.6c-1.3.3-2.5.6-3.7.8-2.3 0-4.1 1.9-4.1 4.2v.5l2.6-1 .3.5c-1 .5-1.9 1.1-2.7 1.7-.7.8-1.3 1.7-1.8 2.6l.4.3c2.5-1.3 5.1-2.7 8.1-2.9-.2.4-.6.6-.9.8-2.3 1.3-4.6 2.5-6.9 3.8-1.6.9-1.8 2-1.1 3.8l5.9-3.4.3.5c-.4.3-.7.6-1.1.8-1.3.9-2.7 1.8-4 2.7-1.8 1.3-2 2.7-.6 4.9 2.1-2.2 3.2-5.4 6.4-6.5 0 .2-.1.4-.2.6-1.6 1.9-3.3 3.8-4.9 5.7-1.2 1.5-.8 3 .9 4.5l4.9-6.5.4.3c-1.4 2-2.9 4-4.4 6-.7 1.1-.7 1.1.5 1.7 3.6-4.9 4.2-5.5 5.8-5.8-1.1 1.1-2 2.1-3 3.2-2.8 2.8-2.8 3.3-.2 5.6h.3l4.6-7.3.4.3c-1.5 2.5-3 5-4.6 7.5l1.1 1.2c1.8-3.3 3.2-6.6 6-9-1.7 2.9-3.4 5.6-5.1 8.5-.1.5-.1 1 .2 1.4.4.4.9.8 1.4 1.1 1-1.3 1.8-2.5 2.8-3.5 1-1.1 1.4-2.5 3.4-2.9-.3.5-.4.6-.5.8-1.5 1.8-3.1 3.5-4.5 5.3-.3.5-.3 1.1 0 1.6.7.6 1.5 1 2.3 1.4l4.5-7.8.4.3c-1 1.9-2.2 3.7-3.1 5.7-1.3 2.7-1.1 2.7 1.7 3.9h.4l4.5-7.6.3.2c-1.3 2.3-2.5 4.6-3.8 6.9-.4.6-.6 1.1.2 1.5.4.4 1 .3 1.4-.1.1-.1.2-.3.2-.4.7-1.5 1.5-2.9 2.3-4.3.7-1.2 1.5-2.3 2.3-3.4-.3 1-.7 1.9-1.3 2.7-.5.9-1.1 1.8-1.7 2.7-1.9 2.9-1.4 4.2 1.8 4.5.5 0 1-.3 1.3-.7 1.3-2.1 2.4-4.2 3.7-6.4.3-.4.7-.7 1.1-1-1.3 2.5-2.7 4.7-4 7-.2.4-.2.8-.2 1.2 1 .3 2 .6 3.1.7.3 0 .7-.7.9-1.2.8-2.5 2.2-4.9 4-6.8 0 .3 0 .6-.2.8-1.1 2-2.2 4-3.2 6-.3.6-.5 1.5.6 1.7.9.1 2 .7 2.7-.6.8-1.5 1.7-3 2.5-4.5l1.3-2.3.4.2-4 7.1c2.4 1 3.4.5 4.3-1.3s2.1-3.5 3.1-5.3l.2.2-3.4 6.7c1.1.2 2.1.3 3.2.4.4 0 .8-.3 1-.6.6-1.1 1.1-2.2 1.6-3.3.6-1.1 1.4-2.3 2-3.5l.3.2c-1.1 2.3-2.2 4.6-3.3 6.9 2.5.9 2.6.9 3.8-1.1s2.2-3.9 3.3-5.8c.3-.4.6-.8.9-1.3l.3.2-4.5 8.6c1.8.6 2.8.3 3.7-1.4 1.5-2.6 3.1-5.1 4.8-7.4l.2.1-4.9 9c.6.1 1 .2 1.3.3 1.2.4 2.5-.4 2.9-1.6 0 0 0 0 0-.1 1-2.5 2.4-5 3.6-7.5.1-.2.4-.2.6-.3-1.3 3.1-2.5 6-3.9 9.1h2.1c1.4.2 2-.4 2.5-1.7.9-1.7 1.9-3.3 3-4.9l.6.3c-1 1.9-2 3.9-3.1 5.9 1.7.2 3.3-.9 3.9-2.5 1.2-2.6 2.6-5.2 4.1-7.6.2-.3.6-.5 1-.8-.6 1.3-1.3 2.2-1.9 3.4-.9 1.7-1.6 3.4-2.3 5.1-1.2 2.6-1.1 2.7 1.9 2.8 1 0 1.6-.2 1.9-1.4.4-1.6 1-3.2 1.7-4.7.5-1.1 1.1-2.1 1.8-3l.1.1c-1 2.9-2.1 5.7-3.1 8.6l.6.3c.4-.3.7-.7 1-1.1 1-2 2-4 3-6 .2-.3.6-.5.9-.8l-3.6 7.8.4.5c1-.4 2.4-.4 2.8-1.1 1.6-2.9 2.9-5.9 4.3-8.9.4-.8.9-1.6 1.4-2.4l.1.1-4.8 11.4c2.8.4 3.5-.1 4.6-2.1 1.1-2.1 2.2-3.7 3.3-5.5-.6 1.4-1.3 2.7-1.9 4.1-.4.8-.7 1.6-1 2.4-.1.4.2.9.2 1.3.4-.2 1-.3 1.3-.6.5-.9.8-1.8 1.3-2.7.6-1.2 1.3-2.3 2-3.4-.1.3-.2.6-.3.9-.8 1.8-1.6 3.6-2.4 5.4-.4 1.1 0 1.7 1 1.6.7-.1 1.5-.2 2.2-.3.3-.1.6-.2.8-.5.3-.8.4-1.7.7-2.5.9-2.4 2-4.7 2.9-7.1l.3.1c-1 3.1-2 6.1-3.1 9.2l.4.3c1.3-.4 2.5-.8 3.7-1.2.7-.2 1.4-.4 1.5-1.5 0-.4 1-.7 1.5-1s1.1-.5 1.1-.7c.3-3.1 2.3-5.4 3.4-8 .2-.4.5-.7.8-1.1-1.2 3.1-2.3 5.9-3.4 8.7l.5.3c.4-.3.8-.5 1.2-.8 1-.5 2.1-1.5 3.1-.5.6.7 1.6.9 2.4.5 3.7-1.4 7.4-2.9 11.1-4.4.4-.2.8-.5 1.2-.8l-.8-1c.7-.5 1.5-1 2.1-1.5.4-.3.6-.8.7-1.3-.1-1.8.4-3.6 1.4-5 .9-1.6 1.8-3.2 2.9-5-1.3.5-2.5 1.2-3.7 1.8-1.2.8-2.8 1-3.2 2.7-.7 2.5-1.5 4.9-2.2 7.4-.1.4-.3.7-.5 1.1-.4-3.4 1.1-6.1 2.1-9-.7.2-1.2.7-1.7.9-.9.2-1.5 1-1.5 1.9-.3 2.1-.7 4.1-1.3 6.1-.3.7-.6 1.5-1.1 2.1l-.4-.2c-.3-1.3-1.1-2.8.2-3.9 1.2-1.2 1.9-2.9 1.7-4.7-.5.1-.9.2-1.4.5-1.9 1.4-3.3 3.5-3.8 5.8-.4 1.4-1 2.8-1.6 4.2l-.5-.2c-.7-2.5 1.5-4.3 2-6.7-1.7.5-.7-.9-1.1-1.4-.3-.1-.6-.1-.9 0-2.4.8-4.7 1.5-7 2.4-.3.2-.6.5-.7.9-.9 2.1-1.7 4.2-2.5 6.4-.6 1.5-1.3 3-1.9 4.5l-.4-.2c.6-4.1 2.6-7.6 4.5-11.2-2.1-.8-4.2-1.3-6.4-1.7-4.2-.4-8.4-.4-12.6-.5-.7-.1-1.3 0-2 .1-4.9 1.1-9.7 2.3-14.5 3.5-2.7.9-5.5.9-8.2.2-1.6-.5-3.1-1-4.8.3.4-1.7-.5-2.1-1.6-2.4-2.5-.5-5.1-1-7.6-1.7-3.8-1.1-7.5-2.5-11.3-3.6-2-.6-2.1-.8-.6-2.4.4-.4.8-.7 1.3-1.1.5-.3.7-1 .4-1.6 0 0 0-.1-.1-.1-1-1.8-2.7-3.2-4.6-3.9-2.7-1-4.5-3.7-3.9-5.8.3-1.8.9-3.6 1.6-5.3 1.7-3.5 3.2-7.1 6.2-9.8 1-.8 1.6-1.9 1.9-3.2.3-1.6 1-3 2.1-4.2 3-4 6-8 9.1-11.9 1.5-2 3.3-3.8 5.3-5.3 2.2-1.2 4.6-2.1 7-2.8.6-.3 1.3-.4 2.1-.4 2.4.5 4.7 1.5 6.7 2.9 1.9 1.5 4 2.8 6.1 3.9 1.8 1 5 0 5.4-1.6.6-2.5 1.8-4.9 3.4-7 1.7-2.5 3.7-4.7 6-6.5 3-2.3 6.2-4.4 9.4-6.6 1.3-1 2.9-1.5 4.5-1.3 2.3.5 4.7.2 6.8-.7 3.6-1.8 7.4-2.3 11.2-3.1 3.4-.8 6.8-1 10 .7.3.2.6.4 1 .4 1.4 0 3 .3 4.1-.2 3.5-1.6 7-3.4 11-3.6 1.7-.2 3.4-.2 5.1-.2 4.3.3 8.6.7 12.9 1.1 2.8.2 5.7.2 8.4.6 1.5.3 2.8.9 4 1.9 3 2.7 2.9 3.7 0 6.4-.4.4-.7 1-.7 1.6 0 1.7-.1 3.3-.3 5-.9 4.3-1.8 8.5-3 12.7-.9 2.5-1.9 4.9-3.1 7.3-.4 1.2-.9 2.3-1.4 3.4-1.1 1.9-2.4 3.8-3.7 5.6-1 1.4-2.5 2.5-3.4 4-1.5 2.5-2.7 5.1-5 7-1.4 1.1-2.5 2.5-4 3.7-1.3 1-2.7 1.5-4 2.4-3.2 2.3-6.4 4.7-9.6 6.9-.9.6-2.2.4-2.6 1.7 0 0-.5-.1-.7 0-1 .6-1.9 1.2-2.8 1.8-.3.2-.6.6-.9.6-1.3.3-1.7 1.3-2 2.4-.2.8-.5 1.5-.8 2.3-.9 2.1-1.8 4.1-2.6 6.2 1.1.2 1.9.4 2.8.5 1 .3 2.2-.1 2.8-1 .7-1.3 1.2-2.7 1.7-4.1.6-1.8 1.1-3.7 1.7-5.5.4-.8.8-1.6 1.3-2.3l.1.1-2.7 10.4.6.2c1.2-1.7 1-4.1 1.9-5.9 1-1.9 1.6-4 2.4-6l.4.2c-.8 3.4-1.6 6.8-2.5 10.6 2-1 3.5-2 5.1-2.6 1.6-.7 1.7-1.4 1.4-2.8-.3-1.1-.2-2.3.2-3.4.7-1.3 1.6-2.5 2.5-3.6-.6 2.5-1.3 5.3-1.9 8.1l.6.3c.4-.6 1.1-1.3 1.2-1.9.5-3.4 1-6.7 1.4-10.1h.3l.6 9.6 4-2.8-1.9-3.9.4-.2c.6.8 1.2 1.6 1.6 2.5.6 1.6 1.7 1.4 2.8.9.9-.5 1.7-1 2.4-1.7-1.7-2.2-3.3-4.2-4.8-6.3-.2-.3-.1-.7-.2-1 .4 0 .8 0 1.1.2.6.4 1 1 1.5 1.5 1.1 1.5 2.2 3.1 3.5 4.9l2.8-2.4-4.4-5.5.5-.4c2.5.5 3.4 3.2 5.5 4.6l2.8-3.4c-1.7-1.7-3.3-3.3-3.9-5.5l.3-.3 4.6 4.4c2-2.1 2-2.3.1-4.2-1-.7-1.4-1.8-1.2-3 1.1.9 2 1.9 2.9 2.8.3.3 1.3.4 1.4.2 1-1.3 1.9-2.7 2.8-4.1l-4.2-4.1.4-.6c.8.3 1.5.6 2.2 1 .7.5 1.3 1.3 2 1.8.3.2.7.2 1 .1.7-.7 1.3-1.4 2-2.2-1.7-1.5-4.5-1.8-5.3-4.8.6.1 1.2.4 1.8.6 1.1.7 2.1 1.5 3.3 2.2.5.3 1.3.6 1.6.3 1-.9 2-1.9 2.8-2.9-2.7-1.3-5.5-.7-7.7-2.4.7-.3 1.5-.4 2.3-.4 1.7.2 3.3.5 4.9.9 1.6.3 2.7-.2 3.4-2.1-2.6-.4-5.2-1-7.3-2.8.4-.2.8-.2 1.3-.2 1.7.4 3.3 1 5 1.4.8.2 1.9.5 2.3.2.7-.9 1.4-2 1.8-3.1-2.7-.8-5.5 0-7.8-1.6 2.9-.7 6-.5 8.9.5l.8-2.2-8.4-1.5.1-.6c1.5-.4 3-.5 4.5-.1 1.2.3 2.5.5 3.7.5.5-.1 1-.4 1.3-.9.4-.6.6-1.3.9-2-2.9-.2-5.7.1-8.3-1.2 1.3-.3 2.5-.4 3.8-.3 1.4.1 2.8.4 4.2.5.4 0 .7-.1 1-.3.6-1.1 1-2.3 1.7-3.7h-8.9v-.4c2.4-.2 4.8-.4 7.2-.7 2-.3 2.5-.9 2.2-3.4l-9.9 1.8c3.3-1.9 6.9-1.8 10.3-2.8l.6-5.3c-3.2 1.9-6.8 3-10.5 3.1.9-.4 1.9-.7 2.8-.9 2.2-.7 4.5-1.5 6.7-2.4.4-.2.7-.5.7-1-.2-1.8-.4-3.5-.7-5.3l-2.4.5 2.1-1.4-2.4-5c-1.8 1.6-3.3 3-4.8 4.4s-2.9 2.9-4.4 4.3l8.7-9.7-3.7-4-6.2 6.6-.4-.4 5.9-6.3c-2.1-2.8-2.9-2.8-5-.3-1.5 1.8-3.1 3.6-4.6 5.4l-.4-.3 6.4-7.8c-1.1-.7-2.3-1.3-3.6-1.6-.5-.1-1.2 1.2-1.8 1.9-.1.1-.3.2-.3.3l-2 3.8-1.8 1.8-.4-.3c1.2-3.1 3.8-5.2 5.6-8-.8-.5-1.7-.9-2.5-1.3-.4-.1-.7 0-1 .2-1.3 1.8-2.5 3.5-3.7 5.3-.7 1.1-1.5 2.3-2.2 3.4l-.5-.3 6-9.3-3.5-1.4-5.4 9.9c.7-3.8 2.9-6.8 4.9-10.2-1.3-.7-2.6-1.4-3.9-1.9-.3-.1-1 .4-1.3.7-1.5 2.2-3.1 4.5-3.2 7.4-.3-.5-.5-1-.4-1.6.3-.9.6-1.8 1.1-2.7.8-1.5 1.8-3 2.8-4.8l-6.4-2.7c-1.3 2.2-2.9 4.1-2.5 6.8l1.6.7c-.6 1.5-1.9 2.6-3.5 3-3.9 1.3-7.7 2.7-11.5 4s-7.5 2.6-11.3 3.8c-1.3.4-2.7 1-3.7-.2-.9-1.3-1.7-2.8-2.3-4.3-.1-.3.3-.9.7-1.3.7-.6 1.4-1.1 2.1-1.5l.1.1-.1-.1c-1.5-.2-3.1-1-4.4-.7-4.9 1-9.7 2.3-14.5 3.8-2.5.9-4.8 2.8-7.2 4.3-.6.4-.8 1.5-1.4 1.8-1.6.9-3.4 1.6-5.1 2.4s-3.7 1.6-5.5 2.5c-.6.3-1 .7-1.3 1.3-1.5 3.8-4.7 5.7-8.3 7.3-2.6 1.3-5.7 1.6-8 3.5-.9.7-1.8 0-1.8-1.3 0-.8 0-1.6 0-2.4-2.2.3-4.2.5-6.2.8-.9.1-1.8.4-2.7.5-3.5.3-7 .4-10.1 2.7-1.3 1-2.8 2.8-4.9 1.1-.1-2.4 1.4-3.6 3.2-4.7 2.1-1.3 4.2-2.6 6.4-3.7 1.1-.4 2.2-.6 3.3-.5 1.5 0 2.9.6 4.4-.2.4-.2 1.1 0 1.6 0 .9 0 1.9-.2 2.7-.6 1.3-.9 3-1.1 4.5-.8.9.2 1.8-.1 2.5-.7 1.1-1.2 2.4-2.2 3.8-3 3.4-1.5 6.9-2.8 10.5-3.9 3.5-1 6.9-2.3 10.1-4 3.6-1.8 7.3-3.4 11-4.8.4-.2 1-.5.9-.6-.5-1.8.8-3.8-.6-5.5-.1-.1 0-.3 0-.6l.9.8c.8-.8 1.7-1.6 2.7-2.2 1.3-.6 1.2-1.3.5-2.2l-.9.9-2.9-6.3c-.1-.2-.1-.5-.2-.7-1.3-3.3-2.5-6.6-3.9-9.8-.2-.5-1-1-.1-1.4.3-.1 1.1.5 1.3.9 1 2.4 2 4.8 2.9 7.2.1.3.3.5.5.8-.8-6.1-1.5-12.2-2.2-18.3l.2-.1 1.3 3.8c.3-.3.4-.5.4-.6 0-5 .1-10 .1-15 0-.4-.5-.8-1.1-1.5l-.6 3.7h-.1l-.3-5-.5-.1-2.1 4.4c-.6-1.6-1 .4-1.3.2 0-1.7 0-3.3 0-4.8l.4-.6-.3-.1-.1.7-1.5 1.8c.1-.7.3-1.5.6-2.1.8-1.6 1.5-3.3 2.1-5 1.1-4.1 2.1-8.2 3.2-12.3.3-1.1 1.1-2.1 1.3-3.2.4-1.7.4-3.5.7-5.2.1-.7.3-1.5.4-2.2l-.8-.3c-2.7 3.2-4.3 7.1-4.8 11.2-.2-2.1-.1-4.2.5-6.2 1.1-3.4 1.9-6.9 3.8-10 .8-1.2 1.4-2.6 1.8-4 .1-1 .8-1.9 1.7-2.3.5-.3.9-.7 1.3-1.1l-.3-.3c-.4.2-.9.4-1.3.6-.2.1-.4.2-.6.4-2.9 3.1-5.4 6.5-7.3 10.3-.6 1.3-1.6 2.4-1.1 4.1.2.6-.6 1.5-1 2.3l-.6-1.5c-.8 1.9-1.6 3.6-2.2 5.2-.2.5-.4 1.1-.4 1.7 0 .8.1 1.7.1 2.5s-.2 1.9-.3 2.9l-1.6.4v-4.8h-.4c-1.7 4.9-.5 9.9-.7 14.6-.3-.2-.8-.7-1.3-.6s-.8.8-.8 1.3c-.1 1.1-.1 2.2 0 3.3-1.7-.3-1.3 1.7-2.2 2.3-.2-.2-.3-.4-.4-.7-.8-3.7-1.4-7.4-1.8-11.2.1-2.9.4-5.8 1.2-8.6.4-2 1.1-4 1.6-6 .8-3.1 1.6-6.3 2.2-9.4.2-1.6.3-3.3.4-4.9l-.6-.1c-1.8 2.4-1.7 5.4-2.5 8.2v-5.2h-.3l.8-1.3-.4-.3c-1 .5-1.7 1.5-1.6 2.6.3 2-.6 3.6-1 5.4-.5 2.1-1.1 4.3-1.7 6.4.3-2.3.7-4.6.9-7 0-.4-.1-.9-.3-1.3-.2 0-.5 0-.5.1-.3 1.2-.6 2.4-.8 3.6-.1.6-.2 1.3-.3 1.8h-.2l-.2-2.5c-.6 1.5-1.1 2.5-1.6 3.7.2-1 .4-2.1.7-3.1.3-1.5.7-2.9 1-4.4.1-.9.4-1.9.7-2.8.4-.9 1.2-1.5 1.6-2.4s1-2 1.5-3.1l-.5-.5c-1.4.7-2.9 1.3-4.4 1.7-2.4.4-3.4 1.9-4.2 4-1.4 3.7-4 7.1-4.2 11.4l-.7-.9c-.1.7-.2 1.5-.2 2.2.4 3.6.6 7.3 1.3 10.9.6 2.5 1.5 4.9 2.7 7.2 1.2 2.2 2.6 4.1 2.2 6.8 0 .2.2.5.3.6 1.6 1.6 2.6 3.6 3 5.8.2.9.4 1.9.7 2.8.7 1.9 1.6 3.7 2.4 5.5.5 1.2 1 2.3 1.4 3.5.7 2.1 1.3 4.1 1.9 6.2.1.3.3.6.5.9l.5-1.1 1.6 2.3c1.3 1.7 2.5 3.5 3.5 5.3.6 1.2 1.4 2.2 2.5 2.9l.5 1.1.1-.1h-.1l-.4-1.1c-2.1-4.2-4.2-8.5-6.4-12.7l.5-.3 3.7 5.9c-1.4-7.4-4.5-14.3-5.3-21.7.8 1.8 1.3 3.6 1.9 5.4.7 2.2 1.5 4.4 2.2 6.6.6 1.7.9 3.5 2.7 4.5.5.3.9.8 1.3 1.3 1 1.4 2 2.8 2.8 4.3 2.1 3.7 4.1 7.4 6.1 11.2.2.3-.1.9-.1 1.4h-.5l-1.6-4h-.1s0 0-.1.1l.2-.1c-.5 1.4-.7 3-.3 4.5-.4-.9-.8-1.7-1.2-2.5-.5-1.8-1.2-3.5-2-5.2-.8-1.3-1.4-2.8-1.5-4.3-.3-2-1.3-3.9-2.8-5.2-.2-.2-.7-.2-1-.3v1c0 .3.1.7.2 1 .3.9.5 1.9.9 2.8.2.5.7.9.9 1.3.6 1.7 1.2 3.3 1.9 4.9 1.1 2 2.4 3.8 3.6 5.7.1.2 0 .7-.2 1-.2.4-.4.7-.6 1.1-.4-.2-.9-.2-1.1-.5-1.2-1.5-2.8-2.4-3.9-4-2.2-3.4-4.9-6.4-7.4-9.5-.1-.1-.3-.1-.4-.2zm-43.7 15.6.6.6c.7 1.1 1.5 2.2 2.2 3.2l.6-.3c1.8 3.7 5.3 4.7 8.5 6.5l-2-.2-.2.4c.6.5 1.2 1 1.7 1.6 1.3 1.6 1.9 1.7 3.7.6 1.2-.6 2.4-1.2 3.7-1.7.6-.3 1.3-.4 1.8-.7v-.4l-3.2-1.4.3 1.5c-5.4-.3-8.2-3.8-10.6-7.6-.7.2-1.3.1-2-.1-1.3-.6-1-1.8-.8-2.8l3.1 1.1c-.6-2.9-2-5.6-4.1-7.7-2.9-2.5-5.9-4.9-9.1-7.1-4.1-3-8.8-5-13.8-5.9-1.7-.2-3.4-.6-5.1-1.1-2.4-.9-5-1-7.4-.4-.5.1-1.1 0-1.6-.2-.7-.1-1.5-.5-2.2-.3-3.7 1.1-7.7.1-11.2 2.2-.1.1-.3.1-.4.1-3 .2-6 .9-8.7 2.2-.6.4-1.2.7-1.9 1-2.5.4-4.6 2-5.8 4.3-1.9-1-4.2-.2-5.1 1.6-.1.1-.1.3-.2.4-.5 1.2-.9 2.4-1.3 3.3l11.4-4.5 4.6-2.3s0-.7.3-.9c1.7-.8 3.4-1.4 5.1-2.1l-.1.5 3.1 1.4.2 1.1 3.1.6-.3-2c2.1.4.5 2.8 2 3.4.7-.9 2-1 2.8-.3 0 0 .1.1.1.1 1.4 1.6 3.4.8 5.1 2l-1.4-3.2.3-.3c.4.3.9.5 1.1.9.4.8.8 1.7 1.1 2.5l2.5.9.1-.6-2.6-.2 2.5-1.1c.3.6.6 1.2 1 1.7.2.3.4.5.7.6 1.4.4 2.9.7 4.8 1.2l-1.6-1.8.2-.3c.7.3 1.4.6 2 1.1 2 2.4 4.9 2.5 7.6 2.9 1.4.2 2.8.2 4.3.3-.6 1.3-.3 1.7.8 1.9s2.8.4 3.2 1.1c1 1.9 3.1 1.7 4.4 3.2l.3-1.5 1.5.6zm99.4-71.2-.6.2c-.4.3-.8.6-1.1 1-3.1 4.1-6 8.3-9.2 12.2-2.1 2.5-1.3 5.5-.2 7.7.4-.9.8-1.6 1.1-2.4 2.2-6 5.1-11.6 8.7-16.9.3-.6.6-1.1.7-1.8h.6l.3-1.1h.1c-.2.4-.3.7-.4 1.1zm-96.6 28.7.5 1c.3.8.5 1.5.8 2.3 1.7 4.1 4.4 7.6 5.6 12 .1.4.3.7.6 1.1 2.1 2.5 4.1 5.1 5.1 8.2-.5-.3-.9-.7-1.3-1.2-1-1.4-1.9-2.9-2.8-4.3l-5.6-8.8-1.6-.2-.1.1h.1c.2.9.3 1.8.5 2.6.1.5.3.9.5 1.4.8 2.5 1.7 4.9 2.5 7.3 1.1 3.1 4.2 5 4.9 8.3.1.2.2.4.4.6 1.1 1.4 2.3 2.7 3.3 4.1 1.9 2.4 4.2 4.4 7 5.7l-1.1-1.6c-1.5-3-2.9-5.9-4.4-8.9-.8-1.7-1.6-3.5-2.5-5.3 1.8 2.9 3.6 5.8 5.5 8.7.6 1.3 1.3 2.5 2.2 3.6 1.4 1.3 2.9 2.5 4.4 3.5v.1l-2.3-6c.6 0 1 .1 1.1.3.1 1.3 1.1 1.6 2 2.1 3.9 2.5 7.4 5.4 10.7 8.6h.1l-.1.1c0-.3 0-.7-.1-1-1-2.5-2-4.9-3.1-7.4-.3-.6-.7-1.2-1.2-1.8-1.1-1.5-2.3-3-3.5-4.5 1.8.7 3.5 1.7 5 3 3 3 5.8 6.2 8.7 9.3 1.4 1.5 1.6 1.6 3.1.4-1.3-1.6-2.5-3.1-3.7-4.8-1.9-2.7-3.7-5.5-5.4-8.2-.3-.6-.5-1.2-.6-1.9l.5-.2 10.1 13.6.5-.4c-1.3-1.8-2.6-3.6-3.8-5.6-1.2-1.9-2.1-4.2-3.2-6.4l-1 .4-5.4-12.4c-.9-2.1-1.8-4.3-2.7-6.4-1.2-2.6-2.5-5.2-3.5-7.9-1.3-3.4-2.1-6.9-3.4-10.3-1.6-4.3-2.4-8.9-2.5-13.5.1-2.4.1-4.7-.1-7.1-.3-1-.3-2-.1-3.1.7-1.9 1.4-3.8 2.2-5.6.3-.8.8-1.6 1.3-2.7-.7.4-1.5.6-2.4.8-2 0-3.4 1.7-3.1 4.2.1.5.1 1.1 0 1.6-.7 1.8-1.1 3.7-1.2 5.6.2 2.7.5 5.3.7 8 .1.3.1.7 0 1-.2.8-.4 1.6-.6 2.4-.1.4-.2.8-.4 1.3l-.4-1.1-.4.1c-.8 3.9 2.2 7.1 2.1 11.1l-1.7-3.8-.4.1.2 1.8h-.3l-.7-4.8h-.4l-.1 1.3c-.2-.8-.3-1.7-.3-2.5-.1-.7-.3-1.5-.4-2.2l-.5.1-.3 3.3h-.3l-.3-5.9h-.6c-.4 1.1-.6 2.3-.6 3.5.1 1.5-.4 3.2.8 4.6-1.7-.2-1.4-1.7-1.4-2.5.4-4.4-.3-9 1.4-13.3.7-1.7 1.2-3.5 1.6-5.4.1-.4-.2-1.4-.5-1.4-1.3-.2-.7-.8-.4-1.3.4-.7 1-1.4 1.4-2.2s0-1.3-.7-1c-2.7 1-5.9 1.4-6.4 5.2-.2 1-.6 1.9-1.1 2.8-.6 1.5-.7 3.2-.1 4.8.1-.9.4-1.7.6-2.5.5-1.1 1.1-2.1 1.7-3.1-1 2.1-1.2 4.4-.7 6.7.7 4.4 1.6 8.9 2.5 13.3.5 2.5.9 5.2 3.2 7 .1.1.2.4.2.5.6 1.2 1.1 2.4 1.7 3.6.8 1.6 2.5 3 1.4 5.2-.2.5.4 1.4.6 2.1l.4 1.1-.4.2c-.3-.6-.6-1.1-1.1-1.5-2-1.6-3.6-3.7-4.8-6-.4-.7-.8-1.2-1.7-.5-.4.1-.9 0-1.3-.3-.9-1.1-1.6-2.2-2.5-3.5l-.9 1.5-.3-1.8.9-.2c-1.3-2-2.5-4.1-3.5-6.2-1.9-4.6-3.5-9.4-5.3-14.1-.7-1.9-.7-4-2.4-5.4.9-.6 1.9-1.1 2.9-1.6.4-.1 1.1.3 1.6.7.5.6 1 1.2 1.4 1.8l1.7-4.9-.4-.3c-2.5 1.3-5.1 2.5-7.6 3.6-1.1.5-1.3 1-1 2 1.3 3.8 2.5 7.6 4.1 11.3 1.3 3.1 3.2 6 4.9 9.2l-1.5-1.2c2.5 5.6 4.4 11.1 8.4 15.4-1.1-.4-1.4-2.3-3.3-1.6l.9 1.6c.5.9.9 1.7 1.4 2.6l-4.3-5.8c-1.4-1.7-2.8-3.4-4.1-5.1zm93.4 153.4.7-.5-.2-.2c-.1.2-.2.4-.5.7zm16.2-187.9-.5 1.5c-1.6.2-2 1.5-2.5 2.7.5 0 1.2-.1 1.4-.5.4-.7.8-1.5 1.1-2.3.3-.4.4-.9.5-1.4zm-11.8 174.8v-1.3l1-1.7.2.1-4.5 16.2.3.1 4.2-7.4c-.7 1.7-1.5 3.4-2.4 5.5 2.7-1.9 5.5-8 4.7-9.9l-2.4 4.5c.6-1.8 1.3-3.6 1.9-5.4.4-1.2.9-2.3 1.6-3.4 1.4-2.1 1.5-4.4 1.9-7l-6.4 3.4c.2.8.2 1.7.2 2.5-.1.9-.3 1.8-.5 2.7l.2 1.1-.9 1.1.2.2zm-76.8-37.1-1.8-.4c1.5.9 1.5.9 1.8.4l.7-.1.1-.3-1.3-.8c.3.6.4.9.5 1.2zm77-156.9-1.6-.8-.2.7zm-76.3 21.9-.1.9h.3l-.2-.9 1.7-2.5v-.1.1c-.5.8-1.1 1.7-1.7 2.5zm-52.4 32.8c.8.6 1.7 1.3 2.5 1.8.1.1.5-.2 1-.4l-3.5-1.4-1.5.2c.9 1.1 1.2 0 1.5-.2zm16.5-43.3.3-.3 1.6-.5c-1.1 1.6-1.9 2.9-2.8 4.2-1.2 1.6-2.5 3.2-2.5 5.4-1.4-.5-2.2.2-2.5 1.6l2.5-1.7c.4-.3 1.1-.4 1.3-.8 1.4-2.6 3.1-4.9 5.2-6.8.4-.3.8-.6 1.2-.9l.3.4c-.8.7-1.5 1.4-2.1 2.1-1.1 1.3-2.5 2.4-2.5 4.3v.1c3.8-1.7 4.9-6.1 8.2-8.4l-3.8 5.1.4.5c.6-.2 1.1-.5 1.6-.9 1.3-1.4 2.4-3 3.5-4.5.4-.6.6-1.3.5-1.9-1.1-2.1-2.4-4.1-3.7-6.2l-.6.1c-1.5 2.3-3 4.6-4.5 6.9-.4.7-.8 1.4-1.1 2.1l-.3.3-2.1 3 .6.3c.4-1.3.9-2.4 1.3-3.5zm-.9 33c-.4-1.1-.8-2.1-2.4-1.8l2.4 1.8v.1l.1-.1zm81.6-27.4v.1-.1l1.2-2.2-.6-.3c-1.2.4-.5 1.6-.6 2.5zm-39.9-2.1 1 2.2h.3c-.1-1.1-.2-2.2-.4-3.3h-.6c0 .4-.1.8-.3 1.1zm-53.2 44.6c1.7.9 3.4 1.9 5.1 2.8.2.1.6-.3.9-.5v-.4c-1.9-.7-4-1.3-6-1.9zm113.2 14c-.6.7-1.2 1.3-1.7 1.9-1.7 2.2-3.3 4.3-5 6.5 2.8-2.6 5.6-4.9 6.7-8.4zm-91.7-33.1c-.2-1.1-.4-2.3-.7-3.4-.1-.5-.6-1.1-.9-1.2-.5 0-1.1.4-1.6.7.9 1.3 1.5 2.4 2.2 3.4.2.3.6.4 1 .5v.3zm-15.4-.6c.4-.1.9-.2 1.1-.5.5-.9-.8-3.5-1.8-3.7-.2 0-.5 0-.7.2-1 .7-1.9 1.4-3.1 2.3l3.9 1.7zm74.4-26.3-.2.6h.2v-.6c.2-.1.4-.1.5-.2l5.9-6.6c-.5.1-.9 0-1.4-.1-2.2-.3-3.1.3-3.6 2.5-.1.6-.5 1.1-.7 1.7-.3.9-.5 1.8-.7 2.7zm-74.1 34.9 4.1 2 .4-.7c-.5-.6-1-1.1-1.6-1.7-1.3-1.1-2.8-2-4.1-3.3-1.7-1.7-1.7-1.8-3.6-.6 1.4 1.8 2.3 4 4.8 4.3zm110.9-28c2.8-4.2 6.4-7.8 10.6-10.7-1.1-.3-2.2-.4-3.3-.5-.8 0-1.6.4-1.9 1.2-1 1.7-2.5 3.2-3.5 5-.7 1.7-1.4 3.3-1.9 5zm2 13.9-.6 1c-.2.2-.6.4-.7.7-1 2.2-2 4.5-3.1 6.7 0 .1 0 .2 0 0 0 .1 0 0 0-.1l2.5-3.2c-.7 1.4-1.4 2.7-2.1 4.1-.2.4-1 .5-1.1.9-.7 2.6-2.9 5-2 8 0 .1-.2.2-.3.3l-.5-1.1c-1.6 4.8-3 9.2-4.4 13.7-.3 1-.5 2-.7 2.9-.1 1.1-.4 2.3-.9 3.3-1.2 1.7-2.4 3.2-3.8 4.7-3.1 3.6-5.8 7.6-8 11.9-.2.4-.7.6-1 .9.7-2 1.6-4 2.6-5.9 1.4-2.4 2.9-4.8 4.3-7.1.9-.9 1.9-1.7 2.8-2.5 1.9-1.8 3.2-4.1 3.7-6.6.4-2.2.6-4.4 1.3-6.4.9-3.1 2-6.1 3-9.2.1-.5.1-1.1 0-1.6-.3-.8-.6-1.6-.8-2.4-.1-2.5 0-5.1 0-7.7 0-1.2-.1-2.3-.2-3.5l-.5-.1c-.7 1-1.2 2-1.6 3.1-.2 1.6-.3 3.2-.3 4.9-.1.4-.2.8-.4 1.1-.2-.4-.3-.8-.4-1.3 0-2 0-3.9.1-5.9.1-1.4.3-2.8.5-4.2l.6-.2.5 1.5c.7-1.3 1.3-2 1.6-2.8.5-1.1.8-2.1-.6-2.9-.3-.3-.4-.6-.3-1 .9-2.9 1.9-5.8 2.9-8.7.1-.5.2-1 .2-1.5-1.3 1.7-2.4 3-3.3 4.5-1.6 2.5-3 5-4.5 7.5-.7 1.2-1.3 2.4-2 3.6-1.8 2.8-3.7 5.5-5.6 8.3-.7 1-1.1 2.3-2.7 2.2l1.5-2.4 3.7-7c2.4-4.5 4.6-9.1 7.1-13.6 2.4-4.3 5.1-8.3 9.3-11.1.5-.4.9-.8 1.3-1.3-.5-.2-1-.4-1.5-.5-.5-.2-.9-.2-1.5-.4 0 2.5-1.9 3.4-3.8 4-2.8.9-3.7 3.3-4.8 5.6-1.3 2.7-2.7 5.4-4 8.1v-.8l-.3.1.3.7c-1.9 4.6-3.8 9.2-5.8 13.9-.8-1.1.7-2.9-1.3-3.4-.1.3-.1.7-.2.8-1.8.4-1.1 1.9-1.3 3-.1.5-.2 1.3-.4 1.3-1.2.4-.9 1.4-1 2.2-.2 1.4-.6 2.8-.9 4.2s-.9 2.9-1.1 4.4c-.3 2.1-.4 4.2-.5 6.4-.1.2-.3.4-.3.6 0 3.1-1.7 6-.9 9.3.3 1.4-.4 3.1-.4 4.7 0 2.2.3 4.3.6 6.5.3 3.2.7 6.4 1.1 9.8 1.7-1.3 1.8-1.8.9-3.1-.3-.5-.8-1.5-.5-1.8 2.1-2.7 2.2-6 2.8-9.2.3-1.7.5-3.3.8-4.7v14c1.2-2.1 2.4-4.2 3.6-6.4.1-.2.4-.3.6-.5v.9l-.1-.1h.1c2.4-3 5.1-5.9 6.6-9.5.2.4.2.9 0 1.4-.7 1.4-1.6 2.8-2.4 4.2-.3.6-.5 1.2-.7 1.9-.4.2-.8.4-1.1.7-2.2 3.3-4.4 6.5-6.6 9.8-.9 1.4-1.4 3.2-3.5 3.5l.5 2c1.9-1.1 4.2-1.3 5.2-3.4.5.8 1 .5 1.5 0 .6-.6 1.1-1.3 1.6-2 1.1-1.7 2-3.4 3.1-5.1 1.6-2.2 3.2-4.4 4.9-6.5.7-.8 1.6-1.5 2.3-2.3s1-1.4 1.5-2c.3-.3.6-.6 1-.9.3 1.2-.1 2.6-1.1 3.4-2.6 2-4.6 4.7-5.7 7.8-.2.4-.4.7-.7 1-.3-.7-.7-.8-1.2-.1l-4.1 5.5.3.3c.4-.1.9-.3 1.3-.6.7-.5 1.3-1.5 1.9-1.5 2.2-.1 3.1-1.7 4.2-3.1 1.5-1.9 2.8-4 4.4-5.8 3.2-3.8 5.8-8.1 7.7-12.6.6-1.3.9-2.6 1.5-3.8 1-2.2 2-4.4 3.1-6.5 2-3.8 3.8-7.6 6.1-11.3 1.4-2 2.4-4.3 3-6.7.5-3.3.5-6.6-.1-9.9l-2.7 3.5-.3-.2c.1-.3.3-.6.4-.9l-.7.2v.1l1.4-1.5.1.2s0 0 0-.1h-.1l1.3-3c.4-.1.9-.1 1.1-.4 2.3-2.3 4.4-4.7 6.7-7 1-1 2.2-2 3.4-2.9l.3.3c-2.3 2.3-4.6 4.7-5.4 8l.4.3 3.3-4.9.4.2-2.5 4.3 1.9-.7c-.6.9.1 1.5.7 1.8.2.1.9-.5 1.3-.9.3-.4.5-.9.7-1.3v1.9l1-1c.3.3.6.6.9.9s.9.7.9 1.1c-.1 2.8.2 5.8-.7 8.4-1.1 3.3-2.4 6.8-5.4 9.2-.2.2-.4.5-.5.7-1.8 3.2-3.7 6.4-5.3 9.6-1.7 3.2-3.1 6.5-4.3 10-.8 3.4-2.3 6.6-4.2 9.5-2.2 3-4.6 5.8-7.1 8.5-1 1.3-2.3 2.3-3.7 3.1-6 3-12 5.8-18.1 8.5-3.8 1.7-5.1 4-5.1 7.5h.7c3.4-.7 6.7-1.4 10.1-2.2 1.3-.5 2.7-.5 3.9.2.7.3 1.5.4 2.2.3 3.3-.7 6.6-1.5 9.9-2.2 2.3-.5 4.6-1.3 6.9.4.9.5 1.9.7 2.9.9l2.8-6.7h-2.3l-5-1.8c.7-.4 1.1-.6 1.5-.9 1.3-.7 2.6-1.5 3.7-2.5 2.7-3.3 5.1-6.8 7.7-10.2 3.5-4.7 6.3-9.8 8.4-15.3 1.5-3.9 3.2-7.8 5-11.6 2.3-5 5-9.8 5.6-15.5.1-1 .2-1.9.3-2.9h-.5c-.5 1.3-1.1 2.5-1.6 3.8-1.4 3.3-2.5 6.7-4.3 9.8-2.2 4.2-4.9 8.1-7.4 12.1s-5.2 8-7.9 12c-.6.9-1.5 1.7-2.1 2.5-1.4 2.1-2.7 4.4-4.2 6.5-1.3 1.8-2.8 3.3-4.1 5.1-2.3 3.1-5.1 5.9-8.3 8.1-.2.1-.5.1-1 .1.2-.3.4-.6.6-.9 1.4-1 2.7-2.2 3.8-3.6 2.6-3.3 5.7-6.2 8.2-9.5 3.9-5.2 7.5-10.5 11.2-15.9 2.5-3.6 4.9-7.3 7.3-11.1 1.4-2.1 2.8-4.4 3.9-6.7 1.6-3.3 2.9-6.7 4.2-10 1-2.5 2.3-5 1.5-7.8-.3-1.1-.5-2.2-.9-3.3-.4-1.2-.9-2.3-1.5-3.4-.3-.6-.6-1.3-1.1-1.5-2.5-1-5.1-1.7-7.6-2.6-1.4-.6-3-.1-4 1-1.6 1.6-3 3.4-4.5 5.1s-3.3 3.6-4.9 5.5l-3.3 4.4c-2 2.5-3.9 5.1-5.9 7.6-.5.4-1 .8-1.6 1-.1-.6-.2-1.2-.3-1.8 0-.1 0-.2.1-.3l.6-1c.3-.2.6-.5.9-.8 3.6-4.8 7.1-9.6 10.7-14.4 1-1.4 2-2.8 3.1-4.2l-.2-.4c-.6.2-1.4.2-1.8.6-1.4 1.6-2.8 3.3-4 5.1-1.8 2.5-3.5 5.2-5.1 7.8-2 1.9-3.1 4-4.2 6.1zm-99 71.2-.6-.3h-.1-.1l.3-.1c1.2.9 2.3 1.8 3.5 2.7.2.2.7 0 .9.2l3.8 3.8c.2.2.6.4.8.4 1.7-.6 3.4-1.3 5.4-2.1-1.6-1.1-2.9-1.9-4.2-2.8-2.4-1.6-4.7-3.4-7.1-4.9-1.6-.9-3.2-1.7-4.8-2.4-2.1-2.1-4.6-3.6-7.3-4.6-3.6-1.1-7-2.9-10.6-4-5.9-1.8-11.9-3.2-17.9-4.6-2-.6-4.1-.6-6 0-.9-.2-1.8-.3-2.7-.2-.6.1-1.3.4-1.9.5-1.8.2-3.5.5-5.2.9-1.7.6-3.5-.2-5.2.6-.7.3-1.8-.1-2.7-.2v-.3l-2.8 1.6c2.2.2 1.8 1.1 1.3 2.4-.6-.5-1-.9-1.5-1.3s-.8-.5-1.3-.8c0 .7.1 1.3.3 1.9.1.2.8.3 1.3.4 1.3.3 2.5.7 3 2.2.8-.1 1.6-.2 2.4-.3 3.2 0 6.5.1 9.7-.2 4.2-.5 8.5-.3 12.7.6 7.2 1.6 14.2 3.6 21.3 5.5 2.5.7 5.1 1.4 8 2.2l-1.3-3.3 3.4.9-.3 2.5-1.5-.5-.2.4c1.6 1.1 3.4 1.9 5.4 2.2v.1h.1l-.2-.1-.2-.7h.9l.6.3zm16.5-103.7c-.1.4-.3.9-.4 1.3-.4.9-.9 1.8-1.4 2.8l.3.2 4.3-6.8.3.2-4.1 7.1.5.3c1.2-.4 2.3-1.2 2.8-2.4.3-.6.6-1.1.9-1.7l-.3 1.8c2.3-.7 2-3.6 4-4.4-.2.5-.5 1.1-.8 1.6-.2.6-.4 1.1-.6 1.7 2 0 2 0 3.8-3-4.3-4.1-12.1-5.8-16-3.7l4.6 8c.7-.9 1.4-1.9 2.1-3zm74.5 202.6c-1 3.4-1.9 6.7-2.8 10.1.5-.1.6-.2.7-.4.6-2.1 1.1-4.3 1.6-6.4.2-1.1.3-2.2.5-3.3.1-.1.4-.3.5-.4 1.1-3.8 2.2-7.6 3.4-11.7-.5.1-.9.2-1.4.4-3.1 1.2-6.1 2.4-9.2 3.6-.9.3-.9 1-.7 1.7.4 1.8.8 3.6 1.1 5.5.3 2.1.4 4.2.5 5.9.6-1.7 1.3-3.7 2-5.7-.1.5-.2 1.1-.3 1.6-.6 2.3-.5 4.6.2 6.8l3.1-9.4.3.1-.2 1.3zm38.4-28.3c1.8-1.7 2.3-4.2 3.7-6.3 2.7-3.9 4.5-8.4 6.7-12.6.2-.4.3-.8.3-1.3l-.4-.2c-6.4 7.6-12.3 15.5-20.1 21.9 1 1 3-1.1 3.2 1.4l2-2.3.5.4c-1.2 2-2.2 4.1-3.6 6s-3.1 4.8-3 6.1c4.3-3.8 7.4-8.5 10.7-13.1h.1zm-74.2-178.5c-.6-.3-1.6-1-1.9-.8-1.3.9-2 .1-2.7-1-.8.7-1.7 1.4-2.6 2-.4.3-1.3.5-1.6.3-.7-.6-1-.3-1.4.3-.4.5-.8.9-1.2 1.4-.1-1.5.7-2.8 2-3.6.3-.1.6-.3.9-.2 1.3.6 1.6-.4 2.6-1.2-1.9-.6-3.7-1.4-5.5-2.3-1-.6-2.2-.8-3.4-.6-2.3.1-4.7-.1-7.1-.1-2.1 0-4.2.3-6.4.4 3.5 1.7 7.2 2.5 9.9 5.6.8-1.2 1.3-2.2 2-3.1 1.8-2.3 1.4-2.1 2.4-1.9-1 1.5-2 3-2.9 4.5-.2.4 0 1 0 1.5h.6l3.1-4.3.7.4c-.2.5-.4 1-.7 1.4-.5.7-1.3 1.4-1.7 2.2-.1.2.1.6.2 1 .3-.1.8-.1 1-.4.4-.7.7-1.5 1.1-2.2s.7-.8 1.5 0c-2.1 1.2-2.7 3.9-1.5 6 0 .1.1.1.1.2.3.8 1.1 1.2 1.9.9.1 0 .2-.1.3-.1 2.2-.9 4.5-1.6 6.8-2.2s4.7-.9 7-1.4c.5-.1 1.3-.7 1.2-1-.2-1.8-1.8-2.4-2.9-3.4-.4-.4-1.5 0-2.4 0zm-95.1 41.5c0 .2.1.4 0 .6-1 1.6-2 3.1-2.9 4.7-.2.4-.4.8-.6 1.2l.7.6.9-1.6 4.4-7.6c.8-1.4 1.6-2.8 2.5-4.2.2-.3.8-.3 1.3-.4.1.5.2 1 .2 1.4 0 .2-.4.4-.5.7-.7 1.5-1.4 3-2.1 4.5l.5.3c2.3-2 3-5.1 4.8-7.4l.3.2c-.9 1.7-1.8 3.4-2.8 5.1l.6.4 3.9-7 .4.2-2.4 4.7.6.3c1-1.2 2-2.5 2.9-3.8 1.3-2.2 2.3-4.5 3.4-6.8.2-.3.5-.5.8-.6.2-.1.5 0 .6-.1.9-1 1.6-2 2.4-3.1 3.1-4.9 6.2-9.9 9.2-14.9.6-.9 1.1-1.9 1.8-3.3l-2.3 1.3c-1.6 1.3-3.2 2.7-4.9 4-1.1.9-2.4 1.7-3.5 2.7-1.8 1.7-3.5 3.6-5.2 5.3-1 1-2.1 1.7-3 2.7-2 2.1-3.8 4.4-5.8 6.5-.6.7-1.4 1.3-2 2-1.4 1.9-2.5 3.9-4 5.8-.9 1.2-2.2 2.1-3 3.3-1.4 2.3-2.5 4.7-3.9 7.3.6-.1 1.2-.1 1.3-.3.7-.9 1.3-1.8 1.7-2.8.6-1.4 2.1-2.3 3.7-1.9zm21.1 31.6c-1.8-.5-3.6-1-5.4-1.4-.6 0-1.3.1-1.9.2.5.5.9 1.1 1.4 1.6.1.1.4 0 .6.1 1.3.2 2.5.3 3.7.6 5.1 1 10.1 2.5 14.9 4.6 2 .8 4 1.7 5.9 2.8 3.2 2.1 6.2 4.4 9.1 6.8 2.7 2.1 4.9 4.8 6.4 7.9 1.2-1.1 2-.8 2.7.3.2.2.4.5.7.6 1.4 1.1 2.6 2.3 1.2 4.2 0 .1-.1.1-.3.2-.3-.6-.6-1.2-.9-1.7h.8v-.1l-.8.2-2.5-3.1c.3 2 .8 4 1.4 5.9.1.3.5.4.8.6s.9.4 1.3.6c1.8 1 3.7 2 5.5 3.1.5.3 1.1 1 1.5.9 3.3-.7 6.5-1.6 9.4-2.4l-2.4-3-.2.2.5 1.7-.3.3c-1.2-1.1-3.6 0-4-2.5 0-.3-.6-.6-.9-.7-3.5-1.5-5.7-4.6-8.6-6.9-1.1-1-2.1-2.2-3-3.4-1-1.2-1.9-2.5-2.8-3.8-.4-.9-.7-1.8-.8-2.7-.3-.8-.4-2.1-.9-2.2-1.5-.5-2-1.7-2.7-2.9-.5-.9-1-1.7-1.5-2.5-1.3-1.5-2.1-3.3-2.4-5.3-.4-4.5-3-8.5-6.8-10.8l-1.8 2.5c-.1-.9-.1-1.4-.2-2l.3-.4-.2-.1v.5l-1.8.5-.4-1c-.1-.3-.2-.8-.3-.8-1.2-.1-1.7-1-2.2-1.8s-.7-1.6-1.4-2c-1.9-1.2-3.9-2.3-6-3.3-3.3-1.6-6.4-3.5-10.2-3.8-1 0-2 0-3 0v.5c1.2.5 2.3 1 3.4 1.7 5.8 3.9 12 7.3 18.4 10.1.6.2 1.1.3 1.7.3-.1 1.7.5 3.3 1.5 4.7.8 1 2 1.7 2.8 2.7 1.2 1.3 1.9 3 1.9 4.7-.9-.8-2-1.3-2.4-2.2-1.4-2.5-4.2-3-6.2-4.6-1.6-1.1-3.4-1.9-5.3-2.4-.7-.1-1.5-.1-2.3 0v.5l6.4 3.8c-1.7-.8-3.5-1.5-5.2-2.4-2.3-1.2-4.6-2.4-6.9-3.7l-.2.4 2.4 1.8c-.6-.1-1.1-.2-1.7-.4-1.4-.8-2.8-1.6-4.2-2.5l-3.8-1.7-.2.4 1.6.6v.2l-2.3-.1-.5.7 1 .3c-.7-.2-1.4-.5-2-.8-2.8-2-6.4-2.4-9.5-.9.3 0 .6.1.9.2s.5.2.8.3c-2.5-.1-5.2-.9-7 2l.6.6c1.7 1 3.4 2.1 5.1 3.1.3.2.9.3 1 .6.7 1.4 2 1.3 3.2 1.4 2.1.2 4.3.2 6.4.6 2 .4 4 .9 5.9 1.7 1.1.3 2.7 0 3.2 1.5zm45.6 146.6c-.5-2.1-1.3-2.6-3-2.4-1.2.1-2.4.1-3.6 0-3.4-.1-6.7-1-10.2-.5-2.6.3-5.3.6-8 .6-1.5.1-3.1 0-4.6 0v.5c9.1 2.9 18.5 4.4 27.8 6.9 0-2.2 1.8-1.3 2.8-1.6-.2-.5-.3-1-.2-1.6.1-.4.7-.7 1.1-1.2zm7.9-77c3.5 1.5 9.4-1.4 10.4-5.2.5-2 .9-4 2.5-5.3 1.1-.7 2.1-1.5 3.1-2.4 2.8-3 6.5-4.3 10.1-5.9 2.5-1.1 5-2.2 7.9-1.9.6-.1 1.1-.2 1.7-.5-2.8-1.3-5.5-.6-8.1.4-2.9 1.1-5.7 2.4-8.5 3.5-.6.2-1.2.3-1.9.4-1.3.2-2.5.3-3.8.6-2.2.6-4.1 2-5.4 4-1.3 1.5-2.2 3.2-2.9 5.1-.5 1.9-1.4 3.7-2.6 5.2-.9.5-1.7 1.2-2.5 2zm-56.7-106.6.5.3c9-6.5 18.6-12.1 28.8-16.6l-.8-1.1c-1.2-1.7-1.5-1.9-3.5-1-.9.4-1.8 1-2.7 1.4-3.6 1.8-7.3 3.4-10.8 5.4-2.7 1.5-5.2 3.4-7.4 5.5-1.6 1.9-3 3.9-4.1 6.1zm112.8 5.3c5.9-10.4 13.2-19.9 21.9-28.2-3.4-1.4-4.8-1.1-7.1 1.3-.8.8-1.5 1.6-2.1 2.5-2.3 3.4-4.6 6.8-6.9 10.2-1.5 2.1-3.5 3.8-3.6 7.1l-.6-1.3c-3 3.3-3.4 4.9-1.6 8.4zm18.5 78.6v-.7c-1.6 0-3.3 0-4.9 0-2.4.2-4.9-.1-7.1-.9-2.9-1.2-6.2-1.1-8.9.5 2-.2 4-.1 6 .2-1.6.6-3.2.8-4.7 1.3-2.9.9-5.8 2.1-8.8 2.9-3.7.9-7.4 1.5-11.1 2.3-3.3.7-5.5 3-7.4 6.1.5-.1.9-.2 1.3-.3 1.9-.9 3.8-1.7 5.7-2.7s3.5-2.1 5.3-3c2.5-1.3 5.3-2.3 8-1.6 3.5.9 6.7.1 9.9-1 3.6-1.4 7.4-2.2 11.2-2.4 1.8-.2 3.7-.4 5.5-.7zm-74.8-110.7c-1.3-.9-2.1-1.6-3.1-2.3-.9-.8-2.1-1-3.2-.5-2.1.7-4.3.9-6.4 1.7-1.9.7-3.7 1.6-5.5 2.5-.2.1-.3.3-.3.5v4.3c2.5-.6 4.7-1.6 6.8-1.6 2.4 0 4.1-1.7 6.2-2.2 1.1-.4 2.1-.9 3.1-1.6.8-.3 1.6-.6 2.4-.8zm29.6-12.2c.4 1.1.9 2.2 1.4 3.2.3.4.7.7 1.2.7 1.1 0 2.2-.4 3.2-.4 4.9.2 9.8.5 14.7.8 2.1.1 4.1-.1 6.2 0 2.6.2 5.2.7 7.8.9 1 0 2-.1 2.9-.2v-.4c-1.5-.5-3-.9-4.5-1.3-5.4-1-10.9-1.9-16.3-2.6-2.1-.3-4.2-.9-6.4.3-1.6.9-3.3 1.5-5.1 1.9-.8.1-1.7-.2-2.3-.8-.9-.8.2-1.3.6-1.8.3-.3.7-.5 1-.6l-.4-.7zm-10.1 224.5c-.1-1.5 0-2.9-1.6-3.6-.2-.1-.4-.5-.4-.8s0-.9.2-1.1c.4-.2.8-.1 1.1.1.7.5 1.4 1 2 1.6l7.6 7.3c.4.3.8.6 1.2.8-1.3-2.2-2.8-4.4-4.4-6.5-1.7-2.3-3.5-4.3-6.3-5.2l-.5-2c-1.6.8-3.2 1.5-4.9 2.1-1.7.5-3.6.5-5.4.9-.7.3-1.3.6-1.8 1.1.5.5.9 1.3 1.6 1.4 3.7 1.4 7.6 2.6 11.6 3.9zm-8.2-78.5-.5-.4c-.7.7-1.6 1.4-2.4 1.9-1.8 1-3.7 1.8-5.5 2.7-1.3.6-2.4 1.6-4 1-.2-.1-.5.1-.6.3-1 1.1-2.2.9-3.5.9-1.6 0-3.2 0-4.8.2-1.3.2-2.5.4-3.7.9-1.7.6-3.4 1.3-5.1 2-.3.1-.4.6-.5.9.3.1.7.2 1.1.2.7-.1 1.4-.4 2.2-.6 3.9-.8 7.9-1.7 11.8-2.5.7-.2 1.7-.5 2.2-.1 1.9 1.2 4.3 1.7 6.5 1.4 1.7 0 3.2-.9 3.9-2.4.9-2 1.9-4.2 2.9-6.4zm-95.2-66.6-.9-1.8c1.1.4 1.7 1.5 3.1 1 1.9-.6 4-.8 5.9-1.3 1.1-.3 2.2-.7 3.3-1.2l-.1-.6c-1.2-.1-2.5.2-3.6-.3-2.2-1.1-4.6-1.1-6.9-1.4-2.3-.2-4.5-.8-6.2 1.3-1.5 1.9-3 3.8-4.4 5.7-.2.2-.1.5-.2 1.3zm43.9 90.1.4.1c.5-1.3 1-2.7 1.3-4.1.5-4.1 2.7-7.8 6.2-10.2 2.1-1.6 4-3.4 6-5.2.7-.6 1.4-1.1 2.1-1.6-.5-1.2-1.8-1.8-3-1.3-.2.1-.3.1-.4.2-2.3 1.6-5.3 1.6-7.2 4.1-1.9 2.6-4.3 4.9-4.5 8.4-.3 3.2-.6 6.4-.9 9.6zm88.5-156.9c-.6.2-.9.2-1 .3-3.2 2.7-5.8 6-7.8 9.6-.7 1-1.2 2-1.7 3.1-.2 1.3-.4 2.5-.3 3.8-.2 2.1-.4 4.3-.5 6.6.7-1.6 1.4-3.1 2.1-4.6 1.7-3.3 3.4-6.6 5.1-9.8 1.3-2.3 2.5-4.5 3.7-6.8.2-.7.3-1.5.4-2.2zm-114.2 32.2-.5-.6c-1.9 1.3-3.8 2.5-5.6 4.1-2.1 1.7-4 3.7-6 5.5s-4.3 3.6-6.2 5.6c-2.5 2.6-4.6 5.6-7.7 7.6-.1.1-.2.3-.3.5l.2.3c.6-.1 1.2-.4 1.8-.7 1.2-.9 2.2-1.9 3.4-2.8 2.9-2.4 5.9-4.7 8.7-7.2s5.4-5 8-7.6c1.5-1.5 2.8-3.1 4.2-4.7zm104.3 169.9h.2v-8.1l-10.8 4.3 8.6 6.8-1.1-3.9.5-.2 2.4 6 .5-.2-2.7-7.7.6-.2zm-86.7-175.1c2.7 2.8 5.1 5.4 7.5 7.9.3.3.6.5 1 .6 1.3.8 2.4 1.6 3.6 2.4.4.3.7.6 1.1.8l.4-.3c-3.8-4.3-5.4-9.7-8.2-14.8zm-21.6 17.1v.4c4.4.3 8.5 2.8 13.3 1.7l-8.6-6.1zm13.7-7.3c0-.2 0-.4 0-.6-.1-.5-.3-1-.5-1.6.6-.1 1.1-.2 1.7-.2.9.1 1.7.2 2.5.4l-2-3.4-8.5 6.5.3.3h6.2v-.1l-3.5-1 .1-.6zm76-22.4.4.1c.8-1.3 1.7-2.5 2.6-3.7 1.1-1.3 1.4-3 .9-4.5-.1-.6-.8-1.2-1.2-1.7-.4.6-1.1 1-1.3 1.7-.6 2.4-1 4.8-1.5 7.1 0 .3.1.7.1 1zm-28.5 154.7-10.2 2.4 11.8 1.2zm21.9-77.5c-2.4-2.3-4.7-4.4-6.9-6.5l-.4.3 3.7 7.9zm17.5-37.9c.2-.2.3-.2.3-.3.6-4 1.3-8.1 1.9-12.1 0-.3 0-.6-.1-.8-.2-.4-.2-.9-.2-1.3.4-2.1.9-4.3 1.3-6.4-2.8 6.6-3.3 13.6-3.2 20.9zm-127.8 34-.8-1.3-1 .9c-.7-.3-1.3-.4-1.9-.7-.7-.3-1-.6-1.6-.8-1.1-.3-3 2-2.8 3.4zm154.1-87c-3.1-1.1-5.1.5-5.6 4.7 2.2-1.3 4.7-2 5.6-4.7zm-49.3 93.1-6.4-3.9-.4.4c.6.9 1.3 1.7 1.8 2.7 1.6 2.3 2.2 2.5 5 .8zm19.6 24.3c-3.7.6-5.5 1.5-5.9 3 .8-.1 1.7-.1 2.5-.1.8.1 1.5.3 2.2.5zm-105.6-42.9c-.9-.7-2.3-1-2.5-.3-.6 1.6-1.8 1.1-2.8 1.3l-3.3.6.1.4c6.4-.4 6.5.8 8.5-2zm108.8.8h.5c-.3-2.4-.7-4.8-1-7.2s-.6-4.7-.9-7l-.6.1c.6 4.7 1.3 9.4 2 14.1zm-3.4 140.5.1-.4-6-4.9-.5.5c1.6 1.6 3.1 3.2 4.7 4.7.5.3 1.2.1 1.7.1zm-74.4-165.6c.3.6.3.9.5 1l7.5 3.4c-2-2.4-4.7-3.4-8-4.4zm16.9 117.8.2-.3-4.4-3.8-1.5.8c2.2.9 3.5 2.9 5.7 3.3zm.1-163.4-1.2-2.5h-.5l-1.9 3.5.3.3c.5-.2 1-.3 1.5-.5s1-.4 1.8-.8zm105.8 109.1c2 1 3.2-.1 3.2-2.5-2-.4-2.2 1.5-3.2 2.5zm-25.7 95.7c1.5-1.8 2-4.1 1.4-6.4l-.5-.1zm-49.9-99.9c-2.7.7-3.2 1.6-2 3.3.7-1.1 1.3-2 2-3.3zm31.1-33-.4.2 1.5 5.3.6-.2zm-7.4 52.3-.5-.2c-.3 1.4-1.8 2.4-.6 4.2zm-49.6 40.6 3.9.6c-1.1-.5-2.1-1.6-3.9-.6zm-9.2-147v-3.1c-1.6 1.1-.4 2.1 0 3.1zm7.3 29.9.5-.4-2.3-2.8-.5.4zm85.3-32.8-.3-.3c-1 .5-1.7 1.1-1.2 2.5zm24.7 90.8c-1.6-.1-2.2.4-2 2.2zm-1.2-107c-1.9-1.1-2.2.3-2.7 1.1zm-150.2 44.4c-1.5-1.6-2.5-1.7-3.4-.9zm15.1 85v-.4l-3.9-.3v.3zm6.2-82.2.1-.3-3.7-1.6-.2.5zm119.6 143.4c.8-.8 2.5-1.1 1.7-3zm1.1-201.2.2-.5c-.5-.2-1-.4-1.6-.6-.3 0-.6.2-.9.3.2.2.4.6.6.6.6.1 1.1.2 1.7.2zm-53.9 93.7c.2 1.8.5 2 1.8 1.3zm21.8-86.2-.4-.4-1.7 2.1.4.3zm-47.7-5.5.4-.7-1.2-.8c-.1.3-.3.6-.2.7.3.3.6.6 1 .8zm43.9 219.2.2.5 1.3-.5c-.1-.2-.2-.5-.2-.5-.4.1-.8.3-1.3.5zm-50-190.6h-.4l-.2 1.7h.5zm-18.4 140.1.3-.2-.7-1.4-.4.3zm115.2-159.3.3.5 1.3-.6-.2-.5zm-95.2 95.8.1.6 1.3-.3-.1-.5zm-19.5-46.7.5-.4-1.1-1.1-.3.3zm50-34.7.3.1.4-1.6-.4-.1zm-32.3 130.9c.2-.2.3-.4.4-.6 0-.1-.3-.4-.3-.4-.2.1-.4.2-.5.4 0 .2.3.4.4.6zm18.2-3.6-.3.4.9.7.3-.3zm31.8-122.5-.5-.1-.2 1.1.4.1zm-39 67.8-.2.3 1.4.5.1-.4zm8.3 124.7-.1.4 1.3.4.1-.3zm29-136.6.3.2.6-1-.3-.2zm18.7 129.7-.3-.4-.9.7.2.3zm-9.7-188.4-.5-.2-.3.9.3.1zm-121 54.9.1-.2-.8-.4-.2.4zm33.9-32.7-.3-.2c-.1.2-.2.5-.3.7.1 0 .2.1.2.1zm-36.2 13-.2-.3-.7.5.2.2zm162.2 54.3.1.3c.1 0 .2-.1.3-.2 0 0 0-.2-.1-.2-.1.1-.2.1-.3.1zm-22.9-106.3.2-.2c-.1 0-.1-.1-.2-.1 0 0-.1.1-.1.1 0 .1.1.2.1.2zm-72.6 15.7-.1.4h.1zm.4 30.5h.1v-.1h-.1zm94.1 134h.1v-.2s-.1 0-.1.1zm-63.1-197.8-.2-.1s-.1.1-.1.1c0 .1.1.1.2.2zm.1 88-.2-.2v.2s0 .1.1.1zm-95.1 1.3.2.1c0-.1.1-.2.1-.2s-.1-.1-.2-.1zm17.9-56.6-.1.1zm51.2-2h-.1v.1zm-10.1 94.8h-.2s.1.1.1.1zm-3.7 58.4h-.1l.1.1zm-52.2-94.2h-.1zm2.3 1h.1v-.1h-.1zm59.4-39.3c.1 0 .1-.1.1-.1h-.1zm-70.5 2.9s.1-.1.1-.1v-.1s-.1.1-.1.1zm108.6-55.3.3-.1s-.1-.1-.1-.1c-.1 0-.2 0-.3.1zm33 78v-.1z"/><path d="m113.7 265.3 3.1 4c-1.8-.3-2.8-1.5-3.1-4z"/><path d="m124.5 221.3-1.1-1 .3-.4 1.1.9z"/><path d="m108.8 165.8.8.4-.1.3-.9-.3z"/><path d="m140.8 182.1c-2.4-2.2-5.3-2-8.1-2-6.9-.2-13.8-1.2-20.5-2.9-2.2-.4-4.5-.7-6.8-.9-1.5-.2-3-.3-4.5-.6-1.3-.2-1.9-1.1-2.5-2.5h4.6c6.1.2 12.2.9 18.2 2 4.4.7 8.8 1.3 13.2 2.2 2 .6 4 1.4 5.8 2.5.6.3.8 1.2 1.3 1.8z"/><path d="m95.8 169.7c1.8-.2 3.5-.4 5.3-.8 5.1-1.1 10.4-1.2 15.6-.5 5.4.6 10.8 1 16.1 2 6.6 1.2 13.2 2.8 19.6 4.7 3 .9 5.6 2.9 8.3 4.6 2 1.3 3.8 2.9 5.8 4.4.4.3.7.6 1 1-2.8-.4-4.5-2.5-6.7-3.8-3.9-2.5-7.8-4.9-12.4-5.8-6.4-1.3-12.7-2.8-19.2-3.7-7.1-1-14.3-1.6-21.4-2.2-2.1.1-4.1.3-6.2.7-1.4.2-2.8.3-4.2.3-.6-.1-1.2-.4-1.7-.7z"/><path d="m206.3 93.4 1-1.3c-.2 1.8-.4 3.6-.6 5.4-.1 1.3-.3 2.5.7 3.5.2.2 0 .6 0 1.1-1.2-.7-1.9-2.1-1.8-3.5.1-1.8.3-3.5.7-5.2z"/><path d="m311.4 181c-1.7 1-3.4 2-5.1 2.9-.9.5-1.9.9-2.8 1.3.3-.4.6-.9 1-1.1 2.3-1.1 4.6-2.1 6.9-3.1z"/><path d="m206.3 93.3c-.5-4.5-.5-4.6 1.2-6.9-.3 1.1-.6 2.2-.8 3.3-.2 1.2-.2 2.4-.4 3.6z"/><path d="m168.7 178.8-1.7.4-.1-1.4 1.7.1z"/><path d="m225 91.2c.2 1.2 0 2.1-1.7 2.2.4-.4.7-.9 1.1-1.3.4-.3.4-.5.6-.9z"/><path d="m203.2 103.3-.8-1.3.5-.3.8 1.3z"/><path d="m266.7 240.8-.5 2.2-.4-.1.4-2.2z"/><path d="m210.3 93.5v2.7h-.3z"/><path d="m195.6 179.4h1.7v.2l-1.7.1z"/><path d="m216.7 116.2.5 1.8h-.3z"/><path d="m209 93.5.1-.8h.2l-.2.8z"/><path d="m223.7 96.3.6.6-.2.2-.6-.6z"/><path d="m223.2 121.6-.2.9h-.2l.2-.9z"/><path d="m209.6 98.1.1-.6h.2v.7z"/><path d="m224.3 94.8c0-.1.1-.1.1-.2h.1v.2z"/><path d="m213 173.3-.2-.2c.1 0 .2-.1.3-.1s.1.2.1.2z"/><path d="m211.3 265.2-.6.9c.2-.2.4-.6.6-.9z"/><path d="m210.9 85.4.1.9h-.2c0-.3.1-.6.1-.9z"/><path d="m232 87.8v.2z"/><path d="m228.6 161.3.2.8h-.2z"/><path d="m202.1 266.7v-1.3z"/><path d="m302.8 186-.3.1c0-.1-.1-.2 0-.2.1-.1.1-.1.2-.1 0 0 0 .1.1.2z"/><path d="m213 266.3-.4.8c.1-.3.3-.6.4-.8z"/><path d="m190.7 178.8-.3-.3z"/><path d="m188.2 177.6.7.4z"/><path d="m190.7 178.8.6-.3v.2z"/><path d="m210.3 88.7v.1z"/><path d="m227.1 99.5c-.1-.1-.1-.2-.1-.2h.1z"/><path d="m187 177.5 1.2.1z"/><path d="m216.1 123.3-.1-.3h.1z"/><path d="m194.4 179.3s-.1.1-.1 0-.1 0-.1 0h.1z"/><path d="m188.9 178.1h.3-.1z"/><path d="m192.7 179.1v-.1h.1v.1z"/><path d="m203.6 263s-.1-.1-.1-.1c0-.1.1-.1.1-.2 0 0 .1.1.1.1s-.1.1-.1.2z"/><path d="m210.6 87.8v-.1z"/><path d="m211.4 265.2v-.2l.1.1z"/><path d="m213 266.3v-.2.1s.1.1 0 .1z"/><path d="m213.9 82s-.1-.1-.1-.1.1-.1.2-.1c0 0 0 .1-.1.2.1 0 .1 0 0 0z"/><path d="m215.9 118.9.1.1z"/><path d="m243.7 260 .1-.2s.1.1.1.1 0 .1-.2.1z"/><path d="m223.6 94.5h-.1s-.1 0-.1-.1.1-.1.1-.1c0 .1.1.2.1.2z"/><path d="m227.4 98.3v-.1z"/><path d="m202.7 264.2v.2z"/><path d="m295 171v-.1l-.1.1z"/><path d="m303.5 185.3h-.1z"/><path d="m230.9 160.3-.5-.3z"/><path d="m215.8 118.9.1-.1v.1z"/><path d="m202.8 264.1v.1z"/><path d="m218.4 152.7-.4-.4z"/><path d="m236.9 196.6c-.5 1.9-1.1 3.9-1.6 5.9-.4 1-.3 2.2.4 3.2.3.3-.3 1.3-.6 2.2-2.2-2.2-.7-9.7 1.8-11.3z"/><path d="m240.3 194.9c-.3 3.3-.5 6.9-.8 10.5 0 .2-.3.4-.5.7-1.6-1.9-.5-9.4 1.3-11.2z"/><path d="m256.9 193.5c-.7 2-1.4 4-2 6-.2.9-.2 1.8-.2 2.7-.1.5-.2 1-.4 1.5 0 .1-.6.1-.7 0-.2-.5-.5-1.1-.4-1.5 1-3 2.2-6 3.3-9.1z"/><path d="m245.9 222c-.8-1.3-1.5-2.5-2.3-3.8 1.6-.8 4.1-.3 6.1 1-1.2.5-2.5-1.5-3.6.3l1.3 1-.1.2-2.5-.7z"/><path d="m253.4 215.2-2.5 1.2v.5l-2.3-1.4.1-.5h3.8l.2-2.1 2.1.6c-1.4 0-1.7.3-1.4 1.7z"/><path d="m273.1 199.8c-1.1-.6-2-.4-2.5 1-.5-.2-.9-.5-1.3-.9-.3-.4-.3-.8-.2-1.3 0-.2.6-.2 1-.3s1-.1 1.6-.2l-.5.4z"/><path d="m267.4 206.5-3.8.9-.6-1.1c1 0 1.7.2 2.3.1.7 0 1.5.6 1.4-.8 0 0 .3-.1.5-.2z"/><path d="m237.4 224.2-1.5-1.8c1.3-1 1.8-.1 2.2.3z"/><path d="m253.4 215.2 3.2.6-.2.6z"/><path d="m239.1 222.9 1.3.4v.2l-1.3-.3z"/><path d="m274.6 197.3.3-1.2h.1l-.1 1.2z"/><path d="m245.9 222h2v.4c-.7-.1-1.3-.3-2-.4z"/><path d="m224.9 209.6-.2-1.6h.4c-.1.6-.2 1.1-.2 1.6z"/><path d="m273.1 199.8h1.2v.4z"/><path d="m189.1 225.8.8.4-.4.5c-.2-.3-.3-.6-.4-.9z"/><path d="m272.4 201-.9.2v-.3z"/><path d="m212.2 218.6.9.5z"/><path d="m252.3 217.5-.3-.5h.1z"/><path d="m254.8 213.5.8-.1v.2z"/><path d="m206 223.6.7-.2v.3z"/><path d="m273.6 201.5h.4v.1z"/><path d="m275.5 193.1.1-.1v.1z"/><path d="m252.3 217.5h.2-.1s0 0-.1 0z"/><path d="m238.8 225.5h-.1l.2-.1s0 0 .1.1z"/><path d="m227 211.4c0 .1 0 .2 0 0z"/><path d="m237.4 224.2h-.1z"/><path d="m273.3 193.2h-.1z"/><path d="m272.5 201.1h-.1v-.1z"/><path d="m191.2 224.6.3.5z"/><path d="m213.1 219.1.3.4z"/><path d="m202.9 228.2.1-.1v.1z"/><path d="m194.1 116 1.5 3.8-.4.2c-.5-1.3-1-2.5-1.5-3.7z"/><path d="m188 114.4 1.1 1.3-.4.3c.1 0-.7-1.6-.7-1.6z"/><path d="m185.6 102.7-.1-1.1h.1z"/><path d="m184.6 131.5.8 1.3-.3.2z"/><path d="m184.6 91.7v-1.1h.3l-.1 1.1z"/><path d="m187.8 111v1.4h-.3c.1-.5.2-.9.3-1.4z"/><path d="m184.1 91v-1.1h.3c-.1.4-.2.7-.3 1.1z"/><path d="m198.5 128.4-.1.1-.2-.2s0-.1.1-.1z"/><path d="m194.5 101.1h-.1v-.1z"/><path d="m192.3 105.4v.6z"/><path d="m188 114.4v-.6h.1c0 .2 0 .4-.1.6z"/><path d="m184.7 131.5-.8-.5z"/><path d="m214.3 150.9.2.7z"/><path d="m199.5 153.2v-.1h-.1z"/><path d="m214.3 151h-.1z"/><path d="m214.5 151.6-.1.1z"/><path d="m196.3 123.5.1.1h-.1z"/><path d="m292.2 86.1c.7-1.8.5-3.9 1.9-5.5.2 2.1-.8 3.9-1.6 5.8z"/><path d="m290.9 83.1 1.4-2.2.5.2c.2.9-.3 1.6-1.1 2.1.1-.3 0-.3-.8-.1z"/><path d="m290.9 83-1.8 2.1z"/><path d="m288.4 86.5.8-1.3z"/><path d="m292.5 86.4-.7.3.3-.6z"/><path d="m291.2 87.7c.2-.3.4-.6.6-.9z"/><path d="m291.6 84.1-.5.4z"/><path d="m291.6 84.1.2-.8c-.1.3-.1.5-.2.8z"/><path d="m291.1 84.4v.2s0-.1 0-.2z"/><path d="m290.3 86.6v.1z"/><path d="m288 86.9-.4.2z"/><path d="m287.9 86.9c.1-.2.3-.3.4-.5z"/><path d="m254.9 110.6c.1 1.8.2 3.6.3 5.4h-.6c.1-1.8.2-3.6.3-5.4z"/><path d="m244.7 138.5v-1.8h.1z"/><path d="m242.9 105.6.1.9h-.3l-.1-.8z"/><path d="m244.4 143c-.1-.2-.1-.4-.1-.6s.1-.4.3-.6c0 .4-.2.8-.2 1.2z"/><path d="m254.8 117.7v-.1h.1z"/><path d="m244.7 140.6.1.1h-.1z"/><path d="m243.3 107.4h-.2z"/><path d="m144.7 133.1-4.2-2.2c2.4 0 3.9.9 4.2 2.2z"/><path d="m190.8 164.3 1.9 1.6c-1.5.5-1.7.3-1.9-1.6z"/><path d="m148.8 130.2c.5.1 1 .2 1.5.4 0 .3 0 .5-.1.8l-1.6-.5z"/><path d="m149.7 136.3 1.3-1.6.4.2-.4 1.8z"/><path d="m141.2 126.6 2.4.2-.1.5z"/><path d="m139.8 130.7-.4-.6c.1 0 .2-.2.3-.2s.2.1.3.3c-.1.1-.2.3-.2.5z"/><path d="m172 138.6-.3-.3.2-.2.3.3s-.1.1-.2.2z"/><path d="m193.5 166.7v.1h-.1z"/><path d="m133.7 127.4-.2-.2s.1-.1.1-.1l.2.2z"/><path d="m132.6 128-.6-.6z"/><path d="m138.2 129.5.4.2v.1z"/><path d="m152.1 129.6.6-.2v.3z"/><path d="m145.2 125.5-.3.2-.1-.1z"/><path d="m132 127.4v-.1z"/><path d="m160.9 132.3-.1.1z"/><path d="m144.2 130.8.3.2z"/><path d="m141 126c0 .2.1.4.2.6z"/><path d="m138.2 129.5-.1-.1z"/><path d="m131 127.3c-.1-.1-.1-.2 0-.2s0 0 0 .2z"/><path d="m151.3 128.9c-.1-.2-.2-.3-.3-.5.1.2.2.3.3.5z"/><path d="m132.5 128h.1z"/><path d="m146.3 126.8h.1z"/><path d="m144.5 131h.1z"/><path d="m169 127.8v.1z"/><path d="m113.1 150.2-2.9-.6c2.1-1.1 2.9-.8 2.9.6z"/><path d="m142.7 150.5-.4-1 .2-.2 1.3 1.2-.2.3z"/><path d="m171.8 161.1-.9-.6.5-.4c.1.4.2.7.4 1z"/><path d="m175.6 160.6-.6-.4.2-.2z"/><path d="m179.5 165.3h.1z"/><path d="m131 144.8c.1 0 .2.1.2.1h-.1s-.1 0-.1-.1z"/><path d="m172 161.8v-.4l.3.3z"/><path d="m172 161.5h-.4l.1-.4z"/><path d="m179.5 165.3.1-.1z"/><path d="m175.5 160.6h.2-.1z"/><path d="m172.6 162.1-.3-.4z"/><path d="m268.7 105.3 2.6-4.7c0 3.6-1.1 5.5-2.6 4.7z"/><path d="m266.3 104.1.2-.5z"/><path d="m266.2 104.1-.1.2s0-.1.1-.2c-.1.1 0 .1 0 0z"/><path d="m265.6 105.1.1-.1z"/><path d="m266.4 103.7.1.1z"/><path d="m250.7 147.7-.1.1h.1z"/><path d="m242.3 154.3.1.1z"/><path d="m275.3 94.3v.1z"/><path d="m167.7 170-.6-.3-.5-1.8v-.4h-.4c-.1-.4-1.3-.6-.3-1.2l1.8 2.5.1.4h-.1l.3-.3z"/><path d="m127.6 161.4-.2-.1s.1 0 .2.1z"/><path d="m164.7 169.1.3.2z"/><path d="m166.3 169.7-.3-.1.1-.1z"/><path d="m166.2 165.7-.3.7z"/><path d="m166.6 167.9-.4-.3h.4z"/><path d="m162.8 168.3h.2s0 0-.1 0z"/><path d="m157.4 70.3v-.1z"/><path d="m128.6 104.7h.1z"/><path d="m223.7 63.2h-.1l.1-.1z"/><path d="m293.9 241.5s.1.1.1.1c0 .1-.1.2-.1.2s-.1-.1-.1-.1.1-.1.1-.2z"/><path d="m191.5 156.2-.1-.2z"/><path d="m184.9 144v.1l.1-.1z"/><path d="m185 144-.1.1v-.1z"/><path d="m194.2 158v.1z"/><path d="m191.5 156.1h.1v.1z"/><path d="m271.4 85.2.9-1.5.4.4z"/><path d="m273.4 82.7-.5.6-.2-.2.5-.6z"/><path d="m274.8 81.1c0-.1-.1-.2-.1-.2s.1-.1.2-.2l.1.3z"/><path d="m276.4 80.2h-.1z"/><path d="m271.3 86 .1-.9c0 .3-.1.6-.1.9z"/><path d="m256.4 267.8-.8 1.3z"/><path d="m256.4 267.9-.1-.3c0 .1 0 .2.1.3z"/><path d="m188.2 68.5c.5-.9 1-1.8 1.5-2.8l.5.3z"/><path d="m185.1 67.5h.1z"/><path d="m219.4 280.3.4 1.4h-.7z"/><path d="m219.4 280.2.1.1h-.1z"/><path d="m168.5 171.1 1.4-.5c0 1.8-.9.6-1.4.5z"/><path d="m173.3 173.5.2.2-.2.1h-.1c0-.2 0-.2.1-.3z"/><path d="m167.8 168.8.1-.2.1.2z"/><path d="m263 102.9-.9 2.7-.5-.2.9-2.8z"/><path d="m154.7 114v-.4h.1z"/><path d="m123.4 148.6h-.1v-.2h.1z"/></g></svg>