<svg enable-background="new 0 0 350 350" viewBox="0 0 350 350" xmlns="http://www.w3.org/2000/svg"><g fill="#fff"><path d="m320.6 134.4c.3.6.6 1.2.9 1.7v.1-.1c1.3 1.8 2.8 3.5 4 5.4 1.5 2.4 3.1 4.7 5.6 6.1.8.4 1 1 .4 1.6-.8.8-1 2.1-.3 3 3.5 5.8 4.5 12.4 6 18.7 1.2 5.1 2.3 10.1 3.2 15.2.4 2.6.6 5.2.7 7.8.2.7.2 1.4.3 2.1-.1 1.6-.4 3.1-.7 4.6-.1.3-.5.7-.8.9-1.4.8-2.8 1.6-4.3 2.3-.7.5-1.7.3-2.2-.4 0 0 0-.1-.1-.1-.4-.3-.8-.4-1.3-.3-1.1.5-2.1 1-3.1 1.5-.2.1-.5.2-.5.4-1.3 2.9-4 3.1-6.4 3.2-3.5.1-6.4 1.4-9.4 2.9-1 .5-.6 1.2-.1 1.7 3.3 3.2 6.6 6.4 9.9 9.6.5.6 1.4.8 2 .3 0 0 0 0 .1-.1.7-.5.9-.1 1.2.5 1.2 2.6.5 5.7-1.6 7.7-.6.7-1.2 1.4-1.7 2.1-.2.2-.1.6-.1.9.2 0 .5 0 .7-.1.6-.4 1-1.5 1.9-.7s.6 2 .4 3c-.4 1-1.5 1.4-2.5 1-.4-.1-.9-.1-1.3.1-4.2 2.1-7.8 5.1-11.4 8.1-2.1 2-4.8 3.3-7.7 3.6-.8.1-1.6.4-2.4.7-3.6 1.3-7.2 2.4-10.8 3.9-1.5.7-3 1.6-4.3 2.6-1.2.8-2.2 1.8-3.5.1-.1-.2-.6-.2-.9-.1-3.4.9-6.8 2-10.2 2.8-2.8.5-5.4 1.9-7.4 4-1.3 1.6-2.3 3.4-3.6 5-1.5 1.9-3.1 3.7-4.6 5.4-1 1.2-2 2.2-3 3.2-1.7 1.7-3.4 3.2-5.1 4.9-.4.4-.7.8-1.2 1.2-1.1.8-2.1 1.6-3.2 2.3-3.8 2.5-8 4.2-12.4 5.3-3.1.8-6 2.1-9.1 3.2-4.3 1.5-8.5 3.2-12.8 4.6-2.5.9-5 1.6-7.6 2.2-1.4 0-2.8-.2-4.1-.8-.8-.3-.9-1-.4-1.7s1.1-1.4 1.7-2c3.2-3.3 5.8-7 7.9-11.1 1.8-3.4 3.7-6.7 5.8-9.8 1.8-2.5 3.1-5.2 4-8.1.3-1 .6-1.5-1-1.6-4.3-.3-8.6-1-12.9-1.4-1.8-.2-3.6-.2-5.5-.2-4.9 0-9.8-.6-14.6-1.7-3.4-.7-6.8-1.1-10.2-1.6s-6.5-.9-9.7-1.5c-5-1-10.1-2-15-3.2-4.4-1.1-8.7-2.3-13-3.6-5.6-1.7-11.2-3.5-16.9-5.2-2.9-.9-5.9-1.7-8.8-2.7-1.9-.7-3.7-1.7-5.5-2.6l-4.2-2c-2.8-1.3-5.6-2.6-8.3-4-1.8-.9-3.4-2.2-5.2-3-1-.4-2.2-.5-3.3-.3-2.3.6-4.6 1.3-6.8 2.2-3.3 1.4-6.5 2.9-9.8 4.4-1.2.5-2.2 1.2-3.4 1.5-2.7 1-5.3 2.4-7.6 4.1-2.9 2.2-6 4.1-9.1 6.1-3.1 1.9-6.5 3.6-9.6 5.6-2 1.2-3.8 2.6-5.8 3.8-2.4 1.6-4.9 3.2-7.4 4.8-.5.3-.9.6-1.4 1 0-.7.1-1.3.2-2 .4-1.2.3-2.1-1.2-2.2-.3-.1-.6-.2-.7-.5-.9-1.9-2.2-3.8-2.6-5.9-.2-2.1-.1-4.3.3-6.4.4-3.4 2.6-6 3.8-9.1.5-1.3 1-2.6 1.6-3.9 1.4-2.9 2.7-5.8 4.2-8.7 1.7-3.2 3.6-6.3 5.4-9.5.6-1.4 1.3-2.8 2.1-4.1 2.6-3.7 4.8-7.7 8.1-11 1.5-1.5 3-3.1 4.5-4.7.7-.8 1.3-1.6 2-2.4s.7-1.3-.4-1.8c-3.3-1.5-6.6-2.8-9.7-4.6-3-1.7-5.8-3.6-8.4-5.8-3.1-2.5-6-5.3-8.8-8.1-2.6-2.5-4.8-5.3-6.6-8.4-1.2-1.9-2.4-3.8-3.4-5.8-1.4-3.4-3.6-6.5-4-10.3-.1-1.2-1.2-2.2-1.4-3.4-.3-2-.6-4-.7-6-.2-1.8-.3-3.6-.5-5.3 0-.3-.2-.7-.2-.9.6-3 .5-6.1 2.3-8.8 1.8-2.5 4.2-4.5 7-5.8.6-.2 1.3-.2 1.9.1 4.3 2.6 9.1 4.2 13.7 6.2 3.7 1.6 7.4 3.2 11.2 4.7s7.9 3 11.8 4.6c1 .5 2 1.1 2.9 1.8.3.2.5.4.8.5 2.8.8 5.6 1.5 8.3 2.5s5.4 2.2 8.1 3.3c1.2.5 2.3 1 3.5 1.5 2.6 1 5.2 1.9 7.7 2.9 2.3.9 4.6 1.7 6.7 2.8.8.5 1.9.3 2.5-.5 2.5-2.5 5-5 7.6-7.4.4-.4.9-.8 1.4-1.2 2.3-1.8 4.5-3.6 6.8-5.4.7-.5 1.3-1.2 1.8-1.8 1.5-1.6 3.3-2.9 5.3-3.8 1.8-1 3.5-2.3 5.1-3.8 4.7-4.1 10-7.6 15.6-10.3 4.1-2.1 8.3-4 12.4-6 2.6-1.3 5.1-2.6 7.7-3.8 6.7-3.3 13.9-5.6 21.2-6.8 1.2-.2 2.4-.5 3.6-.9.5-.2.9-.4 1.3-.6-.4-.3-.8-.5-1.2-.7-1.9-.6-3.8-1.2-5.8-1.8-.8-.2-1.6-.6-2.3-1.1-.8-.6-1.8-1.2-1.4-2.7.2-.8-.3-1.7-.5-2.6-.5-2.7.5-4.3 3.1-5.3 3.8-1.4 7.6-2.9 11.4-4.2 3.3-1.2 6.8-2 10.1-3 2.1-.7 4.2-1.7 6.3-2.3 4.3-1.2 8.6-2.3 12.9-3.3 3.9-1 7.8-1.9 11.7-2.7 2.2-.4 4.4-.6 6.6-.7 3-.1 6-.2 8.9-.1 2.2 0 4.4.7 6 2.2.2.2.5.4.5.6-.1 1.7 1.2 2.3 2.3 3.2 2.1 1.7 4 3.8 5.4 6.2 1.6 2.2 2.8 4.6 3.5 7.2.5 2.2.9 4.4 1.1 6.7.1 1.3.5 1.9 1.7 2.2 2.2.5 4.4 1.2 6.6 2 4.6 1.7 9.2 3.5 13.6 5.5 3.8 1.8 7.5 3.9 11 6.1 3.3 2 6.5 4.1 9.6 6.5 4.2 3.2 7.9 6.9 11.2 11 1.2 1.4 2.4 2.8 3.6 4.1v-.1.1l2.7 2.8v.9h-.1zm-146 73-.4.1-.2-.3v.4h.1c0-.1 0-.3-.1-.4l.2.3zm-10.8 3.2v-.6zm90.7-78.8-.3.6c-.2-.5-.6-1.2-.5-1.5.7-1.8-.9-3.6.2-5.3 0-.1 0-.2-.1-.3-1.2-.9-.5-2.3-.9-3.5-.1-.3.3-.9.5-1.4.1-.3.3-.6.4-.9-.3.1-.6.1-.8 0s-.4-.4-.6-.6c1.2-1.2 0-2.2-.3-3.2-1.1-3.6-2.4-7-3.6-10.5-.1-.2-.2-.5-.4-.7-.1.2-.3.5-.4.8-.6 2.5-1.2 5-1.9 7.5-.1.2-.3.5-.5.6-2 .3-4 .6-6 .8-.4-.1-.7-.3-.8-.6-.2-.8-.4-1.6-.3-2.4.2-4.5-.3-8.9-2.7-12.8-.3-.4-.7-.6-1.2-.7-.8 0-1.6.5-2.3.4-1.3-.2-2.6.2-3.5 1.2l-1.3-.1c.3.4.5.7.8 1.1 0 0 .2 0 .3.1.1.5.3 1 .5 1.5.6 1.2 1.4 2.3 1.9 3.5.3.8.4 1.8.3 2.6-.4 1.5-1 3-1.6 4.4-.1.3-.4.7-.7.8-1.5.4-3.1.6-4.6.8-.5 0-1.4-.6-1.4-1 0-2.9-1.7-5.1-2.7-7.6-.7-1.3-1.6-2.5-2.7-3.6-.9-1-1.9.1-2.9 0h-.1c-.8 0-1.9-.3-2.2.1-.9.9-.8-1.3-1.7-.3-.5.5-1.4.6-2.1.8-.1 0-.3 0-.4 0l-1.2.2c.1.4.3.7.5 1.1.5.7 1.1 1.4 1.6 2.1 1.1 1.4 1.7 3.1 1.7 4.8 0 1.2 0 2.5-1.9 2.4-.2 0-.5.3-.7.4-1.5.3-2.9.7-4.4.9-.5 0-.9-.3-1.2-.7-1.7-2.4-3.2-5-4.9-7.4-.5-.6-.5-1.5.1-2.1.2-.2.4-.3.7-.3.9-.3 1.8-.5 2.6-.9.5-.3 1-.5 1.5-.9-.5 0-.9 0-1.3-.1-.1 0-.3-.1-.4-.1-1.6-.3-3.2-.6-4.9-.8-.6 0-1.1.1-1.7.4s-1.3.6-1.9.8c-1.3.3-2.8.1-3.3 1.8-.1.4-1 .5-1.5.8.1-.3.1-.7.1-1 0-.2-.1-.3-.1-.5-.1.1-.3.2-.4.4-.2.5-.5 1-.8 1.4-1.4 1.3-1.4 1.3-.1 2.7 1.5 1.5 2.5 3.5 2.9 5.6.3 1.3.8 2.6 1.4 3.9.3.6.4 1-.4 1.2-1.7.5-3.4 1.2-5.1 1.6-1.1.4-2.2-.1-2.8-1-1.7-2.6-3.4-5.3-5-8.1s-1.5-3-4.6-2.1c-2.8.8-5.6 1.6-8.5 2.5-1.3.4-2.5.9-3.8 1.4-.7.2-.7.6-.3 1.2 2.3 2.7 4.6 5.4 6.9 8.1.3.5.4 1 .3 1.5-.8 1.9-2.6 3.4-4.6 3.9-2.7.9-2.7.6-4.4-1.6-2-2.8-4.2-5.4-6.3-8.1-.4-.3-.9-.4-1.4-.3-2.3 1.2-4.6 2.4-6.8 3.7-.4.4-.5 1-.4 1.5 1.2 3.7 2.4 7.3 3.7 11 1 2.8 2.2 5.5 3.2 8.2.7 1.8 1.1 3.8 1.7 5.7.8 2.5 1.5 5 2.3 7.5.5 1.2 1 2.2 1.3 3.3 1 3 2 6 2.8 9 .1 1 1.1 1.7 2.1 1.6h.2c3.1-.3 6.2-.7 9.3-1 2.8-.2 5.6-.5 8.4-.6 2.2-.1 4.4.2 6.6 0 3.5-.2 6.9-.7 10.5-1.1 2.8-.3 5.6-.8 8.5-1.2 3.1-.4 6.3-.6 9.4-1 1-.1 2-.4 3-.7.3-.2.6-.6.6-1 .1-1 0-1.9 0-2.9v-.3.3c-.1-.2-.2-.5-.3-.8-.2-3.7-.3-7.4-.6-11.1-.3-4.1-.7-8.2-.9-12.3 0-.8-.3-1.1-1.1-1-4.3.6-8.6 1.2-12.9 1.8s-8.2 1.5-12.4 2.1c-2.1.2-4.2.3-6.3.4-1.2.1-1.5.6-1.3 1.7.3 2 .6 3.9.9 5.9.2.4.6.8 1.1.9 1.1.1 2.2-.1 3.3-.1s2 0 2.4-1.3c.1-.3.5-.5.9-.6.7-.3 1.5-.5 2.1-.9 1.4-.7 3-.4 4.1.7.3.3.6.4 1 .4 1.9-.5 3.9-.6 5.8-.3 1 .2 1.2.3 1.3 1.2.2 1.2.8 2.3 1.7 3.2.9.8.7 1.4.1 1.9-1.5 1.1-3.1 2.1-4.8 2.9-5.3 2-10.9 3.1-16.6 3.2-2.6.1-5.3.1-7.9.3-1.9.1-2.2-.1-2.5-2-.5-3.6-1.2-7.2-1.8-10.8-.3-1.9-.7-3.7-.9-5.6 0-.7.5-1.4.8-2.2.2-.5.5-.9.6-1.4.5-1.5.9-3 1.4-4.5.1-.2.4-.4.7-.5.8-.3 1.6-.5 2.4-.7 4.2-.7 8.4-1.3 12.5-2.1 4.8-.8 9.5-1.7 14.3-2.5 5.3-.9 10.6-1.8 15.9-2.6.9-.2 1.9 0 2.8-.1 2.5-.2 5-.5 7.5-.6.6 0 1.2.2 1.7.7 1 1.7 1.4 3.6 1.2 5.6-.1.4-.1.8 0 1.2 1 4.9 2.2 9.7 3 14.6.9 4.9 1.6 10.1 2.2 15.2.2 1.8 1 4-1.9 4.6-.1 0-.2.3-.4.4-1.2.8-2.3 1.6-3.6 2.3-1 .5-2.2.7-3.1 1.3-2.7 1.7-5.8 2.7-9 3-3.7.4-7.5.9-11.2 1.5-2.5.4-4.9 1-7.4 1.4-4.6.7-9.2 1.3-13.8 1.9-3.7.5-7.4.9-11.2 1.3-5.7.6-11.4 1.2-17.2 1.6-2.6.2-5.2.1-7.8.1-.5 0-.9-.2-1.2-.5-1-1-1.9-2.2-2.6-3.5-1.4-2.7-2.5-5.5-3.6-8.4-.8-2.1-1.4-4.4-2.2-6.5-1.8-4.7-3.7-9.3-5.5-14-1.2-3-2-6-3.1-9-.9-2.5-2-4.9-2.9-7.5-.3-1.1-.7-1.3-1.6-.8l-7 4.1c-.8.4-.3.8.1 1.2 1.2 1.3 2.7 2.3 3.5 3.8 1.4 2.6 1.9 5.6 1.3 8.6-.4 2-2.2 3.5-4.2 3.5-2.8 0-3.3-.3-4.1-3-.5-1.5-1.2-1.9-2.8-1.4-.4.2-.9.2-1.4.2-.3 0-.7-.2-.9-.5-.1-.3 0-.7.2-.9.3-.4.7-.8 1.2-1.2.8-.6.8-1.1-.1-1.6-.4-.2-.7-.7-1.1-.8-.8-.2-1.9-.6-2.4-.2-1.9 1.5-3.7 3.2-5.5 4.9-.1.1-.2.2-.2.4-.1.4-.2.8-.3 1.2l.8-.6c2.1-1.6 3.7-1 4.2 1.5.2 1 .4 2.1.5 3.1.5 4.6 1.5 9.2.1 14-.5 2.1-1 4.3-1.3 6.4-.3 2-.6 4-.9 6-.2 1-.4 1.9-.4 2.9.1 3.2.3 6.4.5 9.6 0 .6.2 1.2.2 1.8.5 6.1.3 12.2-.6 18.3-1 6.1-.8 12.4-2.2 18.5-.3.9.2 1.8 1 2.1.1 0 .1 0 .2.1 3 1.2 6 2.1 8.9 3.3.9.3 1.4.1 1.6-.6.5-1.5.9-3.1 1.3-4.6.1-.9.8-1.5 1.6-1.6 2-.3 4-.6 6.1-.9 1.5-.2 2.1.3 2 1.8-.2 2.8-.9 5.4-3.1 7.4-.7.6-1 1.2.2 1.6 4.6 1.6 9.2 3.2 13.9 4.9 1.1.4 1.4 0 1.4-1-.1-2-.2-3.9-.4-5.9-.3-2.9-.9-5.7-.6-8.6.1-2.5 0-4.9-.2-7.4l-.3-.3c0-.5-.1-.9-.2-1.4-1-4.2-1.4-8.4-1.4-12.7 0-1.3.5-2.7.3-3.9-.4-2.3 1.3-3.8 1.9-5.7.1-.3.8-.5 1.3-.6.5-.2.9-.1 1.4-.2 3.5-.8 6.9-1.8 10.4-2.2 5.5-.7 11.1-.9 16.6-1.4 6.3-.5 12.5-1.2 18.8-1.7 5.5-.5 11-1.1 16.5-1.7 3-.3 5.9-.8 8.9-1.2 1.9-.2 3.9-.3 5.9-.3 1.2 0 2.4.4 3.7.5s2.5.1 2.8 1.8c.2.5.6.9 1.1 1.2 1.4.8 1.3 2 1.4 3.3.2 4.5.7 9 1 13.5.2 3.1.4 6.2.6 9.3 0 1.1-.4 2.3-1.2 3.1-.6.8-.5 2.2-.8 3.3-.2.6-.7 1.2-.9 1.8-.4 2.1-2.2 3.7-4.3 4-1.8.3-3.6 1-5.4 1.2-2.6.4-5.2.5-7.8.8-2.3.2-4.6.5-6.9.6-1.9.1-3.9-.3-5.6.3-4 1.3-8.1 1.2-12.1 1.6-5.2.5-10.4 1.1-15.6 1.5-1.8.1-3.7.1-5.5 0-1 0-1.5-.6-1-1.7.5-1 .8-2 1.1-3.1.3-1 .4-2 .3-2.9-.2-1.8-.6-3.6-.9-5.4-.2-1.2-.3-2.3-.5-3.4l-.9-6.1c-.4-.6-.2-1.4.4-1.8.1-.1.3-.1.4-.2 2.3-.8 4.6-1.5 7-2.3h.1c2.6-.2 5.1-.3 7.6-.6 3.5-.5 7.1-1 10.5-1.7 2.9-.5 5.7-1.2 8.5-1.9 1-.3 1.9-.9 2.4.6.1.2.7.3 1.1.4.9.1 1.2.5.6 1.2-1.1 1.5-2.1 2.9-3.3 4.3-.4.3-.8.4-1.3.4-1.3.2-2.7.2-3.9.5-4.4.8-8.9 1.6-13.3 2.5-1.8.3-3.7.7-5.5 1.2-1 .2-1.5.8-1.3 2 .3 1.8.3 3.7.5 5.6.3 4.1 0 3.8 3.7 3.3 2-.3 4-.5 6-.6 2.9-.2 5.9-.1 8.8-.4 3.5-.3 6.9-.9 10.3-1.4 3.2-.4 6.4-.6 9.6-.9 1.6-.2 1.6-.2 1.2-1.8-.1-.3-.1-.6-.1-.9 0-1.6.1-3.1.1-4.7 0-5.2-.5-10.4-1.7-15.5-.3-1.4-.8-1.5-2-1.4-6.5.7-13 1.3-19.5 1.9-4.6.4-9.2.6-13.8 1-5.9.5-11.7 1.2-17.6 1.8-3 .3-6.1.5-9.1.7-1 .1-2 .2-1.5 1.6.1.1.1.2.1.2 1 5.9 2.2 11.8 3 17.8.3 3.5.4 7.1.4 10.6 0 1.2-.1 2.4 0 3.6.1 2.2.3 4.4.3 6.6 0 2.6-.1 2.6 2.5 3.2l1.5.3c1.2.1 2.1 1 3.1-1s3.2-3.6 5.1-5.1c1.5-1.3 3.9-.9 5.5.6s1.5 1.9 0 4.4c-.6 1-1.2 1.9-1.7 2.9-.1.2.2.9.4.9 1.3.3 2.6.5 3.9.7.8.1 1-.2.7-.9-.4-.8-.2-1.7.4-2.3 1-1.4 1.9-2.9 3-4.3s2.4-2.8 4.5-2c.7.3 1.3.7 1.9 1.1 2.6 1.3 2.9 2.1 1.3 4.5-.1.1-.2.2-.3.3-.8 1.4-1.6 2.7-2.3 4.1-.1.3.1 1 .2 1.1 2.1.4 4.2.7 6.2 1 .1 0 .5-.6.5-.6-.6-.7-.6-1.7.1-2.3 1.8-2.4 3.6-4.9 5.5-7.2.7-.9 1.8-.7 2.7 0 .4.3.8.5 1.2.8 3 1.7 3.1 2.4 1.3 5.3-.8 1.3-1.5 2.6-2.2 4-.5.9-.2 1.5.9 1.6l4.7.2c.8 0 1.7 0 1.2-1.3-.1-.2.1-.6.3-.9 2.1-3.2 4.1-6.5 6.3-9.7.3-.2.7-.3 1-.2.6.2 1.3.8 1.9.7 1.4-.2 1.8.7 1.9 1.6.1 1.2 0 2.3-.4 3.5-.5 1.7-1.2 3.5-1.9 5.1-.5 1.2-.2 1.7 1 1.8 4.8.2 9.5.3 14.3.4 2.7 0 5.3 0 8-.1.5 0 1.3-.2 1.5-.5.8-1.2 1.5-2.6 2-4 .6-2.1.9-4.3 1.5-6.4.4-1.5 1-2.9 1.4-4.4.8-3.2 1.4-6.5 2.3-9.6.6-2.1 1.5-4.2 2.3-6.3.5-1.3 1.1-2.5 1.5-3.8 1-2.7 1.8-5.4 2.5-8.2.7-3.8.9-7.7 1.3-11.6.3-2.6.7-5.1.8-7.7.3-4.2.4-8.3.6-12.5 0-.7.1-1.4.2-2.1.2-2.9.3-5.8.6-8.7.2-2.5.4-5 .8-7.5.3-1.8 1.2-3.6 1.3-5.5.2-3-.1-6.1-.2-9.2-.1-.3-.2-.6-.4-.9-.3-.4-.6-.8-.8-1.2-.5-1.7-.9-3.4-1.2-5.1-.1-.6 0-1.2.3-1.7.6-.7.6-1.7 0-2.3-.1-.2-.1-.8 0-.9 1.1-.7.5-1.4.1-2.1zm62.4 7.5c-.1 0-.1 0 0 0zm-.6 2.9-.4.4c-.1-1.1-.6-2-1.5-2.7l-.9-1.9c-.4-.8-.5-.3-.6.1-.8-.4-1.6-1-2.3.2s-1.5 2.4-2.1 3.7c-1.5 2.6-2.8 5.3-3.9 8.1-.3 1.2-1.2 2.2-2.4 2.5-1.2.4-1.5.1-1.3-1.2 0-.3 0-.5 0-.8-.3.1-.6.2-.8.4-.5.5-1 .9-1.6 1.2-.8.3-1.6.6-2.4.8-.4.2-.9.4-1.4.5-1.5 0-3 0-4.4 0-1.5 0-1.9-.5-1.9-1.9 0-.6.2-1.4-.1-1.9-1-1.5 0-2.6.5-3.9.3-.9 1.4-2.1.2-3.2.7-3.4 1.4-6.7 2.1-10.1.4-2 1.1-4 1.4-6.1.2-1.3-.5-2.7-.2-3.9.4-1.8 0-3.6-1.1-5.1 0-.1 0-.3 0-.4-1.1 0-2.2-.4-3.2-1.1-.1-.1-.3 0-.5 0-.2.6-.3 1.2-.5 1.7-.9 2.8-1.1 5.8-2.8 8.3-.4.6-.7 1.2-.7 1.9.1 2.6-1.3 3.5-3.5 3.8-.9.2-1.8.4-2.7.7-.6.2-1 .2-1-.6.2-2.3.4-4.7.6-7.1.2-1 .4-1.9.7-2.9.8-3.9.1-8-1.8-11.5-.7-1.3-1.5-2.5-2.4-3.6l.6.2v-.2l-.7-.1c-.7.2-1.4.3-2.2.3-.8-.2-1.4-1.9-2.6-.5l-1.2-1.5.3-.3v-.8l-.2.5-.3.3-.3-.1-.2-.3.2.3c-.2.4-.5.8-.4 1.2.3.9.6 1.7 1.1 2.5 1.2 2.2 2.9 4.2 3.2 6.8.2 2 .3 3.9.6 5.9.5 3.9.9 7.8 2.6 11.4 1.5 3.3 2.3 6.8 2.3 10.4.1 2.9.2 5.9.2 8.8 0 3.5.1 6.8 0 10.2 0 1.7-.5 3.3-.6 5-.1 1.9.2 3.9 0 5.8-.5 4.9-1.2 9.8-1.8 14.6-.3 2-.7 4.1-.8 6.1-.2 3.5.1 7-.2 10.5-.7 6.1-2.1 12.1-4.1 17.9-2.1 6.8-5.2 13.3-8.2 19.8-1.4 3.1-3 6.1-4.5 9.2-.2.4-.6.6-1 .9-.6.4-1.2.8-1.7 1.2-.2.2-.5.5-.7.8.3.1.7.2 1 .3 3.1.1 6.3-.2 9.4-.7 2.2-.3 3.5-1 4.3-3 1-2.5 2.4-4.9 2.8-7.5.5-3 2.6-4.6 4.2-6.7.2-.2.4-.2.6-.2.3.1.7.4.6.6-.7 2.4-1.3 4.9-2.2 7.2-.7 1.6-1.5 3.1-2.4 4.5h-.1.1c-.9 2.3.2 4 2.6 3.8 1.5-.1 3-.4 4.5-.6 1.1 0 2-.9 2.2-2 .6-3 1.4-6 2-9 .7-3.2 1.8-6 4.8-7.8.3-.2.4-.9.5-1.3 0-.1-.4-.3-.7-.3s-.4.1-.6.2c.1-.2.2-.5.4-.6 2-1.5 3.8-3.1 6.4-3.5 1-.2 2-.6 3-.8.3 0 .6.3.9.5-.2.3-.2.6-.5.8-.9.7-.9 1.3-.2 2.1.2.3.5.7.6 1.1.8 1.6.7 1.5 2.1.4.6-.3 1.3-.6 2-.8.2.6.3 1.3.3 2-.3 2-.8 4.1-1.2 6.1-.3 1.6-.9 3.1-1.2 4.7-.2 1.2.2 1.5 1.3 1.2s2.3-.5 3.4-.7c1-.1 2.1-.4 3-.8 3-1.9 5.9-3.9 8.7-6.1 1-.9 1.8-1.9 2.5-3 .2-.5.1-1.1-.3-1.5-.7-.8-1.4-1.5-2.3-2.2-3.1-2.5-6.1-5-9.2-7.5-2.1-1.7-4.1-3.3-6.2-5-.7-.7-1-1.7-.8-2.7 0-1.6 1-2.2 2-3 0-.3 0-.5-.2-.8-.9-.4-1.7-.9-2.4-1.5-1.8-1.6-3.4-3.6-4.6-5.7-.8-1.7-2.1-3.2-2.6-5-.4-2.2-.7-4.5-.7-6.8 0-.5 0-1-.2-1.3s-.8-.3-1.3-.5c.4-.3.9-.6 1.3-1 .1-.2.2-.4.2-.7.2-1.9.3-3.8.6-5.6.3-2 .9-4 1.5-6 .7-1.9 1.6-3.7 2.6-5.4 1.2-2.3 2.6-4.5 4.1-6.6 2.1-2.8 4.5-5.5 6.6-8.3 2.3-3.2 4.5-6.6 6.7-9.9.9-1.3 1.6-2.8 2.3-4.2zm-71.8-72.8.1.5c0-.1-.1-.3-.1-.5zm-69.9 140.7.4-.2-.1-.2zm74-109.6.5.2v-.1zm39.4 14.3v-.5h-.1c0 .1.1.3.1.5l.8.1v-.1zm-147.3 128.4-.3 1.1h-.8l.6.8.4-.8c0-.4 0-.7.1-1.1zm87.9-164.4.3-.1h-.1c0 .1-.1.1-.2.1s-.2 0-.4 0-.5 0-.7 0v.2h.7c.2.1.3 0 .4-.2zm1 1.7-.2-1.1c-.2.1-.6.2-.7.4s0 .5 0 .8zm3.6.6.8.5c1.4 1 2.7-.2 4.1-.1.2-.3.3-.7.3-1-.1-.3-.3-.6-.5-.8-1.5.7-3.5-.2-4.7 1.4-.2-.2-.4-.3-.6-.5 0 0-.2.2-.4.4zm-172.7 83.8v-.1c.3.2.6.3.9.6 1.8 1.5 3.8 2.7 6 3.5 1.6.9 2.2 3 1.2 4.6 0 .1-.1.1-.1.2-1.2 1.5-2.6 2.9-4 4.2-.7.4-1.5.5-2.3.2-3.9-1.9-6.8-5.2-10.7-7.1-1.6-.8-2.7-2.4-4.4-3-.1 0-.1-.1-.2-.2-1.1-.5-.8-2.4-2.4-2.3 0 0 0-.1-.1-.1l-1.5-1.2c-1.4-1-3.5-1.2-4-3.3 0-.1-.4-.2-.5-.3-1.1-.6-2.2-1.1-3.2-1.8-.6-.4-1-1.1-1.6-1.5-2.6-1.8-5.3-3.5-8-5.4-3-2.1-5.9-4.3-8.9-6.5-.3-.2-.6-.3-1-.4 0 .3 0 .7.1 1 .4 1.2.8 2.3 1.2 3.4 1.5 3.7 3.1 7.4 6.1 10.2.5.6 1 1.3 1.4 2 1.4 2 2.8 4.1 4.2 6.1.7 1 1.5 2 2.3 2.8 1 1 2 1.8 3.2 2.5.3.2 1.2-1 1.9-1.5.1-.1.2-.2.2-.2.3 0 .7 0 .9.2.3.5.6 1 .8 1.6.7 1.8 1.6 3.5 2.8 4.9 1.1 1.5 2.6 2.7 4.2 3.5 3 1.6 5.9 3.6 9.4 4.2 2.8.4 5.5 1.2 8.1 2.4 1.2.6 1.5 1.7.7 2.5-.7.7-1.3 1.5-1.7 2.4-.7 1.6-2.2 2.7-3.9 2.9-1.3.3-2.6.9-3.6 1.8-5.2 5-9.7 10.8-13.3 17-2.5 4.3-4.8 8.7-7.2 13.1-1.3 2.5-2.6 5-3.9 7.5-.1.3-.1.7-.1 1 .4 0 .7-.2 1-.3 1-.8 1.8-1.6 2.8-2.4 2.4-2.1 5-4.2 7.3-6.5 1.8-1.8 3.9-3.4 4.5-6.1.2-.5.6-1 1.2-1.3 2.6-2 5.7-3.5 7.9-6 1.3-1.4 2.7-2.7 4.2-3.9 2.2-1.9 4.4-3.7 6.6-5.6.4-.4.9-.7 1.3-1.2.5-.5 1.2-1 1.4-1.7.7-2.3 1.1-4.7 1.4-7.1.6-5.9 2.5-11.7 2.1-17.7-.2-2.8-.3-5.7.8-8.4 0-.1 0-.3 0-.4-.2-1.5-.4-3.1-.5-4.6s.2-2.8.1-4.2c0-1.8-.3-3.6-.8-5.3-.3-.8-1.9-1-3-1.5l-.2-.1c-2.8-1.2-5.5-2.3-8.3-3.3-3.2-1.2-6.4-1.9-9.6-2.9-3.9-1.2-7.8-2.4-11.7-3.8-3.5-1.3-6.8-2.9-10.1-4.4-.5-.2-1.1-.5-1.6-.7-.2-.1-.4.1-.6.1.1.2.1.4.2.6.7.7 1.5 1.3 2.2 1.9 1.1 1 2.2 2 3.2 3 .7.9 1.4 1.7 2.1 2.4 3 2.2 6.2 4.3 9.2 6.5 1.8 1.3 3.5 2.9 5.3 4.2 3.7 2.6 7.5 5.2 11.2 7.8.6.6 1 1 1.4 1.5zm32.6 12h.3c-.5 4.2-1 8.3-1.5 12.5-.5 4.6-1.2 9.3-1.5 14-.5 5.8-.9 11.5-1.5 17.2-.1.9.2 1.7.8 2.3 1.9 2.3 4.7 2.6 7.3 3.6.7.3 1-.1 1-.8 0-1.7.1-3.3.2-5 0-1.4-.1-2.8-.1-4.2s.2-2.7.3-4.1c.1-1.2.2-2.4.2-3.6 0-1 0-2.1-.1-3.1-.2-1.6-.4-3.2-.5-4.9 0-.8.2-1.5.2-2.3 0-2.7-.2-5.3-.2-8 0-1.6.2-3.2.6-4.8.5-2.4 1.3-4.7 1.9-7 .2-1.2.4-2.4.5-3.6.1-.6.1-1.2.2-1.8.5-1.7.9-3.4 1.2-5.1.2-4.2 0-8.4 0-12.6 0-1.8.2-3.6.3-5.4 0-.3-.1-.6-.2-.9-.3.1-.6.2-.8.3-1 .9-2.1 1.8-3.1 2.8-2.6 2.3-4.4 5.1-4.6 8.6-.5 5.4-.7 10.7-.9 15.9zm223.5 20.1v-.5c-3.7.7-5.7-1.6-7.2-4.3-.4-1-.5-2-.5-3 0-.7-.1-1.3-.3-1.9-.5-1-.4-2.1.4-2.9 1.2-1.2 2.3-2.2 3.6-3.2.9-.8 1.9-1.5 2.9-2 1.8-.9 3.7-1.7 5.5-2.4.6-.3 1.2-.3 1.8-.2 2.1.9 4.1 2 6.2 2.9.3 0 .5 0 .8-.2-.1-1.6-.3-3.1-.6-4.6-.6-2.3-1.4-4.4-2-6.7-.5-2.3-2.2-3.7-4.3-3.2-2.7.6-5.6.3-8.1 1.8s-5 2.5-6.8 4.7c-2.1 2.6-3.3 6-3.1 9.3.2 3.7.7 7.3 1.5 10.9.5 2.8 1.8 5.2 4.9 6 1.7.6 3.2 1.8 4 3.5.3.7.8 1.3 1.5 1.7 1.1.5 2.3.9 3.5 1.2.8.2 1.6.1 2.4-.1 2.3-.8 4.6-1.7 7-2.5 3-1 3.9-2.3 3.5-5.4-.3-1.7-.6-3.4-1.1-5.1-.1-.4-.3-.7-.5-1.1-.4.2-.8.4-1.2.7-.8.8-1.6 1.6-2.5 2.3-1.6 1-3.4 1.9-5.2 2.6-1.9.7-4 1.1-6.1 1.7zm-85 82.5c-1.8-.1-2.5-1.2-1.6-2.9.9-1.5 1.8-2.9 2.9-4.3 1.2-1.5 2.3-3 3.5-4.5.9-1.2 1.7-2.2 2.5-3.4.2-.3 0-.9.1-1.4-.7.2-1.5.1-1.9.6-1.1 1.2-2.1 2.4-3 3.8-1.7 2.5-3.2 5.1-4.9 7.7-1 1.6-1.3 3.6-3.3 4.6-2.2 1.3-4.7 1.6-7.2 1.1-.3-.1-.7-.1-.9 0-1.3 1.3-2.6 2.7-3.8 4.1-1 1.4-1.9 2.8-2.6 4.3-.3.6-.6 1.3-.8 2 .7.3 1.5.4 2.3.4 2.1-.5 4.2-1.2 6.2-1.8 1.7-.5 3.4-1.2 5.1-1.8 2.9-.7 5.8-1.5 8.6-2.5 3.7-1.7 7-4.1 9.7-7.1 1-1.1 2-2.2 3.1-3.1 2.6-2.1 4.8-4.7 6.5-7.5.8-1.3 1.5-2.6 2.3-3.9.2-.3.3-.6.4-.9-.4 0-.7-.1-1.1 0-2 .2-4 .3-6 .5-.7.1-1.3.4-1.8.8-.6.6-.9 1.4-1.5 2.1-1.8 2.2-3.7 4.4-5.6 6.6-1.2 1.3-2.7 2.4-3 4.4-.1.5-.7 1-1.2 1.2-.9.2-1.9.6-3 .9zm-165.7-60.9h.1c-.1-.6-.1-1.3-.2-1.9s-.4-.8-.9-.3c-2.5 2.2-4.9 4.6-7.5 6.7-3.8 3-6.5 7.3-11.2 9.4-.1.1-.2.2-.3.3-2.1 2.6-4.3 5.2-6.3 7.9-2.5 3.5-6.1 5.6-9.1 8.4-.2.2-.3.4-.4.6.2 0 .4 0 .5-.1 4.4-1.9 8.9-3.6 13.2-5.8 4.8-2.3 9.5-4.9 14.2-7.4.2-.1.5-.3.6-.6.6-.9 1.6-1.6 2.6-1.8 2.3-.8 4-2.1 4-5 .2-3.4.5-6.9.7-10.4zm172.1-126.4v.1c.6-.1 1.3-.2 1.9-.3.2-.2.3-.4.3-.7-.8-1-1.6-2-2.5-2.9-1.7-1.8-3.5-3.5-5-5.3-.7-.8-1.3-1.5-2.4-1.5-1 .1-1.9.2-2.9.2l-1.6.1c.4-.3.9-.5 1.3-.8.2-.1.3-.3.4-.4-.1-.1-.2-.2-.3-.2-1.2.2-2.2.5-3.3.7-.1 0-.2.3-.2.5s.3.2.3.2c1.3-.6 1 .2 1.1 1 0 .3.4.7.7.9 2.7 1.9 4.9 4.5 6.3 7.5.4.5.9.9 1.6.9 1.4.3 2.8.1 4.3 0zm16.4 1.7c-.6-1.2-1-2.1-1.5-2.9-1-1.9-2.1-3.8-3.2-5.6-1-1.6-2.1-3.2-3.3-4.6-.3-.3-1.7.4-2.6.7-.1 0-.2.1-.3.1-.9.2-1 .7-.4 1.3 1.1 1.2 2.1 2.5 3.3 3.7 1.6 1.6 2.6 3.7 2.9 6 .1.5.4.9.9 1.2 1 .4 2 .7 3 .8.3-.2.7-.5 1.2-.7zm-36.1-.6v.1c1.5-.1 2.9-.2 4.4-.3.2 0 .4-.2.6-.3-.2-.2-.3-.5-.5-.6-.5-.3-1.2-.4-1.4-.7-1.6-1.5-3.3-2.8-5.2-3.9-.7-.6-1.8-.6-2.5-.1-2.8 1.4-2.8 1.5-.5 3.7.5.5 1 .8.5 1.7s.1 1 .9.9c1.2-.2 2.5-.4 3.7-.5zm-19.3 2.6c1.4-.2 2.7-.5 4.1-.8.2-.1.5-.8.5-.8-1.2-.9-2.5-2.3-3.8-2.3-1.9-.1-3.8.8-5.7 1.3-.7.2-.6.5-.1 1 1.3 1.4 3.2 1.3 5 1.6zm30 168c-.2-.1-.4-.4-.6-.3-.8.3-1.8.5-2.2 1-.7 1.2-1.2 2.4-1.6 3.7v.6c.2-.1.5-.1.7-.3 1.2-1.4 2.3-2.9 3.5-4.3.1 0 .1-.2.2-.4zm6.2-185.8c-.2 0-.5 0-.7 0-.4.1-.7.3-1 .5.3 0 .7.1 1 .1.5.1 1 .1 1.5 0 .2 0 .5-.3.7-.5-.2-.1-.5-.2-.7-.3-.2.1-.5.1-.8.2zm-14.7 5.6c.7-.3 1.4-.6 2-.9.1-.1.1-.4.2-.6-.2 0-.4-.2-.6-.1-.6.3-1.2.6-1.8.9-.1.1-.2.3-.3.4zm72.7 36.6c.3-.5.7-.8.6-.9-.2-.4-.5-.7-.8-1-.2.3-.4.6-.4.9.1.3.4.5.6 1zm-1.4-3.4.8.7c.1-.2.4-.4.3-.5-.2-.2-.5-.5-.7-.7 0 .1-.2.3-.4.5zm-149.7 116c.1-.4.1-.9.2-1.3 0-.2-.2-.3-.4-.5-.1.3-.1.6-.2.9 0 .2.2.4.4.9zm44.8-140.4c-.6-.1-1-.1-1.4-.2-.1 0-.2.2-.2.4.3.1.6.1.9.1.2-.1.5-.2.7-.3zm123.4 116.5.8-.5c-.2-.1-.5-.4-.7-.3-.2 0-.4.3-.6.5zm-78.2-130.5c.2.2.3.5.5.7 0 0 .4-.2.3-.2-.1-.3-.2-.5-.4-.8zm-42.3 13.4c-.5-.1-.7-.2-.8-.2-.3.1-.6.2-.8.4.2.1.3.2.4.2.5-.1.9-.2 1.2-.4zm40.6-12.7c.1-.2.2-.4.3-.6 0 0-.2-.2-.3-.2-.1.1-.2.3-.3.4 0 .1.2.2.3.4zm78.4 52.4c.1-.3.2-.5.2-.6s-.2-.3-.3-.4c-.1.2-.2.3-.3.5 0 .1.2.2.4.5zm-14.2 116.3c-.2-.1-.5-.2-.8-.2-.1 0-.2.2-.3.3.2.1.4.2.6.2.2.2.2 0 .5-.3zm-210-57.9.1.5c.1-.1.1-.3.2-.5 0-.2-.1-.3-.2-.5zm96.8-97.9c-.1.2-.2.4-.3.6s0 .2 0 .2l.6-.5zm132.3 72.9.5-.6c-.1-.1-.3-.2-.4-.2-.2.1-.3.2-.4.3 0 .1.2.3.3.5zm-38.1-57.5.4.2c0-.1.1-.2.1-.3s-.1-.2-.2-.2c-.1.1-.2.2-.3.3zm26.2 18.1.1-.1c-.1 0-.1-.1-.2-.1 0 0 0 .1-.1.1 0 .1.1.1.2.1zm-197.4 40.3-.2.1v.1h.2c.1-.1.1-.1 0-.2zm83.6-62.3.2-.2-.2-.2c0 .1-.1.1-.1.2s.1.1.1.2zm16.2-2.4c.1-.1.1-.2.2-.3 0 0-.1-.1-.1-.2-.1.1-.1.2-.2.3 0 0 0 .1.1.2zm83 13.9s.2-.1.2-.1-.1-.2-.1-.2l-.3.2zm-145.7 114.6.1.2c0-.1.1-.1.1-.2v-.1c0 .1-.1.1-.2.1zm-35.9-62.2c0-.1.1-.1.1-.2s-.1-.1-.1-.2-.1.1-.2.2c.1.1.2.2.2.2zm-22.6 40.6-.2-.3v.2c0 .1 0 .2.1.2zm-44.3-32.3-.2-.3c0 .1-.1.2-.1.2 0 .1 0 .2.1.3zm43.6 37.9.1-.2h-.2c.1.1.1.1.1.2zm59.1 12.8.1-.1h-.2c0 .1 0 .1.1.1-.1.1 0 0 0 0zm-57-32.9h.1l.1-.2h-.2zm157.4-113.7.1-.2c-.1 0-.2 0-.2 0s-.1.1-.1.2zm73.4 59.8h.1c0-.1 0-.1 0-.2 0 0-.1 0-.1-.1zm-2.4-4.2v.1l.2-.1v-.1zm-58.2-7.9c0-.1 0-.2-.1-.2 0 0 0 .1-.1.1zm-70.9-34.8c0 .1.1.2.1.2s.1 0 .2-.1-.1-.2-.1-.2c-.1 0-.2.1-.2.1zm84.9 12.7.1.2s.2-.1.2-.1c0-.1 0-.2-.1-.2zm-55.3-5h.1v-.1s-.1 0-.1 0zm31.8-14.1.1.2s.1-.1.1-.2-.1-.1-.1-.2zm-103.4 141.7v-.1h-.2v.1zm149.7-112.1c0-.2 0-.1 0-.2l-.1.1zm-25.1 3c-.1 0-.1 0-.2.1l.1.1zm-87.2 135-.2.1zm-103.8-23.1v.1h.1s0 0-.1-.1zm-49.7-52.9.1.2c-.1-.1-.1-.1-.1-.2zm175.3 51.3.1-.2h-.1c-.1.1-.1.1 0 .2zm-91.9-64.3v-.1l-.1-.1v.1s0 .1.1.1zm27.8-37.7h-.1c0 .1.1.1.1.2h.1c0-.1-.1-.1-.1-.2zm168.2-.4v.1h.1s0-.1-.1-.1c.1-.1 0 0 0 0zm-91.1 4v-.2c0 .1-.1.1 0 .2-.1 0-.1-.1 0 0z"/><path d="m119.2 169.6c-.2-.2-.4-.5-.5-.5-1.5.1-1.8-1-2.3-2-.5-.9-1.2-2-.4-3.2.2-.5.1-1.1-.2-1.6-.9-2.2-.6-3.6 1.5-4.7 2.2-1.2 4.5-2.3 6.9-3.2 1.1-.5 2.4-.3 3.3.6.7.6 1.6.9 2.5 1 1.7.3 3.3 1.1 4.5 2.2 1 .9 1.4 2.3 1 3.6-.8 3.1-2.4 5.9-4.7 8.1-1.8 1.7-4.2 2-6.5 2-1.1.1-2.2 0-3.2-.3-.9-.4-1.3-1.3-1.9-2z"/><path d="m116.9 184c2.7-1.2 4.9-3.2 7.9-3.7 2.1-.4 4.1-.5 5.6 1.4.6.6 1.2 1.1 1.9 1.6 2 1.3 2.6 4.1 1.3 6.1-.1.2-.2.3-.3.4-2.6 3.6-6.2 4.9-10.2 5.6-2.1.6-4.4 0-6-1.6-1.7-1.8-2.6-4.1-2.7-6.6 0-1.4 1.1-2.8 2.5-3.2zm7.2 9.6v-.1zm.4-1.5v-.1l-.1.1z"/><path d="m126.1 205.6c2.2-.3 3.3 1.4 4.6 2.5.8.7 1.5 1.5 2.2 2.3 1.3 1.6 1.2 3.9-.2 5.4-.3.3-.5.5-.8.7-3.4 2.7-7.4 4.6-11.6 5.4-2.3.4-3.5-.5-4.3-2.6-.9-2.3-1.1-4.7-.6-7.1.4-1.7 1.5-2.3 2.5-3.1 2-1.6 4.2-2.7 6.7-3.4.5.1 1 0 1.5-.1z"/><path d="m132.2 174.8c-.2-.2-.4-.4-.4-.5.1-.2.2-.4.4-.6.1.1.3.2.3.4-.1.2-.2.5-.3.7z"/><path d="m231.6 99.7-.1-.2c.1-.1.2-.1.3-.2 0 0 .1.1.1.2z"/><path d="m189.3 104.2c.2-.1.3-.2.4-.3h.3s-.1.3-.2.3-.3 0-.5 0z"/><path d="m129.8 173.9c0-.1 0-.2 0-.4 0 0 .1-.1.2-.1v.3c0 .1-.1.2-.2.2z"/><path d="m228.1 100.2.3-1.2z"/><path d="m252.4 119 .1-.4z"/><path d="m139.7 219h.3l-.2.1s0 0-.1-.1z"/><path d="m119.2 169.6v.1z"/><path d="m273.5 108.3-.5-.2.1-.2z"/><path d="m273.5 108.3h.5l-.1.2z"/><path d="m289 142.7v.8c0-.3 0-.5 0-.8z"/><path d="m314.4 139.9v.1z"/><path d="m267.7 104.6v.3l-.3-.3z"/><path d="m140.3 244.3h.3l-.2.1c0-.1-.1-.1-.1-.1z"/><path d="m268 104.7h-.3v-.3z"/></g></svg>