<svg enable-background="new 0 0 350 350" viewBox="0 0 350 350" xmlns="http://www.w3.org/2000/svg"><g fill="#fff"><path d="m329.1 118.6c-.3 7.9-.5 15.7-.8 23.6 0 1.1-.2 2.2-.4 3.3-1.7 8.2-3.2 16.4-5.1 24.5-.8 3.3-2.1 6.5-3.4 9.6-2.1 5-2 10.4-3.3 15.5-.8 3-1.1 6.1-2.1 8.9-2.1 6.1-3.6 12.5-7.4 18-1.4 2-2.1 4.4-3 6.7-2.5 6.6-7.2 11.3-12.4 15.7-1.6 1.3-3.4 2.4-5.1 3.5-3.3 2.1-6.5 4.4-9 7.5-1 1.3-2.5 2.4-4 3.2-8.2 4-16.3 8.1-24.7 11.5-6 2.5-12.5 3.8-18.7 5.8-2.9.9-5.8 2.1-8.7 3.1-.8.3-1.7.5-2.5.6-8.2 1.2-16 4-24 5.5-5.5 1.1-11.3.7-16.9.9-2.4.1-4.9-.3-7.3-.1-5.5.5-10.8-.1-16.1-1.2-7.1-1.5-14.2-2.8-21.4-4.3-.1 0-.2-.1-.4-.1-10.8 0-20.2-5.3-30.2-8-1.3-.3-2.4-1.2-3.7-1.7-1.7-.7-3.4-1.4-5.2-1.8-2.5-.5-4.6-1.6-6.1-3.8-2.6-3.7-6.3-6.1-10-8.5-2-1.3-3.9-2.6-5.9-3.8-4.4-2.7-8.9-5.3-13.4-7.8-5.6-3-10.5-7-14.9-11.4-4.7-4.7-9.1-9.6-13.2-14.8-3.8-4.7-6.4-10.1-6.8-16.4-.2-3.3-.9-6.5-1.7-9.7-.4-1.6-.1-2.5 1.3-3.3 4.6-2.6 9.1-5.3 13.8-7.7 2.9-1.5 6-2.8 9.1-4 9.1-3.6 18.2-7.7 27.4-10.9 11.3-4 22.1-9.1 33-13.9 4.8-2.1 8.8-5.7 13.3-8.6 2.2-1.4 4.4-2.6 6.7-3.9.6-.4 1.4-.6 2-.9 6.2-3.4 12.3-7.1 18.7-10.2 8-3.8 16.3-7 24.4-10.4 1.1-.5 2.3-.9 3.3-1.6 4.3-3 8.7-5.9 13.8-7.4 3.3-.9 5.8-3 8.6-4.7 3.7-2.3 7.3-4.9 11.1-7.1 2.5-1.4 5.4-2.4 8.1-3.4 5.7-2 11.1-4.7 16.3-7.7 3.4-1.9 7.2-3.2 10.8-4.7 7.1-3 14.2-6.2 21.4-9 4.8-1.9 10-2.9 14.8-4.7 6.4-2.5 13.1-3.2 19.6-4.7 1-.2 2.1.1 3.2.2 1.2.1 2.4.3 3.6.5 1.2.3 2.3.7 3.4 1 .4.2.9.6 1.3.6 5.4 0 7.8 4 9.6 8 2.3 5.3 4.4 10.7 5.8 16.3 2.2 9.3 3.4 18.7 3.4 28.2zm-91.8 88.8.9.9c1.9 3.4 3.8 6.7 5.7 10.1.5.8 1 1.7 1.5 2.5.1.2 0 .6-.1.6-.3 0-.7.1-.9-.1-.4-.3-.6-.8-.9-1.2-4.2-6.1-8.3-12.2-12.5-18.3-2.4-3.4-4.9-6.7-7.5-9.9-2.8-3.6-6.1-6.8-8.7-10.5-4.5-6.4-10.6-10.9-16.8-15.2-.3-.4-.6-.8-.8-1.2 0 0-.1.1-.1.1.1 0 .2-.1.2-.1.3.4.5.7.8 1.1.6 1.1 1.1 2.2 1.8 3.2 2 2.8 4.2 5.5 6 8.4 4.9 7.9 9.6 16 14.5 24 2.9 4.7 4.8 10 8.9 14 1.7 1.6 3.4 3.2 4.8 5.1 3.1 4.3 6.9 8.4 5.3 14.5-.4 1.5.9 2.2 2.4 1.5 1.1-.5 2-1.6 3.1-1.9 2.3-.5 2.9-1.9 3.3-3.9.2-1 .7-2.3 1.5-2.8 4.7-3.1 8.5-6.9 11.8-11.4.6-.8 1.4-1.4 2.1-2.1 2.6-2.7 5.4-5.3 7.9-8.2 2.3-2.7 3.5-5.8 3.8-9.4.3-3.5.7-7.1 1.6-10.6.9-3.2-.8-5.4-2.2-7.8-.2-.3-.8-.5-1.2-.5-.6 0-1.2.4-1.8.3-.5 0-1-.4-1.6-.7.5-.1.9-.3 1.4-.4.9-.1 2.2-.5 1.5-1.4-1.5-1.9-2.4-4.8-5.5-4.9-4.1-.2-7.8-3.4-12.2-2.3-.1 0-.3 0-.4-.1-.4-.3-.8-.6-1.1-.9.4-.2.9-.4 1.3-.6.2-.1.6-.4.5-.5-.4-2.4-3.2-4.7-5.7-5.3-5.4-1.4-11.1-1.6-15.9-5-.3-.2-.7-.1-1.1-.1-.2-.8-1.4-2.1.8-1.7.7.1 1.4.5 2.1.8 7.4 3.2 15 5.3 23 6.2.7.1 1.4.4 2.1.6 5.8 1.8 11.7 3.8 17.6 5.5 2.3.6 4.8.5 7.2.8.6-2.2 1.3-4.5 1.8-6.7.6-2.9.5-3.2-2.4-3.7-6.9-1-13.9-1.9-20.8-2.7-8.3-.9-16.6-.8-24.5-4-7.6-3.1-15.6-5.1-23.4-7.6-4.2-1.3-8.5-1.3-12.8-.8-.7.1-1.3.6-1.9.9.6.4 1.2.8 1.8 1 4.2 1.4 8.4 2.7 12.6 4.1 4.5 1.5 9.3 2 12.9 5.4 1 .9 2.6 1.2 4 1.7.3.4.5.8.8 1.1-.4.1-.9.3-1.2.2-5.6-2-11.3-4-16.9-6-1-.3-2.1-.3-3.1-.5.5 1.1 1 2.2 1.6 3.2.4.6 1.1.9 1.7 1.3 1.2.9 2.3 1.8 3.5 2.7.3.2.4.6.6.9-.4 0-.9 0-1.3-.1-.3-.1-.7-.3-.9-.5-1.2-1-1.4-.4-1.4.8 0 .5.1 1 .2 1.4-.2-.1-.5-.1-.7-.2-2.7-1.9-5.4-3.7-8-5.6-.4-.3-.7-1-.8-1.6 0-.3.5-.7.9-.9.3-.2.8-.1 1.2-.2-.4-.4-.7-1-1.1-1.1-2.2-.4-4.4-.7-6.5-.9-.4 0-1.1.2-1.2.5-.2.3.1 1 .3 1.3.6.7 1.5 1.3 2 2.1.2.3-.2 1.4-.2 1.4-2.5 0-5 1.6-7.5-.2-.4-.3-1.1-.1-1.7-.1 0 0 .1-.1.1-.1-.1 0-.1 0-.2 0 5.2 4.8 10.4 9.7 15.5 14.5.2.2.4.4.6.4.7-.2 1.4-.4 1.9-.8.2-.2.1-1.2-.2-1.5-1.8-1.4-3.7-2.8-5.6-4.1-.7-.5-1.6-.6-2.3-1-.2-.1-.5-.6-.4-.9 0-.2.6-.5.8-.4 1.1.2 2.1.5 3.2.7.4 0 .8-.4 1.2-.6-.3-.3-.4-.9-.8-1-1.3-.4-2.7-.3-3-2.1 1.3.3 2.5.4 3.8.8 1.2.4 2.2 1 3.3 1.5 2.3 1 4.6 2 6.9 3.1.1.1.1.3.2.4 0-.1 0-.2 0-.2-.1-.1-.2-.1-.3-.1-.5-1-1-2-1.6-3 2.1.4 3.7 1.1 5 3.1 1.7 2.6 4 5 7.2 5.8 1.3.4 2.8.5 4.1.8 2.5.6 2.8.3 2.3-2-.1-.7 0-1.4 0-2.2.4.7.9 1.3 1.3 2.1.7 1.7.5 3.3-1.3 4-1.6.7-1.5 1.2-.4 2.3.5.5.7 1.2 1 1.8l.1-.1c-2.3-.1-4.3-.6-5.4-3-.3-.6-1.6-1.2-2.1-1.1-4.2 1.3-6.3-2.4-9.3-3.9-2.1-1.1-3.6-3.2-5.5-4.8-1.2-1-2.5-2-4.2-1.3.9 1 1.7 1.9 2.6 2.9.1.1.2.1.3.2 6.2 4.9 12.9 9.3 17.6 15.9.4.6 1.1 1 1.8 1.3 1.4.6 2.6-.3 2.2-1.8-.2-.9-.7-1.8-1.1-2.7-.1-.2.1-.5.2-.6s.5-.1.6 0c1.3.7 2.5 3.8 1.5 4.9-2.4 2.6-1.1 4.2.9 5.9.7.6 1 1.6 1.6 2.5.2.4.5 1 .8 1.1 3.7.5 5.4 3.4 7.1 6.2l.1-.1c-.7-.3-1.6-.4-2.2-.9-1.1-.9-2-2.2-3.1-3-2.2-1.5-4.5-2.9-6.8-4.3-1-.6-2-.5-1.6 1.1.9 3.8 2.5 7.3 5 10.3 2.3 2.8 4.8 5.6 7.1 8.4.2.3.5.8.4.9-.3.3-.7.5-1.1.7-2.6.8-3.5-1.7-5.1-2.8-.3-.4-.6-.7-.9-1.1 0 0-.1.1-.1.1zm-92-51.8.1.2-.1-.2h.1c0-.1-.1 0-.1 0zm145.2 85.3c-.2.2-.5.4-.7.6.1 0 .3.1.3.1.1-.3.2-.5.3-.8.6-.2 1.2-.3 1.8-.5 0 0 0-.4 0-.6-.6.4-1.1.8-1.7 1.2zm-57.3-40.2c-.6-.7-1.2-1.4-1.8-2-2.6-6.1-5.2-12.1-7.9-18.2-1.8-3.9-5.6-5.6-9-7.8-.3-.2-.7-.5-1-.4-.6.1-1.3.2-1.6.5-.2.2 0 1.1.2 1.5.5 1 1.1 1.9 1.8 2.8 5.4 6.8 11.5 13.2 16.1 20.6.3.4.9.6 1.4.9-.3 1.4.9 1.6 1.6 2 0 .2.1.3.1.5-.2-.1-.3-.1-.5-.2.3 0 .5-.1.6-.2zm34.5 23.3c-.6.3-1.1.6-1.7.9.6.2 1.1.3 1.7.5.2.9.5 1.9.8 2.8.1.3.5.5.8.5.2 0 .6-.4.6-.7 0-1.3-.1-2.7-.1-4 .5-.6 1.7-.9.8-1.9-.4-.3-1.5-.3-2 .1-.5.3-.6 1.1-.9 1.8zm-103.6-61.4c.1-.2.2-.4.3-.5 0 0-.1-.1-.2-.1v.7c-1.9.8-2.7 3.4-5.2 3.5-.1 0-.3.5-.3.6.2.2.5.4.8.5 1.2.2 2.4.2 3.5.6 1.2.5 1.3-.3 1.3-.9.1-1.5-.1-3-.2-4.4zm87.1-44.2c-.1-.4-.5-1.1-.3-1.3 1-1.1.8-2.2-.2-2.8-.9-.5-2.3-1.1-3-.7-1.9 1.1-3.5 2.6-5.1 4-.1.1.3 1 .6 1.1.4.1.9-.2 1.4-.2.9-.1 1.8-.1 2.6-.1-.6.7-1.2 1.5-1.9 2.1-.2.2-.6.3-1 .4-3.5 1.2-7.1 2.3-10.6 3.5-5.3.6-10.7 1.2-16 1.8-.3 0-.7-.1-1-.2.2-.3.4-.7.7-.8 2.5-.7 5-1.8 7.5-1.7 4.5.2 7.4-2.5 10.6-4.8.1-.1.2-.5.2-.6-.1-.2-.4-.3-.6-.3-1.6.2-3.8 1.2-3.2-2.1 0-.1-.2-.2-.2-.3-1.2-1.5-1.2-1.5.5-2 .8-.3 1.7-1 2.4-.8 3.1.7 5.7-1.3 8.7-1.3 1.1 0 2.1-1.1 3.3.2.2.3 1.8-.1 1.9-.4.5-2.1 1.1-1.7 2.2-.4.5.6 1.5.7 2.2 1.1l-.1-.1c1.5 2.2 3 4.3 4.5 6.5.2.3.9.7 1.2.6 2.1-.6 4.3-1 6.2-2 1.3-.7 2.1-2.2 3.1-3.3-1.2-.4-2.3-.9-3.5-1.3l.1.1c.6-.2 1.1-.5 1.7-.5 3.3-.3 3.5.1 2.4 3.3-.4 1.2.1 1.2 1 1.1 2.3-.4 4.6-.9 6.9-1.3 1-.2 1.9-.3 2.9-.5-.9.6-1.8 1.2-2.8 1.7-.7.3-1.4.5-2.1.7-4.6 1.1-9.2 2.2-13.9 3.3-1 .2-2.1.5-1.2 1.9 2.2 3.2 4.4 6.4 6.7 9.6 1.8 2.5 5.2 3.2 7.8 1.5 1.2-.8 2-.6 2.9.1 2 1.5 3.9 2 6 .3 1.2-.9 1.6.5 2.3 1-.4.5-.7 1.4-1.2 1.5-2.1.3-3.2 1.7-4.6 3.1-1.1 1.2-3.2 1.5-4.8 2.2-2.4-2.9-6.4-3.3-9.1-5.4-2-1.6-3.7-2.1-6-1.5-5.9 1.6-11.8 1.1-17.7.6-.5 0-.9.1-1.4.1.1.6 0 1.2.2 1.7.1.4.5.8.8 1.2 0 0 .1-.1.1-.1-1.6-.5-3.3-1-4.9-1.5-.3-.1-.8.3-1.2.4.2.3.3.7.6.8 1.9.9 3.7 1.9 5.7 2.5 6.3 1.8 12.7 3.5 19.1 5.2.6.2 1.2.5 1.6.8.8.6 1.6 1.2 2.4 1.9-1.1-.1-2.2 0-3.2-.3-4.7-1.5-9.2-3.4-14-4.5-4.5-1-8.6-2.7-12.9-4.2-1.6-.6-3.3-1.2-4.9-1.3-4.5-.4-9-.6-13.5-.8-1.1-.1-2.2.1-3.3.2.8.6 1.6 1.1 2.4 1.7s1.5 1.3 2.3 1.7c4.1 1.6 8.3 3 12.5 4.5 5 1.8 9.9 3.7 14.9 5.5 4.7 1.7 9.5 2.5 14.5 2.5.4 0 .8-.4 1.2-.5-.2-.3-.4-.6-.7-.8-.4-.3-.8-.6-1.1-.9s-.5-.8-.8-1.2c.5-.3 1-.8 1.5-.8 1.3.2 2.6.6 4 .8 2.9.4 6 1.5 8.7 1 3.1-.6 6.3-.8 9.4-1 3.9-.3 4.9-1.3 4.8-5.2-.1-1.8.2-3.6.2-5.5 0-1 .3-2 0-2.9-1.2-3.9-1.1-8-1.7-11.9-.4-3.1-1.2-6.3-1.8-9.4-.3-1.4-1-2.8-.9-4.2 0-1.9-.4-2.5-2.4-2.6-3.6-.1-7.3.7-10.9-.3-.8-.2-1.8-.3-2.5 0-1.1.5-1.9 1.9-3 .3-.1-.2 1.2-1.5 1.9-2.2.9-.9 2.1-2 1-3.1s-2.2.2-3 1c-.2.2-.1.5-.3.7-.3.3-.7.5-1.1.7-.1-.5-.3-1-.3-1.5 0-1.5.4-2.6 2.4-1.9.5.2 1.2-.3 1.8-.4 1.9-.3 2.6.2 2.4 2.1-.1 1.5.2 2 1.6 2.1.8 0 1.7 0 2.5.2 2.5.4 5-1.1 7.6.1 1 .4 1.7-.4 1.3-1.5-.9-2.4-1.7-4.9-2.8-7.2-.5-1-2-2.4-3-2.3-4.3.6-9.3-.6-12.6 3.7-.2.2-.6.2-.9.3-3.4 1.4-6.7 2.9-10.1 4.3l.1-.1c-2.5.9-5 1.7-7.5 2.7-1.8.7-3.4 1.8-5.2 2.5-4.3 1.8-8.7 3.3-13 5.1-5.3 2.2-10.5 4.7-15.8 7.1-4.9 2.2-9.5 4.7-12.7 9.2-1.5 2.1-1.4 2.7.9 3.8 3.2 1.6 4.4.8 4.5-2.7 0-.4-.1-.7-.1-1.1.1-1.5.9-1.8 2.3-1.4 2.2.6 4.5 1.1 6.7 1.6 1.1.2 2.2.3 2.3 1.9.1 1.9 1.5 2.2 3.1 2.3 4 .3 5.4.1 9.6-1.8.3-.1.5-.5.7-.7-.3-.2-.5-.5-.8-.6-.5-.1-1-.1-1.4-.2-.5-.2-1-.6-1.4-.9.4-.5.6-1.2 1.1-1.3 1.8-.7 3.8-1.1 5.6-1.8 1-.4 2.6-.2 2.8-1.8 6.5.1 12.4-2.3 18.4-4.6.5-.2 1.2-1.3 1.1-1.4-.5-1.2-1.3-1.6-1.9-.4zm-135.7 65.2c-3.5 2.6-4.5 2.7-6.7.9-2-1.6-2.1-1.6-3.7.2-.7.8-1.4 1.7-2 2.6-1.4 2-.9 3 1.5 3.6.5.1.9.3 1.4.5-.4.4-.8.9-1.2 1.2-3.1 1.8-3.4 3.2-.8 5.5.9.8 1.4 1 .4 2.2-1.9 2.2-1.6 2.9.9 4.5.6.4 1.2.7 1.8 1.1-.8.3-1.5.8-2.3.9s-1.7-.2-2.5-.2-1.8-.1-2.4.3c-1.9 1.2-2.6 3.4-2.7 5.4-.1.9 1.5 2 2.3 3 .1.1.2.2.3.3 2.4 1.7 2.8 1.8 5.1-.3 2.8-2.6 5.4-5.4 8.3-7.9 3.4-3 6.9-5.8 10.5-8.6.4-.3 1.6-.4 1.8-.2.7 1.3 1.2.6 1.9 0 2.6-2.2 4.2-5 6.2-7.7.9-1.2.9-1.2-.7-2-.3-.1-.5-.7-.4-1.1.1-4.3-.9-8.8 1.4-12.9.2-.4 0-1-.1-1.4 0 .1.1.1.1.2 0-.1.1-.2.1-.2-.2.3-.4.6-.6.9-.2-.3-.7-.6-.7-.7.4-1.3.7-2.6 1.5-3.7 2.5-3.5 5.1-6.9 7.7-10.4.7-1 1.2-2.3 1.8-3.4-1.3 0-2.6 0-3.9.1-.6.1-1.2.4-1.6.8-2.7 2.2-5.7 3.7-9.3 4-1.8.2-4 .8-3.9 3.5l-.1-.1v.2c.6 1.3-.6 1.5-1.2 1.7-1.2.4-2.5.3-2.6 2-.2 1.6.3 2.9 1.5 3.9.9.7 1.7 1 2.8-.1 2.1-2.1 4.4-3.9 6.6-5.9.3-.2 1-.5 1-.4.3.3.7 1 .5 1.2-.7 1.3-1.6 2.4-2.5 3.6-2.1 2.8-4.2 5.6-6.4 8.4-.2.3-.5.5-.7.8-.9.6-1.8 1.2-2.7 1.7-.7.4-1.4.8-2.1 1.2-.2-.7-.6-1.4-.5-2 .1-1.8-.7-1.7-2-1.1-1.6.7-3.2 1.2-4.8 2-.5.3-1.1 1.3-1 1.6.3.5 1.1 1 1.7 1.1.7-.4 1.8-.7 3-.8zm53.4 54.2c-1.6 2.8-1.2 5.9-1.1 8.9.1 2.1-2.1 4.7.2 6.1 1.7 1.1 4.3.7 6.5.9h.4c3.9.1 4 .1 4.8-3.8.9-4.3 1.7-8.7 2.2-13 .6-5.4 1-10.8 1.2-16.2.1-2.7-.7-5.4-.7-8 .1-6.8.5-13.5-1-20.2-1.2-5.5-2.7-10.9-4.1-16.4-.1-.4-.6-.7-.9-1-.2.4-.6.7-.6 1.1-1 5.8-2 11.6-2.9 17.4-.9 5.6-1.4 11.2-2.4 16.8-.7 4-1.9 7.8-2.8 11.8-.2.8-.3 1.8-.1 2.5 1.3 3.4.8 6.8.7 10.2 0 1 .4 2 .6 3zm119.3-26.5.2-.1-.2.1c-2.7 1.1-5.3 2.7-5.9 5.8-.6 2.9-2.4 4-4.9 4.9-1.3.5-3.3 1.4-3.5 2.4-.5 3.6-3.3 5.4-5.1 8-.1.2-.1.5-.3.7-.5.5-1 1-1.6 1.4-1.4.7-1.5.5-1.5-1.2s-.4-3.4-.6-5c-.1-.4-.5-.8-.7-1.2-.5.3-1 .6-1.4.9-2.8 2.6-5.2 5.7-8.3 7.7-4.6 3-9.8 5-14.6 7.7-9.2 5.1-18.9 8.9-29 11.6-3.1.8-6.1 2.1-9.3 2.8-2.6.6-5.2.8-7.7 1.7-1 .4-2 1.2-.3 1.9 1.9.8 1.1 1.9.5 2.9-.4.6-1.2.8-1.8 1.2-4 2.5-8.4 1.2-12.6 1.1-1.8 0-3.4-.1-4.9.9-1 .7-2.2 1.1-3.2 1.7-.4.2-.7.6-1 .9.4.1.9.4 1.3.4 5.6-.2 11.3-.5 16.9-.8 1.7-.1 3.5-.3 5-1 2.9-1.3 5.8-2.3 9-2.5.9-.1 1.7-.9 2.5-1.4l-.1.1c4-.6 8.1-1 12-2 5.2-1.3 10.3-3.2 15.5-4.7 2-.6 3.8-1.1 4-3.6.1-.8.8-1.4 1.3-.2.4 1 .8 1.3 1.2.1.5-1.2.7-2.6 1.3-3.7.4-.8 1.3-1.8 2-1.8 3 0 3.9-1.5 3.8-4.2 0-.3.3-.5.5-.8.2.2.4.3.5.5 1.3 1.8 1.2 2.6-.6 4.1-.6.5-1.4.9-2 1.5-.3.3-.2.9-.3 1.4.4 0 .8 0 1.2.1 2.4.6 4.7-.3 6.6-1.5 4.8-2.9 10.5-4.7 13.4-10 7.4-6.3 12.6-14.4 18.6-21.9 1.6-2.1 2.7-4.6 4.1-6.9zm-137.3-24.3c.2-.3.6-.6.6-.9-.6-2.6.6-4.8 1.5-7.1.7-1.8 1.4-3.6 2.1-5.4.1-.4-.1-.9-.1-1.4-.4.1-.9.2-1.2.4-5.6 5.5-11.2 11-16.7 16.7-2 2-3.8 4.2-5.4 6.5-2.7 3.8-5.4 7.6-7.7 11.6-1.4 2.4-1.8 5.3-3.1 7.8-1.2 2.4-3 4.5-4.5 6.7 0 .2.1.5 0 .7-.1.3-.3.5-.4.8.1-.3.2-.6.3-.8s.1-.4.2-.7c.3.1.7.2 1 .3 2.1.6 2.4 1.1 1.3 2.6-1.3 1.9-2.7 3.7-4.3 5.5-.6.7-1.8 1.5-2.4 1.3-1.5-.4-2 .6-2.8 1.3-1.1 1-2 2.2-3 3.3-1.5 1.9-1.3 3.1 1 3.8 3.8 1.2 7.6 2.7 11.4 2.9 5.9.4 11.2 2.4 16.8 4 2.1.6 2.9.5 3.2-1.4.4-3 1.4-5.7 3.4-8 .4-.5.4-1.4.5-2.1.8-3.6.4-7.8 4-10.3.1-.1.2-.2.2-.3-.2-.4-.3-1.2-.6-1.3-3-.8-3.4-1.2-3-3.9.1-.5.6-.9.9-1.4.2.4.3.9.6 1.2.5.7 1.1 1.4 1.7 2.1.7-.6 1.8-1.1 2.1-1.8 1.5-3.9 3.2-7.7 4.1-11.8 1-4.4 1.5-8.9 1.9-13.5.2-2.7.4-5.3 1.3-7.8.1-.3.1-.7.1-1-.4.1-1 .1-1.3.4-.5.5-.8 1.2-1 1.9-.6 1.6-.7.3-1.1-.1s-1-.5-1.6-.8zm61.9 31c-1.1.3-1.6 0-1.4-1.3 0-.3-.2-.7-.3-1-.2.3-.5.5-.5.8 0 1.5-1 3.1.1 4.6.2.3 0 .8 0 1.3-.5-.3-1.3-.7-1.3-1-.1-2.7-2-4-3.9-5.3-1.4-.9-1.6-1.8-1-3.3.8-2.1.2-2.8-1.9-3.8.1-.2.3-.5.3-.6-.2-.8-.4-1.5-.6-2.3 0 0-.3.1-.5.1.3.7.5 1.4.8 2.1.1.2 0 .5.1.7 1.5 3.6.6 5.5-2.8 6.3-.7.2-1.3.5-2 .8-2.9 1.6-5.9-.2-5.9-3.6 0-.3.3-.8.5-.9.3-.1.7.1 1 .2.3.2.4.6.7.9l1.8 1.5c.3-.8.8-1.7 1-2.5.3-1.2.5-2.4-1.2-3-.3-.1-.7-.8-.6-1.1.5-3-.8-5.7-1.5-8.6-.8-3.4-1-7-1.7-10.4-1.1-5.5-2.3-10.9-4.7-16.1-1.1-2.4-2.2-4.9-3.3-7.3 1.9 1.2 2.8 3 3.4 5.1.1.4.8.7 1.2 1 .1-.5.4-1.1.4-1.6-.1-2.7-1.1-5-2.9-6.9-.5-.5-1.1-.8-1.6-1.2-.2.8-.5 1.5-.6 2.3-.1.5.2 1 .3 1.4-1-1.1-2-2.1-3-3.2-.3-.3-.7-.5-1.1-.7v1.1c.7 4 1.6 8 2.2 12 1.2 7.8 2.6 15.5 2.5 23.5 0 6-.2 12 0 18.1.1 1.4-1.4 4.7 2.5 4.2.1 0 .4.8.4 1.2-.2 3.3-.4 6.6-.6 9.9 0 .2-.2.4-.3.6-.2-.2-.6-.5-.6-.7-.2-1.6-.3-3.2-.5-4.8 0-.3-.3-.6-.5-.9-.3.3-.7.6-.8 1-.2.4-.1 1-.2 1.5-.3 4.5-.6 9.1-.9 13.6-.1 2.3-.2 4.7-.2 7 0 1.8.7 3.1 2.6 3.5.6.1 1.3.3 1.9.4-.7.2-1.3.3-2 .5-.2.1-.5.1-.7.2-.6.2-1.1.5-1.7.8.7.1 1.4.3 2.1.2 6-1 12.2-1.3 18-3.3 2.4-.8 5-1.2 7.5-1.8 1.7-.4 3.3-.9 4.9-1.3.4-.1 1.1-.5 1.1-.7-.6-2.8 2.4-3.8 3.1-6 .3-1.1.5-1.6-.1-2.5-1.1-1.4-2-2.8-2.9-4.3-.2-.3 0-.9 0-1.3.4.2.9.3 1.2.7 1.2 1.5 2.4 3.1 3.6 4.7.3.4.7 1.1.8 1.1 1.4-.5 2.8-.9 3.9-1.7.4-.3.6-1.6.3-2.2-1.4-2.8-3.1-5.6-4.6-8.4-.3-.6-1-1.4-.9-1.9 1-3.3.2-5.5-3.3-6.4-.4-.1-.7-.9-1-1.4.4-.2.9-.5 1.3-.7 5.5-1.6 6.5-4.7 4-9-4.2-7.2-8.3-14.5-12.5-21.7-1.6-2.7-3.5-5.4-5.5-7.8-4-4.9-8.1-9.6-12.1-14.3-1.2-1.5-2.5-1.3-3.8-.3.6-1.7-.4-3-1.2-4.3 0 0-.2 0-.3 0 .5 1.3.9 2.6 1.4 3.9 0 .1.1.2.2.3 1.8 3.8 3.5 7.6 6.3 10.8 1 1.2 1.7 2.7 2.3 4.2 1.6 4 2.9 8.1 4.6 12.1.5 1.2.9 3.1 2.8 2.8.3 0 .4-2.1.6-3.3.1-.3.2-.6.3-1 .3.2.7.4.8.6.4 2 1.1 4.1-1.1 5.7-.5.3-.6 1.2-.7 1.8-.1.4-.1.9-.1 1.3-.4-.4-.9-.7-1.2-1.1-.4-.6-.9-1.2-1.1-1.9-.9-2.5-1.6-5.1-2.4-7.7-.1-.4-.5-.8-.7-1.1-.2.5-.7 1.1-.6 1.4.9 3.2 2 6.3 2.9 9.5.7 2.7 3.2 2.8 5.2 3.5.4.1 1.3-.3 1.5-.8.7-1.8.9-4 3.8-3.6 0 0 .1-1.1.3-1.6.1-.4.4-.6.6-1 .5 1.2 1.3 2.5 1.3 3.7 0 .6-1.4 1.4-2.2 1.9-.8.4-2.1.3-2.5.9-1.3 1.7-2.8 2.3-4.8 1.8-.3-.1-.8.3-1.1.6-.1.2 0 .7.2 1 .8 1.2 1.9 1.7 3.1.6.7-.7 1.2-.7 1.8 0s1.6 1.4 1.9 2.2c.5 3.8 1.5 7.4 2.6 11zm-117.2-23.4c-1.2 1.1-1.7.3-2.5-.6-.3-.3-1.3-.1-2-.1 0 .7-.2 1.4.1 2 .2.4.9.6 1.4.8 1.1.6 1.1 1.7.1 1.8-2.1.3-2.3 1.7-2.7 3.2-.1.2-.2.4-.4.6-.2-.1-.5-.3-.5-.3.5-1.7-1.7-3.4-.1-5.2 1.2-1.4.8-2.7-.6-3.8-.7-.6-1.5-1.2-2.2-1.8-.2-.1-.3-.3-.5-.5.1-.1.3-.2.4-.1 2.2.6 1.8-1.4 2.4-2.4.3-.5.2-1.2.3-1.8-.7.1-1.7 0-2 .5-1.7 2.1-2.4.2-3.4-.7l-.1-.1c.6 0 1.2.2 1.7 0 2.3-.9 4.5-2.1 6.8-2.7 5.2-1.2 9.8-3.5 14.1-6.6.7-.5 1.4-1.2 2.2-1.4 1.3-.3 2.6-.2 3.9-.3-.4 1.1-.8 2.1-1.1 3.2-.1.4-.3.8-.4 1.2.5 0 1 .2 1.4 0 1.5-.8 2.5-2.6 3.6-3.3 1.3-.7 3.4-.5 4.8-1.6.2-.1.3-.4.5-.5-.3-.1-.7-.3-.9-.2-.8.4-2.1 1.4-1.9-.5.2-2.6-.4-5.6 2.4-7.4.4-.2.8-1.3.7-1.4-1.4-1.3.7-1.8.5-2.8.4-.1.8-.1 1.3-.2 0-.1-.1-.2-.1-.3-.4.2-.7.4-1.1.5-1 .5-2.1.8-2.9 1.5-4.1 3.7-8.7 6.7-13.5 9.6-5.6 3.4-11.5 6.1-17.7 8-8.6 2.6-17.2 5.1-25.8 7.6-3.2.9-6.4 1.9-9.6 2.7-.5.1-1.3-.4-1.8-.8-.1-.1.3-1.1.6-1.5.5-.5 1.1-1 1.8-1.2 4.6-1.6 9.1-3.3 13.8-4.8 8.7-2.7 17.4-5.2 26.1-7.8 5.6-1.6 11-3.8 15.3-7.7 6.2-5.5 13.1-9.9 20.2-14 2.7-1.6 5.7-2.8 8.5-4.3 5.4-2.8 11.7-3.8 16.4-8.1.6-.5 1.6-.7 2.4-.8 4-.3 7.5-1.9 11-3.5 1.2-.6 2.4-1.5 2-3.2-.2-1.1-.4-1.8 1.1-2.2.8-.2 1.3-1.3 2-1.9.1-.1.9.3 1.1.6.4.7.7 1.6 1.1 2.4s.8.9 1.7.5c7.5-3.3 15.1-6.6 22.7-9.9 9.9-4.3 19.7-9.1 29.7-13 8.2-3.2 15.7-7.6 23.6-11.2.5-.2 1-.7 1.4-1.1 3.5-3.9 8-6 12.8-7.8 2.3-.9 4.9-1.3 6.8-2.7 3.3-2.4 6.9-4.2 10.8-5.5 1.3-.4 2.6-1 3.6-1.9 1.7-1.4 3.7-.6 5.1-.4s-1.4 1.2-.9 2.4c.1.3 0 .8.1 1.1.6 1.6 1.3 3.2 2.1 4.7.2.3 1 .6 1.5.5 2.5-.5 2.5-.5 2.6 1.8 0 .9 0 1.7.1 2.6 0 .2.3.3.5.5.2-.2.6-.4.6-.6 0-.6 0-1.2-.1-1.8-.3-1.4.5-1.4 1.6-1.7 1.7-.4 2.3.3 2.5 1.7.1 1.4.2 2.9.1 4.4-.5 4.4-1.2 8.7-1.6 13.1-.2 2.5 0 5.1 0 7.7 0 2.2.1 4.4 0 6.6 0 .5-.4 1-.5 1.5-.2-.4-.3-.9-.6-1.2-1.5-2.1-1.3-4.4-.9-6.7.1-.2.2-.4.3-.6 0 0-.1-.1-.2-.2v.8c-1.2-.1-1.4.6-1.4 1.6-.1 1.2-.3 2.4-.6 3.6 0 .2-.6.4-.9.4-.1 0-.4-.3-.4-.5-.1-2.4-.7-4.9-.2-7.3.5-2.9.7-5.7-.3-8.3-.9-2.6 1.4-6-2.3-7.8-.2-.1-.1-.9-.2-1.4-.2-.7-.5-1.3-.7-2-.4.7-.8 1.4-1.1 2.1-.2.6-.1 1.2 0 1.8.5 4.5 1 9 1.5 13.4h-.1c-2.7.7-2.7.7-2.4 3.2.2 1.3.1 2.7.4 4 .5 1.8 1.4 3.6 2.1 5.4.4 1 1.1 1.2 2.1.9 0 0 .4.8.4 1.2.1 1 0 2 .1 3 0 .3.2.7.3 1 .4-.2.8-.5 1.1-.8.5-.4.9-.8 1.4-1.2-1 1.5 3.6 1.1 1.1 3.5-.8.8-.4 3.4 0 5 .5 1.5-1.3 1.7-1.1 2.8-.5-.5-1.1-1-1.5-1.6-.3-.5-.4-1.1-.7-1.6-.2-.4-.7-.6-1.1-1-.3.5-.8 1-.8 1.4.3 5.8.6 11.6.9 17.4 0 .6.3 1.2.4 1.8.2 1.4.4 2.9.7 4.3.6 3.2-1.4 6.5.2 9.7.1.3-.3 1.1-.6 1.2-.4.1-1-.2-1.3-.5-1.1-1.4-.7-3-.4-4.6.2-.9-.4-1.9-.7-2.9-1 .4-2.1.6-2.9 1.2-.6.5-.7 1.5-.9 2.3-.7 3.1-1.4 6.2-2.1 9.3-.2 1-.6 2-.5 2.9.4 2.9-.9 5.3-2.1 7.7-2.9 5.8-5.9 11.6-8 17.8-.2.6-.6 1.2-.6 1.7.1.8.3 1.6.8 2.2.2.2 1.3-.3 1.9-.6.4-.2.6-.7.9-1.2 2.7-4.2 5.7-8.3 8-12.8 2.2-4.2 4.1-8.6 3.3-13.7-.3-1.8.4-3.6.6-5.5 0-.2.2-.4.3-.7.2.2.4.5.5.7.1 1.1 0 2.2.1 3.3.5 5.8-.4 11.3-3.2 16.4-.7 1.3-1.3 2.7-1.8 4.1-.2.4 0 .9 0 1.4.4-.2.8-.4 1.1-.7 3.2-2.9 4.3-7 5.8-10.9.8-1.9 0-4.8 2.9-5.7.4-.1.7-1 .8-1.6 1-3.7 2.2-7.3 2.9-11 .6-3 .4-6.1.9-9.1 1.1-6.9 2.4-13.7 3.5-20.6.1-.4-.2-.8-.3-1.2-.2.4-.4.8-.6 1.2-.4.8-.9 2.5-1 2.4-2.8-.7-1.7 1.6-2 2.6-.5 1.5-.6 3-1 4.5-.1.3-.4.5-.7.7-.1-.3-.3-.7-.2-1 1.1-4.8 1.3-9.6.9-14.6-.2-2.6.4-5.8 4.1-6.5 1.4-.3 1.5-1.2 1.4-2.5-.4-6-.8-11.9-1-17.9-.1-2.1 0-4.2.2-6.2.7-6.6.6-13.2-1-19.8-.4-1.7-1.2-2.7-2.7-3.6-2.1-1.2-3.9-2.9-5.7-4.6-2.4-2.2-2.3-2.3-5.4-1.1-3.7 1.5-7.2 3.3-11 4.2-5.6 1.3-10.6 3.8-15.7 6.2-4.9 2.4-9.6 5-14.4 7.4-6.6 3.3-13.2 6.6-19.8 9.9-3.1 1.6-6 3.4-9 5-7.2 3.8-14.4 7.5-21.6 11.2-3.4 1.7-6.7 4-10.3 4.8-6.9 1.5-13.5 3.6-20.1 5.9-2.2.8-4.6 1-6 3.2-.2.2-.6.4-1 .4-3.2-.2-5.3 1.6-7.2 3.9-.8 1-2 1.7-3.1 2.4-.2.1-.6-.2-.9-.3.6-1.5 0-1.5-.9-.6-1.6 1.5-2.9 3.3-4.5 4.6-4.5 3.7-9.7 6.1-14.8 8.8-8.5 4.5-17 8.8-26.1 12-1 .4-2 .9-3 1.4-4.8 2.3-9.5 4.7-14.3 6.9-3.5 1.7-7.2 3.2-10.7 4.8-4.9 2.2-9.8 4.5-14.8 6.6-2.3.9-4.6 2-7 2.1-5.1.4-9.9 1.7-14.7 3.4-2.3.8-4.7 1.5-7 2.3-.4.1-.8.6-.9 1 0 .3.5.8.8.9 1.7.6 2.6 2 3.7 3.4 2.4 3 3.7 7.1 7.4 9.1v-.2c0 .6-.1 1.3.1 1.6 2.2 2.8 4.4 5.5 6.7 8.2.6.7 1.5 1.1 2.3 1.7-.2-1-.5-2-.7-2.9-.1-.2-.2-.4-.3-.7-.1-.5-.2-1-.4-1.6.5.2 1.2.2 1.6.6 3 2.9 5.9 5.8 8.8 8.7l-.1-.1c.9.9 2 1.8 2.8 2.8 3 4.2 6.6 7.7 10.6 10.8 5.4 4.3 11 8.3 16.6 12.1 2.5 1.7 5.3 3.4 8.2 4 3.5.8 7.2.5 10.9.4 1.2 0 1.9.3 2.9 1.1 2.3 2 3.5 5.5 7.3 5.6.3 0 .7.4.8.7.8 2.3 2.9 2.4 4.8 2.7.9.2 1.9.5 2.7.8 1.7.7 3.2 1.8 4.9 2.2 5.6 1.2 11.3 2.1 17 3.1.6.1 1.2.1 1.8-.1.6-.1 1.1-.4 1.6-.7-.4-.4-.7-.9-1.2-1.1-5.3-2.4-10.7-4.7-16-7.1-1.7-.7-3.4-1.5-5-2.3-5.1-2.7-10.3-5.1-16.1-6.2-4.5-.9-9.2-1.7-13.2-4.3-.5-.3-1.5.2-2.3.1-.5 0-1-.2-1.3-.5-.5-.6-.7-1.7-1.3-2.1-3.1-2-6.3-3.9-9.4-5.8-4.4-2.7-8.8-5.3-13-8.3-2.8-2-5-4.6-7.7-6.8-6.3-5.2-12.7-10.3-19-15.5-2.8-2.3-5.5-4.6-8.1-7-.6-.6-1.3-1.8-1-2.3.3-.6 1.5-1.3 2.3-1.2 2.1.1 3.9.2 5.6-1.5.5-.5 2.2-.2 3.2 0 2.5.6 4.9 1.3 7.3 2.1.8.3 1.4 1 2 1.6.4.4.7 1.2 1.2 1.4 3.5 1.5 4.7 4.4 5.7 7.9.5 1.8 1 4.6 4.1 4.5l1.1 1.1c.1-.1.1-.2.2-.3-.5-.2-.9-.4-1.4-.6-.2-.6-.4-1.1-.6-1.7-.2-.4-.3-.8-.5-1.2.4.2.9.3 1.2.5 1 .7 2 1.5 3 2.2 1.1.8 2.1 1.3 3.2 0s0-2.1-.6-3.2-3.4-1.8-1.8-3.2c1.2-1.1 2 1.2 2.9 2.1 1 1 1.4 1 2.1-.3 1.6-2.9 3.5-5.5 5.2-8.4.7-1.1 1.1-1.4 1.6 0 .3.9.9 1.9.9 2.8 0 2.8.7 5.7-1.1 8.4-.6.9-.3 2.3-.4 3.5-2.6.9-2.5 1-2.1 3.9.2 1.4 1.7 2.7.5 4.3-.6-1.2-1.3-2.4-1.9-3.7-1.6-3.4-2.7-3.7-6-1.8-.2.1-.4.3-.6.4-1.6.7-1.9 1.4-.6 3 2.3 2.8 5.4 4.6 8.2 6.8 2.5 1.9 5.2 1.8 8 2 .6 0 1.4-.4 1.9-.9 2.2-2 4.3-4.1 6.3-6.2.4-.4.6-1.1 1-1.7-.7-.2-1.6-.8-2-.5-3 1.7-6.5.4-9.6 1.5-1.5.5-2.3 0-2.4-1.7-.1-1.8-.5-3.6-.7-5.4 1.7 1.4 3.4 1.9 5.1 0l-.1.1c1.8-1.7 3.6-3.5 5.5-5.2.3-.3.9-.7 1.3-.7 1.5.1 1.8-.1 1.5-1.2-.4-1.4-.8-2.7-1.2-4.1l.1.1c-.5-1.8.9-1.5 1.9-1.7.1 1.2.7 1.5 1.7.9.3-.1.4-.5.5-.8-.5-.1-1.1-.2-1.6-.3-.2 0-.4.2-.7.3-1.4-2.4-.5-4.4 1.1-6.3.4-.4.4-1.2.6-1.8-2-.6-1.2-2.3-1.6-3.6-.6-2 .7-2.9 1.7-4.1.3-.4.3-.9.5-1.3-.5 0-1.1 0-1.6.1-1.8.4-3.6.8-5.3 1.3-1.1.4-2 1.1-3.1 1.7.8.5 1.6 1 2.5 1.5.5.3 1.1.4 1.6.7.4.2.8.4 1.2.6-.5.4-1.1 1.1-1.6 1.1-.4.1-1-.7-1.5-.9-1.4-.8-1.9-.4-2.1 1.2-.3 2 1.1 2.3 2.5 2.3 1.6 0 1.5.6.9 1.7-.8.8-.5 1.2-.3 1.5zm59.3 10.2c-.2 2.9.8 5.2 3 7.2 1.2 1.1 2.5 1.2 3.7.4 1.7-1.2 3.4-2.6 4.7-4.2.8-1 .9-2.7 2.8-1.3.3-.4.8-.9.8-1.3.6-3.9 1.3-7.8 1.8-11.7 1-7.1 1.7-14.2 2.8-21.2.4-2.7-1-4.1-2.8-5.5-.2-.2-1.2.1-1.3.4-.7 1.7-1.9 3-3 4.4-.8 1.1.1 3.5.1 5.3 0 1.3-.2 2.7-.4 4 0 .3-.3.6-.4.9-.2-.2-.5-.4-.7-.7-1.6-2-1.5-1.9-2.7.2s.3 4.1.1 6.1c0 0 .7.2.9.1.4-.3.6-.7 1-1.1s.8-.7 1.2-1c0 .6.1 1.2-.1 1.7-.3.7-.7 1.3-1.2 1.9-1.4 1.6-2.8 1.4-3.7-.6-.4-1-.5-2.1-.7-3.2-.3-1.3-1.2-1.2-1.9-.5-.5.6-.8 1.5-1 2.3-.5 2.4-1 4.8-1.4 7.2-.6 3.4-1.1 6.8-1.6 10.2zm2.1 39c1.8.1 3.7-1.2 3.9-3.2.4-3.9.5-7.8.7-11.7.1-1.1-.4-2.3-.1-3.3 1.3-3.7.8-7.7 1.5-11.4 0-.2-.5-.7-.7-.6-5.3 1.4-5.4 1.6-6.5 7.2-.1.5-.1 1-.3 1.4-.1.3-.5.5-.7.7-.1-.2-.3-.4-.3-.6-.1-.5 0-1-.1-1.5-.1-.3-.4-.6-.6-.9-.3.3-.7.6-.9.9-.5 1.4-.5 3.1-1.4 4.1-1.8 2.1-2.8 4.2-2.5 6.9 0 .3-.2.6-.4.9-.3-.3-.8-.5-1-.8-.4-.5-.7-1.1-1-1.6-.3.6-.9 1.2-.9 1.9-.1 1.3-.2 2.7.1 4 .7 2.7.7 5.3-.2 8-.5 1.6-1.1 3.3-1.6 4.9 1.8.2 3.6.4 5.4.5.5 0 1.2 0 1.3-.3 1.5-2.2 3.8-2.5 6.2-2.6.4 0 .7-.8 1-1.2-.3-.3-.6-.6-1-.8-.4-.1-1 .1-1.4-.1-.2-.1-.3-.5-.4-.9 0-.1.3-.4.5-.4.5.2.9.4 1.4.5zm-35-38.8c-.1-.3-.2-.5-.3-.7-.2.1-.5.2-.6.3-1.2 1.7-2.5 3.3-3.7 5-5.1 7.2-10.4 14.3-16.8 20.4-.9.8-1.4 2-2 3.1-.2.5-.4 1.2-.2 1.7 1.2 2.5 5 3.2 6.5.9 3.2-4.8 6.3-9.6 9.1-14.7 2.5-4.5 4.6-9.2 6.8-13.8.5-.7.9-1.5 1.2-2.2zm35.3-42.5c-.3-.3-.5-.7-.8-.7-1.4 0-2.7-.4-3.7 1.3-2.1 3.5-4.6 6.7-7 9.9-.5.7-1.2 2.2-2.2 1.2s-1.2-.8-1.7.2c-1.5 3.4-3 6.7-4.5 10.1-.1.3 0 .7-.1 1 .3-.1.7-.2.9-.4 2-1.7 4-3.2 5.8-5.1 2.6-2.7 5.3-5.5 7.6-8.4 1.8-2.3 3.1-5 4.7-7.5.4-.4.6-1 1-1.6zm99.2-29.7c1.4-.2 2.5-.3 3.5-.4.7-.1 1.4-.1 2.1-.2-.3-.6-.6-1.3-1-1.9-.3-.5-.9-.9-1.2-1.4-.5-.7-1.1-.9-1.8-.2-.4.4-.9 1-1.5 1.1-1.4.3-1.9 2.3-3.7 1.6.9-.9 1.8-1.8 2.6-2.8.3-.3.3-.8.5-1.2-.3 0-.7-.2-1 0-2.5 1-5.6.6-7.3 3.3-.3.4-.8.6-1.2.9.4.2.8.5 1.3.6 3 .1 6 .4 8.7.6zm-3.8-5.9c0-.1 0-.2 0-.2.9 0 1.7 0 2.6-.1.5-.1 1-.4 1.5-.6-.4-.3-.7-.7-1.1-.8-1.6-.4-3.2-.6-.1-1.4.2 0 .4-.8.3-1.2-.4-1.4-1.4-1.7-2.6-1.2-2.9 1-5.8 2-8.6 3.1-.3.1-.4.5-.7.8.3.2.5.5.8.6 2.6.1 5.2.5 7.9 1zm-75.9 22.1c-.1 0-.1 0-.2 0 .4 1.6.7 3.3 1.2 4.9.3.9 1 2.3 1.3 2.3 1.3-.2 2.5-.8 3.6-1.4.1-.1.2-.7.1-.9-1.6-2.3-3.2-4.6-4.8-6.8-.1-.1-1 .2-1.1.5-.2.4-.1.9-.1 1.4zm122.5-41.9c-.1-1-.3-2.2-.5-3.4 0-.2-.2-.4-.3-.6 0 0-.4.1-.5.2-.3 2.7-.6 5.3-.9 8 0 .2.4.5.6.7.3-.2.7-.4.7-.7.4-1.4.6-2.7.9-4.2zm-61.3 21.9c-1.5.1-2.2.1-2.9.2-.2 0-.4.2-.6.3.2.2.4.6.7.6 2.9.5 5.8 1 8.7 1.4.2 0 .4-.2.6-.4-.1-.2-.2-.4-.4-.5-2.3-.5-4.5-1.1-6.1-1.6zm-36.8 83.8c.2-.6.8-1.3.6-1.8-.4-1.3-1.2-2.4-1.8-3.6-.2-.4-.6-.7-.9-1-.4.4-1.1 1-1 1.3.6 1.7 1.4 3.2 2.1 4.8.1.3.5.2 1 .3zm74.3-74.3c.2-.2.6-.5.9-.8.1-.1 0-.6-.1-.6-1.5-.6-3.1-1.1-4.7-1.7 0 0-.3.5-.3.6 1.2.8 2.4 1.6 3.6 2.4.1.1.2.1.6.1zm-130.5 32.8c.3-.6.7-1.2 1-1.8.2-.5.4-1.1.5-1.6-.2 0-.5-.1-.6 0-.6.9-1.1 1.8-1.6 2.8.1.1.4.3.7.6zm131.9 45.3c-.6-.3-1-.5-1.1-.5-.5.6-1 1.3-1.4 1.9.3.2.7.5.8.4.5-.4 1-1 1.7-1.8zm-40.8 23.8c.8-.8 1.4-1.3 1.9-1.9.1-.1-.3-.5-.5-.8-.6.5-1.2 1-1.7 1.6 0 .1.1.4.3 1.1zm36.1-19.3c.2-.4.5-.7.6-1.1 0-.1-.3-.4-.5-.5-.2.4-.5.7-.7 1.1 0 0 .3.2.6.5zm-103.6-54c.3-.4.7-.7.7-1 .1-.3-.1-.6-.2-.9-.2.2-.5.4-.6.7 0 .2.1.6.1 1.2zm98 60.3c-.2-.1-.3-.3-.5-.4-.1.2-.2.4-.2.5 0 0 .2.2.3.2s.2-.1.4-.3zm-76.4-50.9c0-.1.1-.2.1-.3-.1-.1-.2-.1-.3-.2v.3c0 .2.2.2.2.2zm5.2 15.9.1.2v-.3zm-30.1 17.9c-.1-.1-.2-.2-.2-.2-.1.2-.2.4-.2.6 0 .1.1.2.2.2.1-.2.1-.4.2-.6zm.6-35.7c.1-.2.2-.4.2-.6 0-.1-.1-.2-.2-.2-.1.1-.3.3-.3.4s.2.3.3.4zm37.7-26.6c.1.1.1.2.2.2h.3c-.1-.1-.1-.2-.2-.3 0-.1-.2 0-.3.1zm-52.6 74.4c-.1 0-.2 0-.2.1-.1.1 0 .2-.1.3.1 0 .3-.1.4-.1 0-.1 0-.2-.1-.3zm-50.4-34.3.1-.2h-.2z"/><path d="m76.9 203.1c-1.2-.5-2.2-.8-3.1-1.2-1.2-.7-3-1.3-2.5-2.9.2-.6 2.6-.6 4-.5.9 0 1.9.5 2.6 1.1s.9 1.6 1.4 2.4c-.8.3-1.5.7-2.4 1.1z"/><path d="m66.2 191.8c-.6-.3-1-.4-1-.4 0-.3.1-.6.3-.9.1-.2.4-.3.6-.4 3.2-.8 6.4-1.6 9.7-2.3.3-.1.6.2 1 .2-.1.2-.2.5-.4.6-3.5 1.1-7 2.2-10.2 3.2z"/><path d="m297.1 164c.5-3.4 1.1-6.8 1.6-10.2 0-.3.4-.5.5-.7.1.2.2.5.2.7-.4 4.3-.7 8.6-1.1 12.8 0 .2-.3.4-.4.6-.2-.2-.6-.4-.6-.6-.1-.8 0-1.7 0-2.6-.1 0-.1 0-.2 0z"/><path d="m299.5 164.2s0-.8.1-1.5c.1-.4.3-.8.4-1.2.1.3.3.7.3 1-.1 1.7-.1 3.4-.3 5.1 0 .3-.2.6-.3.9-.1-.4-.2-.7-.2-1.1 0-.8 0-1.6 0-3.2z"/><path d="m116 168.4c.1.6.2.9.2 1.1-.4.7-.9 1.4-1.5 2 0 0-.6-.2-.6-.3.2-.7.3-1.5.7-2.2.2-.5.6-.8 1-1.2.1.3.2.7.2.6z"/><path d="m63.7 197.8c.3-.1.6-.3.7-.2.9.6 1.8 1.2 2.7 1.9.1 0-.1.3-.1.5-.9-.5-1.8-.9-2.6-1.4-.3-.1-.5-.5-.7-.8z"/><path d="m84 190.8c-.6-.6-1.1-1-1.5-1.5 0-.1.3-.5.5-.7.5.4 1.1.9 1.5 1.3.1 0-.2.4-.5.9z"/><path d="m48.6 209.6c-.3-.6-.6-1.2-.8-1.8 0 0 .3-.2.5-.3.4.5.7 1.1 1 1.6 0 0-.4.2-.7.5z"/><path d="m80.5 194.4c.4-.2.8-.4 1.1-.6.1.2.4.7.3.7-.3.2-.7.4-1.1.6 0-.2-.1-.3-.3-.7z"/><path d="m297.6 147.9c-.2.1-.3.2-.5.4-.1-.2-.3-.4-.4-.6.2-.1.4-.3.6-.2.1 0 .2.3.3.4z"/><path d="m97.6 201.2c-.9.8-1.9 1.1-2.9.3 1-.1 2-.2 2.9-.3z"/><path d="m90.6 212.2c-.1-.2-.3-.4-.4-.6s-.1-.5-.1-.7c.1.2.3.4.4.6.1.3.1.5.1.7z"/><path d="m116.3 174.3c-.1-.2-.2-.3-.3-.5.2-.1.4-.2.6-.2.1 0 .2.3.3.4-.2.1-.4.2-.6.3z"/><path d="m94.7 201.5c.1-.2.2-.4.3-.7-.1.3-.2.5-.3.7z"/><path d="m66.5 224.3c-.1-.2-.2-.4-.2-.6 0-.1.1-.2.2-.3.1.2.2.4.2.6.1.2-.1.3-.2.3z"/><path d="m292.4 111.7c0 .2-.1.3-.1.5 0-.1.1-.1.1-.2-.1-.2-.1-.3 0-.3-.1 0 0 0 0 0z"/><path d="m298.2 169.5c0-.1-.1-.2-.1-.3.1 0 .3-.1.4-.1 0 .1 0 .2-.1.3 0 .1-.1.1-.2.1z"/><path d="m61.1 219.5c0-.1 0-.1 0-.2 0 .1-.1.1 0 .2-.1-.1 0 0 0 0z"/><path d="m42.9 204c0-.1-.1-.2-.1-.2.1 0 .1.1.2.1-.1 0-.1.1-.1.1z"/><path d="m78.5 232.4c0-.1 0-.2.1-.2-.1.1-.1.2-.1.2z"/><path d="m78.5 232.4c-.1 0-.1-.1-.2-.1 0 0 .1.1.2.1z"/><path d="m76.7 186.5c.1-.1.1-.1.2-.2.1.1.2.2.2.2 0 .1-.1.1-.2.2 0 0-.1-.1-.2-.2z"/><path d="m95.6 194.6c0 .2-.1.4-.1.5 0-.1 0-.3.1-.5z"/><path d="m83.6 186c-.1 0-.2 0-.2 0s.1 0 .1-.1c0 0 .1.1.1.1z"/><path d="m250.4 178.5c-.2-.4-.5-.9-.6-1.3-.1-.3 0-.7.1-1 .3.1.7.2.9.4.8.6 1.4 1.4 2.2 1.9 1.7 1.1 3.5 1.6 5.6 1.1 1.8-.5 2.1-1.4.8-2.8-.3-.4-.8-.5-1.2-.8-.2-.2-.2-.5-.2-.8.2-.1.5-.2.7-.2 1.4.2 2.9 2 2.9 3.4 0 1.6-1.5 3.3-3.1 3-1.8-.4-2.7-.5-1.9 1.7.5 1.5-.2 2.5-1.4 3-.9.3-2.1.3-3 0-.5-.1-.9-1-1.3-1.5.6.1 1.2.1 1.9.1h2.1c0-.8.2-1.7-.1-2.4-.8-2.1-2.9-2.7-4.4-3.8z"/><path d="m272.2 189.2c-.3.4-.8 1.9-1.8 2.4-.8.4-2.3-.1-3.4-.4-.3-.1-.4-.8-.6-1.2.4-.1.8-.3 1.2-.2 1.1.2 2.3 1.3 3.1-.5.6-1.5-.2-4.1-1.6-4.9-.6-.3-1.4-.4-2.1-.7-.4-.2-.6-.6-.9-.9.5 0 .9-.2 1.4-.1 2.8.6 4.7 2.9 4.7 6.5z"/><path d="m248.6 201.4c-2-.3-2.9-1.6-3.1-3.4 0 0-.1.1-.1.1.8-1 1.1-2.7 3.3-1.7 1.3.6 1.9-.5 2-1.8 0-.3.5-.6.8-1 .2.4.6.8.7 1.2.3 1.8-.5 3.5-2.6 3.9-2.8.3-1.6 1.5-1 2.7z"/><path d="m229.6 164.5c-.1-.2-.2-.6-.2-.7 2.3-1.1 1.5-2.4.5-3.9-.1-.1.1-.5.3-.6.1-.1.5 0 .6.1.9 1.4 2.1 2.7 2.5 4.2s-1.7 3-3.2 2.4c-.4-.1-.5-1-.8-1.5.1.1.2 0 .3 0z"/><path d="m245.3 174.5c-.8-.5-1.2-.7-1.6-1 .3-.3.6-.7.9-.7 3.6-.8 3.7-.9 2.1-4.4-.1-.2 0-.6 0-.9.2.1.6.1.6.2.5 1.3 1.6 2.9 1.2 3.9-.4 1.2-2.1 2-3.2 2.9z"/><path d="m256.6 198.3c.3-.4.4-.7.6-.7 2.7-.2 2.9-1.6 1.9-3.7-.2-.4 0-.9 0-1.3.4.2.9.4 1.2.7 1 1.1 1.2 2.5.3 3.7-.7.9-1.8 1.4-2.8 2-.3 0-.8-.5-1.2-.7z"/><path d="m266.9 200.3c-.7-.3-1.4-.5-2-.8-.3-.2-.4-.7-.6-1.1.3 0 .7-.2 1-.1.7.2 1.4.5 2 .8.4.2.7.5 1.1.8-.5.2-1 .3-1.5.4z"/><path d="m248.5 201.5c1.2 1.3 3.3 1.7 3.5 4l.1-.1c-1.8-.8-3.4-1.7-3.6-3.9.1-.1 0 0 0 0z"/><path d="m252 205.5c.9.3 1.8.6 2.7.9-1.1.3-2.4 1-2.7-.9.1-.1 0 0 0 0z"/><path d="m238.7 178.1c.4 0 .7-.1 1.1.1.3.1.5.4.8.6-.4 0-.8.1-1.1 0s-.5-.5-.8-.7c.1-.1 0 0 0 0z"/><path d="m256.5 193.6c-.9-.4-1.7-.8-2.6-1.2l-.1.1c1.5-.8 2.2 0 2.7 1.1z"/><path d="m237.9 188.1c-.1 0-.2-.1-.2-.1.1-.1.3-.1.4-.2 0 0 .1.2.1.2-.1.1-.2.1-.3.1z"/><path d="m251.5 189.6c.1.1.2.1.3.2.3.2.5.4.8.6 0 0-.1.2-.2.3-.2-.3-.5-.6-.9-1.1z"/><path d="m256.5 193.6c.4.2.7.3 1.1.5-.1.1-.1.2-.2.3-.3-.3-.6-.6-.9-.8z"/><path d="m240.4 189.5v.3c0-.1.1-.2.1-.3z"/><path d="m237.9 176.9c.3.4.6.8.9 1.2 0 0 .1-.1.1-.1-.4-.4-.7-.7-1-1.1z"/><path d="m237.9 176.9c-.7-.1-1.4-.2-2.2-.4 0 0-.1.1-.1.1.8.1 1.5.2 2.3.3z"/><path d="m254.7 206.4c.2.6.5 1.2.7 1.8 0 0-.1-.1-.1-.1-.1-.6-.4-1.2-.6-1.7z"/><path d="m262.9 208.4h-.2l.1-.3z"/><path d="m249.2 177.8c.4.2.8.5 1.1.7-.3-.2-.7-.4-1-.7z"/><path d="m251.6 189.7h-.3c0 .1.2 0 .3 0-.1-.1 0 0 0 0z"/><path d="m229.5 178.3s0-.1-.1-.1z"/><path d="m229.5 178.2c.1 0 .2 0 .2.1 0-.1-.1-.1-.1-.2 0 .1-.1.2-.1.3 0-.1 0-.2 0-.2z"/><path d="m240.6 189.6c-.1 0-.2 0-.3 0 0 0 .1-.1.1-.1s.2.1.2.1z"/><path d="m249.3 177.9h-.2s.2-.1.2 0c-.1-.1 0 0 0 0z"/><path d="m255.4 208.2c-.1 0-.2 0-.2-.1 0 0 .1-.1.2-.1z"/><path d="m254 192.4c.1-.2.1-.3.2-.5v.3c-.1 0-.2.1-.2.2-.1 0 0 0 0 0z"/><path d="m275.9 125.7c-.1.3-.3 1.4-.9 1.9-.6.4-1.7.1-2.6.1.3-.5.5-1.1.8-1.5 1.3-1.9.2-4.5-2.5-5.8-.4-.2-.8-.5-1.3-.7.5-.2.9-.4 1.4-.4 2.8-.4 5.1 2.2 5.1 6.4z"/><path d="m241.4 137.6c.6 0 1.2-.2 1.8-.1 3.3 1 6.6 2 9.8 3 .5.2.9.6 1.3.9-.5 0-1 .2-1.4 0-3.8-1.3-7.6-2.6-11.5-3.8.1-.1 0 0 0 0z"/><path d="m224.8 117.5c-.3-1.7 1-2.1 2.2-2.3.7-.1 1.9.6 2 1.1.3 1.2 0 2.6 0 3.9-.4-.1-1.1 0-1.2-.2-.2-.5-.2-1.2-.3-1.8-.3-2.1-.4-2.1-2.7-.7z"/><path d="m252 102.6c.2 0 .6-.1.7 0 .5.8.9 1.6 1.3 2.4-.3 0-.6.2-.9.1-1.2-.5-1.5-1.4-1.1-2.5.1-.1 0 0 0 0z"/><path d="m252.8 111.5c.2-.3.4-.6.4-1 .1-.4.1-.8.1-1.1.3.3.8.5.9.9.2.4.1.9.2 1.3-.5-.1-1.1-.1-1.6-.1-.1-.1 0 0 0 0z"/><path d="m264.3 111.8c.1.2.2.3.3.5-.1 0-.2 0-.2-.1s0-.2 0-.3c0 0-.1-.1-.1-.1z"/><path d="m256 112.1c-.5-.2-1-.3-1.5-.5.5.2.9.4 1.5.5-.1.1 0 0 0 0z"/><path d="m224.8 117.4c-.1.1-.2.2-.2.2s-.1-.1-.2-.1c.1 0 .3 0 .4-.1z"/><path d="m192.2 215.7c-.2.9-.2 1.5-.5 2.1-1.9 3.8-1.3 7.9-.9 11.9.1 1.6.2 3.3 2.1 4 .3.1.6.5.6.8.3 2.5.8 5 .8 7.6 0 2.3-1.7 3.7-3.5 4.9-.8.5-1.8.9-2.7 1.3-.3.1-.7.2-1 .3 0-.4 0-.8 0-1.3.4-3.4 1.6-6.7.6-10.2-.1-.3.1-.9.2-1 2.7-.4 1-2.1 1.1-3.4.3-6.2-1.4-12.4-.2-18.7.1-.5 0-1 .2-1.4.1-.3.5-.7.8-.7.4 0 1.1.2 1.2.5.6 1.2.9 2.4 1.2 3.3z"/><path d="m191.2 198.9c-.1-.5-.3-.9-.3-1.2s.3-.5.5-.7c.1 0 .5.2.6.3.3 1.3.6 2.6.8 3.9.1.4-.3.9-.5 1.4-.5 1.4-.9 2.8-1.4 4.2-.9-1.3-1.8-2.5-2.6-3.8-.4-.6-.5-1.3-.8-2 .6.2 1.2.4 1.8.7 1.1.7 1.6.3 1.8-.8 0-.7.1-1.4.1-2z"/><path d="m206.9 224.9c-.4.5-1 1.7-2 2.4-.5.3-1.9-.2-2.4-.8-.7-.8-1.4-2 .8-2.2.9-.1 2.1-.5 1.9-2.1 0-.3.4-.7.7-1 .3.4.7.7.8 1.1.1.5.1 1.2.2 2.6z"/><path d="m199.4 232.7c.4-3.2.7-6.5-.5-9.7-.2-.6-.2-1.2-.2-1.8 0-.3.2-.6.4-.9.2.3.6.5.6.8.4 1.9.7 3.8 1.1 5.7.3 1.5.8 3 .9 4.6.1 1.9-.1 1.9-2.4 1.1z"/><path d="m221.6 232.4c-.1.2-.2.6-.3.6-.3 0-.8.1-1-.1-1.9-2.6-4.1-5.2-4.7-8.6 0-.2.3-.5.4-.8.2.1.5.2.6.4 1.6 2.6 3.2 5.2 4.7 7.8.3.2.3.5.3.7z"/><path d="m202.8 186.1c-.7-.7-1.6-1.2-2.1-2-.6-1.1.9-.9 1-1.2.3-.9.1-2 .2-2.9 0-.3.2-.6.4-.9.1-.1.5.1.6.2 1 .9 1.8 4.8 1.1 5.8-.1.3-.6.5-1.2 1z"/><path d="m190.3 187.9c-1.1 1.2-1.6 2.5-2.3 2.6-1.4.3-2.6-.6-3.2-1.9-.1-.2 0-.6.1-.6.3-.1.8-.3 1-.1 1 .6 1.8 1.5 2.6-.2 0-.2.7 0 1.8.2z"/><path d="m215.1 228.3c.5.7 1 1.3 1.3 2.1.1.2-.4.7-.6 1.1-.2-.4-.6-.7-.7-1.1 0-.7.1-1.4 0-2.1z"/><path d="m224 238.2c-.5-.9-.9-1.4-1.2-2-.1-.2.3-.5.5-.8.4.5.9 1 1.2 1.6.1.1-.2.5-.5 1.2z"/><path d="m188.7 195.8c-.1-.6-.2-1.1-.2-1.5 0-.1.2-.3.3-.4 0 .4.1.9.1 1.3 0 .2-.1.3-.2.6z"/><path d="m194.7 211.6c.2-.1.3-.2.5-.3 0 0 .1.1.2.2-.2.1-.3.2-.5.3 0 0-.1-.1-.2-.2z"/><path d="m198.5 217.4v.6s-.1 0-.2 0c0-.2 0-.4 0-.6z"/><path d="m199.3 232.6c-.2.4-.4.9-.7 1.3-.1-.1-.2-.1-.3-.2.3-.3.7-.7 1-1 .1 0 0-.1 0-.1z"/><path d="m214.3 220.1c.3.6.5 1.2.8 1.7 0 0 .1.1.1.1-.3-.5-.6-1.1-.9-1.8z"/><path d="m215.1 221.8s.1.1.1.1-.1 0-.1-.1z"/><path d="m215.2 228.2c-.2 0-.4 0-.6-.1.2.1.3.2.6.1-.1.1 0 0 0 0z"/><path d="m214.3 220.2c0-.1 0-.1-.1-.2.1 0 .1.1.1.2 0-.1 0 0 0 0z"/><path d="m212.8 218h.3v.2c-.1 0-.2-.1-.3-.2z"/><path d="m132.9 208.4c.9-1.6 1.8-3.2 2.7-4.8l-.1.1c.1 2.3.2 4.7-1.6 6.6-.2.2-.2.8-.4 1-1.9 1.3 3 1.1.5 2.7-.9.6-1.2 2.1-1.9 3.1-1.7 2.7-2.7 5.7-3.6 8.7-.1.3-.4.6-.6.8-.1-.3-.2-.7-.4-1-.4-.9-.8-1.9-1.3-2.8s-1.1-1.2-2.1-.5c-.4.3-1.1.1-1.6.2.1-.6.2-1.2.4-1.7.9-1.6 2.2-2.9 1.8-5-.1-.4.6-1.2 1-1.3 3-.7 4.6-2.9 6.2-5.2 0 0-.1-.1-.1-.1l.6 1.5c.2-.6.4-1.1.6-1.7.3-.3 0-.5-.1-.6z"/><path d="m144.8 196.6c-.8-1.5-1.7-2.9-2.2-4.4-.3-1-.6-2.4 1.6-2.1.8.1 1.7-.9 2.6-1.3.3.9.6 1.9 1.1 2.7.2.3 1.1.5 1.1.6-.7 3.9 1.5 2.7 3.4 2 .3-.1.7.1 1 .1-.1.4-.2 1.1-.5 1.2-1 .5-2 1-3 1.1-1.8.1-3.5 0-5.1.1-.1-.1 0 0 0 0z"/><path d="m143.9 205.8c.1-.1.2-.4.4-.7.3.2.6.4.8.7 1 2.1 2.2 3.3 4.6 1.9.2-.1.5.1.8.2-.1.2-.2.5-.4.6-1.2.5-2.5 1.2-3.8 1.3-1.5.2-2.5-1.5-2.4-4z"/><path d="m124.9 236.5c.1-.3.2-.7.2-1 .2-1 .4-1.9.6-2.9.3.8.6 1.6 1 2.3.2.3.6.4.9.6.4.5.8 1.1 1.2 1.7-.7.4-1.3 1-2.1 1.2-1.9.7-1.5-1-1.8-1.9z"/><path d="m133.6 234.1c-.5.6-1 1.2-1.5 1.8-.2-.2-.6-.6-.5-.7.4-.7.8-1.4 1.3-2.1.1.3.3.5.7 1z"/><path d="m144.7 196.5c0 .1.1.3 0 .4-.8.9-1.5 1.7-2.3 2.5-.1-.1-.2-.2-.2-.2.8-.9 1.7-1.8 2.5-2.7.1.1 0 0 0 0z"/><path d="m129.4 243.4c-.5-.7-.9-1.1-.8-1.2.4-.7 1-1.3 1.5-2 .2.3.7.8.6 1-.3.7-.7 1.3-1.3 2.2z"/><path d="m137.7 231.5c.1-1.5.1-3.1.2-4.6l-.1-.1c1 1.6 1 3.2-.2 4.7z"/><path d="m150.9 187c.1.6.3 1.2.2 1.7 0 .3-.5.6-.8.9.1-.3.1-.6.2-.9.2-.6.3-1.1.4-1.7z"/><path d="m133.6 240.3c-.3.2-.6.4-.8.6 0-.2-.1-.3-.1-.5.2 0 .6 0 .9-.1z"/><path d="m134.1 228.9c0 .1.1.2.1.3-.1 0-.3.1-.4.1 0-.1 0-.2.1-.3 0 0 .1 0 .2-.1z"/><path d="m136.1 231.9c0 .1-.1.2-.1.2.1 0 .1-.1.1-.2z"/><path d="m137.9 226.8c.2-.3.4-.5.6-.8-.2.2-.4.4-.7.7 0 0 .1.1.1.1z"/><path d="m138.4 218.3c-.1-.1-.3-.2-.2-.3 0-.2.1-.4.2-.6.1.1.3.2.3.2-.1.3-.2.5-.3.7z"/><path d="m139.3 200.4c0-.1 0-.2-.1-.3 0 .1.1.2.1.3z"/><path d="m139.3 200.4c-.4.1-.9.2-1.3.3l-.1.1c.4-.1.9-.3 1.4-.4z"/><path d="m137.9 200.7c0 .1 0 .1-.1.2v-.1c0 .1.1-.1.1-.1z"/><path d="m137.6 231.5c-.5.2-1 .3-1.5.5h.1c.5-.2 1-.4 1.4-.5z"/><path d="m135.7 203.6v.2s-.1-.1-.1-.1c-.1 0 .1-.1.1-.1z"/><path d="m134.4 239.4.1-.2-.1.1z"/><path d="m134.4 239.3c-.3.3-.5.7-.8 1 0 0 .1.1.1.1.2-.3.5-.7.7-1.1z"/><path d="m132.1 209.2c.3-.3.5-.5.8-.8 0 0-.1-.1-.1-.1-.3.3-.5.5-.8.8z"/><path d="m209.6 259.9c1.9 2.1 1.9 2.1-.3 2.9-.2.1-.5.1-.7.1-.7.1-1.4.1-2.2.2 0-1.4 1.1-.7 1.7-1 .8-.4 1.1-1.5 1.7-2.3z"/><path d="m259.7 233.8c-.6 1.2-1.1 2.4-1.9 3.4-.2.3-1 .1-1.6.2.1-.4.1-1 .3-1.2 1.1-.8 2.1-1.5 3.2-2.4z"/><path d="m213 261.9c-.4-.3-.6-.5-.7-.7.4-.4.8-.8 1.3-1 .2-.1.6.2.9.2-.5.4-.9.9-1.5 1.5z"/><path d="m220 257.6c-.5.5-.9 1-1.4 1.5-.2-.2-.5-.5-.4-.5.4-.5.8-1 1.2-1.5.2.1.3.2.6.5z"/><path d="m205.2 264.9c-.3-.5-.7-.9-1-1.4-.1-.2.1-.6.2-.9.3.2.8.4.8.7.1.5 0 1.1 0 1.6-.1.1 0 0 0 0z"/><path d="m250.6 243.6c-.2-.6-.4-.9-.3-1.1.2-.4.6-.7 1-.9 0 0 .6.5.6.6-.4.4-.8.8-1.3 1.4z"/><path d="m227.4 252.9c-.1-.1-.1-.1-.2-.2.1-.1.3-.2.4-.2 0 .1.1.2 0 .3 0 0-.1 0-.2.1z"/><path d="m254.6 240.4c0-.1-.1-.2-.1-.3.1-.1.2-.2.3-.2v.3c0 .1-.1.1-.2.2z"/><path d="m235.6 253.8c0 .1.1.2.1.3-.2 0-.3 0-.5.1 0-.1 0-.2.1-.3 0-.1.2-.1.3-.1z"/><path d="m223.5 258.4h-.2v-.1z"/><path d="m262.1 233.2c.1.2.2.4.2.6 0 .1-.2.2-.2.2-.1-.2-.2-.4-.2-.6 0 0 .1-.1.2-.2z"/><path d="m260.6 236.3c-.1-.2-.2-.4-.2-.6 0-.1.2-.2.2-.2.1.2.2.4.3.6 0 0-.2.1-.3.2z"/><path d="m259.6 233.9v-.3s.1.2 0 .3c.1-.1 0 0 0 0z"/><path d="m209.8 259.9c0 .1-.1.1-.1.2 0 0-.1-.1-.1-.2z"/><path d="m169 237.9c0-.1.1-.3.1-.3.5-.5 1-1 1.5-1.4.1.2.4.4.4.4-.3 1-.8 1.6-2 1.3-.1-.1 0 0 0 0z"/><path d="m111.6 199.5c-1.5-1.2-3.2-2.5-4.7-4-.3-.2.1-1.1.1-1.7.5.1 1.4 0 1.6.4 1.3 2 3.9.9 5.4 2.3.3.3.7.4 1.1.7-.3.5-.5 1.1-1 1.4-.6.4-1.4.5-2.5.9z"/><path d="m114.5 188.6c.1 3.2.3 3.4 3.7 4.1.5.1 1 .4 1.4.6-.5.3-1 .8-1.5.8-1.3 0-2.8 0-3.9-.6-1-.6-4.3-.7-1.6-3.4 0 0-.2-.4-.3-.6-1.3-2.1.2-1.6 1.3-1.3.4.1.7.3.9.4.1.1 0 0 0 0z"/><path d="m118.4 186.1c.5-.8.7-1.2 1-1.6.3.4.7.7.9 1.1.6 1.7 1.5 2.5 3.3 1.5.3-.2.8-.1 1.1-.2-.2.4-.3.9-.6 1.2-1 .9-2.2 1.4-3.4.5-.9-.6-1.6-1.7-2.3-2.5z"/><path d="m123.2 179.5c.3-.3.5-.5.8-.8 1.3 1.1 2 3.5 4.4 1.6.1-.1.6.1.8.3.1.1 0 .5-.1.7-.9 1.5-3.5 1.8-4.8.5-.5-.6-.7-1.6-1.1-2.3z"/><path d="m115 186c.2-.8.4-1.6.6-2.4.9 2 .9 2.1-.6 2.4z"/><path d="m114.9 185.9c-.1.9-.3 1.8-.4 2.7 0 0 .1.1.1.1.1-.9.2-1.8.3-2.8.1.1 0 0 0 0z"/><path d="m128.2 174.7c0 .4 0 .8-.1 1.2-.1 0-.2 0-.3 0 .2-.4.3-.8.4-1.2z"/><path d="m128.2 174.8.1.2c.1 0-.1-.2-.1-.2 0-.1 0 0 0 0z"/><path d="m157.9 197.5c.1-.2.2-.5.5-.7.1-.1.5.1.6.2.4.3.7.7 1 1 1.7 1.9 1.8 1.9 3.4-.1.3-.4.6-.7 1-1 0 .6.2 1.2 0 1.7-.6 1.7-2.1 2.6-3.6 2.4-1.3-.1-2.7-1.8-2.9-3.5z"/><path d="m161.3 194.4c0-.2-.1-.4-.1-.7 0 .3 0 .5.1.7z"/><path d="m161.2 194.5-.2-.1h.3z"/><path d="m248.9 118.4h2.3c-.8 0-1.6-.1-2.3 0z"/><path d="m248.9 118.3.2-.2c-.1 0-.2.3-.2.2z"/><path d="m267.6 225.5c0-.5 0-1.1 0-1.6h1.6c-.6.5-1.1 1-1.6 1.6z"/><path d="m269.1 224c.2-.2.4-.4.6-.6.1.2.2.4.2.6-.3 0-.6 0-.8 0z"/></g></svg>