<?xml version="1.0" encoding="utf-8"?>
<!-- Generator: Adobe Illustrator 22.1.0, SVG Export Plug-In . SVG Version: 6.00 Build 0)  -->
<svg version="1.1" id="Layer_1" xmlns="http://www.w3.org/2000/svg" xmlns:xlink="http://www.w3.org/1999/xlink" x="0px" y="0px"
	 viewBox="0 0 466 697.2" style="enable-background:new 0 0 466 697.2;" xml:space="preserve">
<style type="text/css">
	.st0{fill:#09A787;}
	.st1{fill:#ECAD20;}
	.st2{fill:#C83594;}
	.st3{fill:#0383AF;}
	.st4{fill:#EC2024;}
</style>
<g>
	<path class="st0" d="M88.4,341.4c-0.8-0.2-1.5-0.6-2-1.2l-18.1-20.4l-14.4-17.6c-0.8-0.9-1.4-1.9-1.8-3c1.1-1.1,4.7-0.8,5.6,0.2
		L64,308l18.7,21.7c0,0,4.7,5.2,5.5,5.4c0.2,0,4.1-4.6,7.5-8.7c8.4-10.1,21.1-26.1,21.7-26.8c2.2-2.4,4.9-2.2,6-1.4
		c0,0.7-1,1.8-1.8,2.8l-15,18.1l-16.3,21.1C89.8,340.7,89.1,341.2,88.4,341.4z"/>
	<path class="st0" d="M89.1,361.8c0.8,0.2,1.5,0.6,2,1.2l18,20.4l14.4,17.6c0.8,0.9,1.4,1.9,1.9,3c-1.1,1.1-4.7,0.8-5.6-0.2
		l-6.3-8.7l-18.7-21.7c0,0-4.8-5.2-5.5-5.4c-0.2,0-4.1,4.6-7.5,8.7c-8.4,10.1-21.1,26-21.7,26.8c-0.8,1-4.9,2.2-6,1.4
		c0-0.7,1-1.8,1.8-2.8l15-18.1l16.3-21.1C87.7,362.5,88.3,362,89.1,361.8L89.1,361.8z"/>
	<path class="st0" d="M130.4,315.4c-5.9,5.7-11.4,11.7-16.5,18.1c-4.4,5.5-8.3,11.3-11.8,17.4c1.9,2.6,7.7,9.5,14.7,17.4
		c7.8,8.9,13.1,14.4,15.5,16.6c1.8-2.1,5.1-6.5,8.1-10.4c2-2.6,4-5.4,6.1-8.1c2.7-3.5,5.3-6.8,7.7-9.7c2.1-2.6,4.3-5.4,5.4-6.9
		C155.8,343.9,136.1,320.3,130.4,315.4z M149.8,349.4c0,0.8,0,2-7.4,12.6s-8.7,11.1-9.6,11.4c-0.3,0.1-0.6,0.1-0.9,0.1
		c-1,0-1.9-0.4-2.7-1c-2.6-1.9-7.7-7.4-10.5-10.5c-7.7-8.5-7.7-9.2-7.7-10.2c-0.1-3.1,8.9-17.5,18.4-24.1l2.1-1.4l1.7,1.9
		C149.8,347,149.8,348.2,149.8,349.4L149.8,349.4z"/>
	<path class="st0" d="M56.1,327.3c-3.3-4-6.9-8.5-8.8-10.4c-2,1.6-6.7,6.4-15.3,17.3c-6.5,8.1-11.5,15.2-13.3,17.9
		c4.1,5.5,23.3,27.7,29.4,34.1c5.9-6.7,24.3-29.4,28.1-35.1c-1.2-1.5-3.5-4.2-5.7-6.6c-2.4-2.8-5.2-6-8-9.4
		C60.4,332.4,58.2,329.8,56.1,327.3L56.1,327.3z M50.7,374l-1.9,2.4l-2.2-2.2c-3.6-3.4-8.1-8.3-12.1-13.1c-6.7-7.9-6.7-9.1-6.7-10
		s0-1.7,7.3-10.5c2.7-3.2,7.5-8.9,10.1-10.9c1-0.9,2.3-1.3,3.6-1c0.9,0.3,2.2,0.6,10.1,11s7.8,11.5,7.8,12.3
		C66.5,353.2,66.5,354.4,50.7,374L50.7,374z"/>
	<path class="st0" d="M380.7,340.5c0.7-0.2,1.4-0.6,1.9-1.1l17.7-20.1l14.2-17.4c0.8-0.9,1.4-1.9,1.8-3c-1.1-1.1-4.5-0.8-5.4,0.1
		l-6.2,8.6l-18.4,21.4c0,0-4.6,5.2-5.4,5.3c-0.2,0-3.9-4.6-7.1-8.8c-7.9-10.2-19.8-26.4-20.4-27.1c-0.8-1-4.6-2.3-5.7-1.5
		c0,0.7,1,1.8,1.7,2.8l14.1,18.4l15.3,21.3C379.4,339.8,380,340.3,380.7,340.5L380.7,340.5z"/>
	<path class="st0" d="M379.7,360.9c-0.7,0.2-1.4,0.6-1.9,1.1l-17.7,20.1l-14.1,17.4c-0.8,0.9-1.4,1.9-1.8,3c1.1,1.1,4.5,0.8,5.4-0.2
		l6.2-8.6l18.4-21.4c0,0,4.6-5.2,5.4-5.3c0.2,0,3.9,4.7,7.1,8.8c7.9,10.2,19.8,26.4,20.4,27.1c0.8,1,4.6,2.3,5.7,1.5
		c0-0.7-1-1.8-1.7-2.8l-14.1-18.3l-15.3-21.3C381,361.6,380.4,361.1,379.7,360.9L379.7,360.9z"/>
	<path class="st0" d="M312.3,348c1,1.5,3.2,4.4,5.1,7c2.2,3,4.7,6.3,7.2,9.8c2,2.8,3.9,5.5,5.7,8.1c2.8,3.9,5.8,8.3,7.5,10.4
		c5.9-5.5,25.2-27.6,29.4-33.3c-3.6-5.6-20.6-28.5-26.3-35.5C334.7,321,316.1,342.6,312.3,348z M358.9,350.5c0,1-0.1,1.7-7.7,10.2
		c-2.8,3.1-7.9,8.6-10.3,10.4c-0.7,0.5-1.5,0.8-2.4,0.9c-0.3,0-0.7-0.1-1-0.2c-0.9-0.3-2.1-0.7-9.1-11.6
		c-6.9-10.7-6.9-11.8-6.8-12.6c0-1.2,0.1-2.4,16.3-21l2.1-2.4l2.1,2.3C345.5,330.4,359,347,358.9,350.5L358.9,350.5z"/>
	<path class="st0" d="M412,326.8c-2,2.5-4.1,5.1-6.3,7.7c-2.7,3.3-5.5,6.5-7.9,9.2c-2.1,2.5-4.4,5.2-5.6,6.6
		c3.4,5.7,20.5,28.5,26.3,35.4c6.1-6.5,24.7-28.2,28.7-33.6c-3.8-6-21.5-29.5-27-35.3C418.4,319,415.1,323.1,412,326.8L412,326.8z
		 M432,340.5c7,9.1,7,9.8,7,10.8c-0.1,3.5-14.8,19.1-18.5,22.7l-2.2,2.2l-1.9-2.6c-14.9-19.8-14.8-21-14.8-22.1
		c0-0.8,0.1-2,7.7-12.1c7.8-10.3,9-10.6,9.9-10.9c1.2-0.2,2.5,0.1,3.4,1C424.8,331.3,429.5,337.2,432,340.5L432,340.5z"/>
	<path class="st1" d="M424.4,37.4c4.2,0.2,6.3,0.4,7.1,0.4c5.7,0,9.6-9.1,11.4-14.5l1.5-4.5h-4.8c-0.2,0-18.5,0-37.1,0.5
		c-38.9,1.1-41,3.2-42.4,4.6c-1.6,1.6-5.1,5.1-5.1,111.9c0,33.5,0.3,57.4,0.5,71.5c1,61.2,3,63.1,4.6,64.7c1.2,1.2,3.3,2.4,14.7,3.3
		c6.6,0.5,15.2,0.8,24.2,0.8s17.6-0.3,24.2-0.8c11.4-0.9,13.5-2.1,14.7-3.3c5.6-5.6,1.2-15.1,0.6-16.1l-1.1-2.2l-2.4,0.3
		c-26.2,3.5-55.5,6.2-61.8,4.9c-2.3-9.9-3.2-76.4-3.3-119.7c3.6,0,9.5-0.2,15.5-0.5c18.1-1,22.2-2.8,24-4.6c2.5-2.3,3.4-5.9,2.4-9.1
		c-0.5-1.4-1.3-2.8-2.4-3.9l-1.1-1.1l-38.3,3.8c0.1-38.4,1.2-80,3.2-86.9C377.5,35.5,394.6,35.7,424.4,37.4L424.4,37.4z"/>
	<path class="st2" d="M330.1,18.8c-1,0-9.7,0.1-14.6,5.1l-1.1,1.1l0.1,1.6c0,0.5,3,46.4,3.9,97.7h-57.7c0.1-13,0.1-22.8,0.1-29.2
		c0-3.1,0-5.4-0.1-6.8c0-1.1-0.1-3.5-2-4.4c-2.6-2.5-6-4-9.7-4.2h-3.4v132.5h3.4c0.6,0,5.6-0.1,10.5-5.1c2-2,2-3.5,1.7-10.6
		c-0.3-7.5-0.9-23.1-0.7-56.7v-0.6h58v0.6c0.2,27.6-0.2,55.9-0.5,78.7c-0.7,49.8-0.4,51.5,1.5,53.4c4.9,4.9,10,5.1,10.5,5.1h3.4
		V18.8L330.1,18.8z"/>
	<path class="st3" d="M261,234.9c-0.2-2.8-0.5-5.2-0.5-5.9v-5.6l-13.5,6.8l-0.4,0.4c-3.3,3.3-2.2,9.7-1,17.2
		c0.6,3.6,1.6,9.4,0.9,11.1c-5.9,2.8-44.2,2.8-51.5,0.2c-3.2-17-3.2-205.5,0-222.4c6.8-2.6,42.5-2.5,47.5,0.2
		c0.9,1.3,0.9,6.7,0.9,9.6c0,5.9,0,11.6,3,14.6c4.9,4.9,10,5.1,10.5,5.1h3.4v-3.4c0-2.2,0.4-6,0.7-10c1.4-15,2-25.2-1.7-28.9
		c-1.2-1.2-3.3-2.4-14.7-3.3c-6.6-0.5-15.2-0.8-24.2-0.8s-17.6,0.3-24.2,0.8c-11.4,0.9-13.5,2.1-14.7,3.3c-1.6,1.6-3.5,3.5-4.6,61.7
		c-0.5,26.8-0.5,54.5-0.5,62.4s0,35.6,0.5,62.4c1,58.1,3,60.1,4.6,61.7c1.2,1.2,5.1,5.1,38.9,5.1s37.7-3.8,38.9-5.1
		C262.8,268.7,263.1,259.7,261,234.9L261,234.9z"/>
	<path class="st4" d="M163,260.1l-1-2.4l-2.6,0.3c-5.7,0.7-29.9,1.7-55.6,2c-31.8,0.5-46.9-0.4-50.9-1.2
		c-2.1-8.3-3.2-59.1-3.2-106.8c0-2,0-30.4,0-58.8s0-56.8,0-58.8v-0.8l-0.4-0.7c-1.2-2.3-5.4-10-11.2-10h-1.4l-1,1
		c-2.6,2.6-4,11.5-1.5,108.7c0.2,9.8,0.4,16.8,0.4,19.4c0,114.9,3.2,118.1,5.1,120c1.5,1.5,5,5.1,59.2,5.1c3.1,0,17.8-0.1,32.4-0.5
		c27.8-0.7,29-1.8,30.2-3l0.6-0.5l0.3-0.7C162.8,271.7,165.3,265.6,163,260.1L163,260.1z"/>
	<path class="st1" d="M143.1,45.5c4.1,0.2,6.1,0.4,7,0.4c5.7,0,9.6-9.1,11.4-14.5l1.5-4.5h-4.8c-0.2,0-17.5,0-35.1,0.5
		c-36.9,1-39,3.2-40.4,4.6s-3.2,3.2-3.6,38.7c-0.2,19,0,41.1,0.1,55.8c0.1,5.9,0.1,10.6,0.1,13.3c0,91.6,3.3,94.9,5.1,96.7
		c1.1,1.1,3.5,3.5,29.4,3.5c2,0,4.1,0,6.3,0c1.2,0,30.4-0.4,35.4-2.7s3.5-10.7,2.6-14.2l-0.7-2.9l-3,0.3c-24.2,2.7-51.4,4.5-56.9,3
		c-1.9-6.6-3.1-44.7-3.2-80.3c8.8-0.4,32.1-1.3,38.3-1.8c1.6-0.1,3-1.1,3.7-2.6c1.7-3.5-0.4-9.6-2.1-12.1l-1.1-1.7l-2,0.2
		c-3.7,0.3-27.6,2.2-36.9,2.9c-0.7-37-0.3-76.4,1.6-83C99.9,43.6,115.7,43.8,143.1,45.5L143.1,45.5z"/>
	<path class="st3" d="M17.6,431.6v3.3c0,0.6,0.1,5.6,5.1,10.5l1.1,1.1l1.5-0.1c0.2,0,15.9-0.8,29-1.4c-0.5,11.6-0.2,33.5,1,75.6
		c0.4,14.6,0.8,27.1,0.8,34.1c0,1.6,0,4.8-0.1,9.2c-0.9,114.3,1.7,116.9,3.7,118.9l1,1h1.4c5.7,0,10-7.7,11.2-10l0.4-0.7v-0.8
		c0-2.1-0.6-29.7-1.3-58.9c-0.6-27.9-1.3-56.7-1.3-58.7c0-0.6-0.1-3-0.2-8.4c-2-61.5-2-89.8-1.4-101.9c2.9,0,7.6-0.1,13.3-0.1
		c50.8-0.4,53.6-1.1,55.4-2.9c4.9-4.9,5.1-10,5.1-10.5v-3.5L17.6,431.6z"/>
	<path class="st2" d="M122.9,676.3c0,0-0.4-25-0.8-49.9c-0.2-12.5-0.4-25-0.6-34.3c-0.1-4.7-0.2-8.6-0.2-11.3v-0.3
		c0-2.6,0.1-6.5,0.1-12.9c0.1-11.3,0.1-24.3,0.1-35.8c0-53.5-0.9-54.3-2.2-55.7c-4.9-4.9-10-5.1-10.5-5.1h-3.5l2.7,212.9h3.4
		c0.6,0,5.6-0.1,10.5-5.1l1-1V676.3z"/>
	<path class="st4" d="M243,572.7v-1.5h-0.1l-0.1-2.6l-3.9,0.7c-7.4,1.4-16.2,2.4-24.7,3.3c-10.7,1.2-20,2.2-24.5,3.9l-1.8,0.7
		l-0.4,1.9c-0.8,4,1.3,9.1,5.2,12.7l1,0.9h1.4c4.6,0,20-1.6,31.5-2.9c-0.4,6.7-0.4,17.4-0.3,34.6c0.1,15.5,0.2,36.6-1.1,41.1
		c-6.5,2.8-44.1,3.2-51.3,0.6c-3.3-17-4.6-204.8-1.5-221.6c6.7-2.6,42.5-2.9,47.5-0.2c0.9,1.2,1,6.7,1,9.6
		c0.1,5.9,0.1,11.6,3.2,14.6c5,4.9,10.1,5,10.6,5h3.4V470c0-2.2,0.3-6,0.6-10c1.2-15.1,1.8-25.2-2-28.9c-1.2-1.2-3.3-2.4-14.7-3.1
		c-6.6-0.4-15.2-0.6-24.2-0.5s-17.6,0.4-24.2,1c-11.4,1-13.5,2.2-14.7,3.4c-1.5,1.5-3.5,3.6-4.2,53.5c-0.4,27.5-0.2,54-0.2,54.3v1.2
		c0.3,33.6,0.8,57.8,1.2,72.2c1.5,62.5,3.4,64.3,5,66c1.2,1.2,4.8,4.7,34.8,4.7h4.1c33.9-0.3,37.6-4.2,38.9-5.5
		c1.5-1.5,3.5-3.5,4.3-52c0.2-15.9,0.3-31.4,0.3-40.8v-0.5C243.3,581,243.3,576.8,243,572.7L243,572.7z"/>
	<path class="st2" d="M428.1,658l-2.5,0.4c-21.4,3.4-46.6,6.1-51.8,4.9c-1.9-5.5-3-35.1-3.1-62.8c3.6,0,9.5-0.2,15.5-0.5
		c18.1-1,22.8-2.3,24-4.5c2.2-4.1,2.2-8.9,0-13l-1.1-1.2l-38.5,3.9c-1-20-1.1-42.1,0.5-46.4c3.4-1.3,17.4-1.1,41.5,0.5
		c4,0.3,5.9,0.4,6.8,0.4c5.7,0,9.6-9.1,11.4-14.5l1.5-4.5h-4.8c-0.2,0-16,0-32.1,0.5c-33.9,1.1-36,3.2-37.3,4.5
		c-3.2,3.2-3.8,14.4-2.6,54.1c0.2,7.1,0.4,13.2,0.4,17.2c0,74.2,3.2,77.4,5.1,79.3c2.7,2.7,14.1,4,33.9,4s31.2-1.4,33.9-4
		c5.6-5.6,1.2-15.1,0.6-16.1L428.1,658z"/>
	<path class="st1" d="M438,429.7c-1-1.6-2.7-2.1-6.1-2.6c-13-1.7-57-2.3-92.4-2.1c-75.1,0.3-77.6,2.7-78.9,4
		c-2.6,2.6-3.8,11.3,1,109.5c0.5,10.3,0.9,18.5,0.9,20.3c0,8,2.3,117.1,2.4,121.7l0.1,3.4h3.4c7.2,0,14.1-8.4,14.9-9.4l1-1.2
		l-0.3-1.5c-1.5-7.4-6.5-100-8.9-165.7c2.7,0.2,6.5,0.4,11.9,0.5l1.9,1.9c3.5,8.5,19.9,107.5,30.1,172.7l0.5,2.9
		c0,0,3.4,0.7,4.5,1.1c2.2,0.5,4.4,0.7,6.6,0.7c2.4,0,4.8-1,6.4-2.8l1-1v-1.4c0-2-4.4-23.7-17.5-87.8c-7.8-37.9-16.5-80.8-17.3-86.2
		c12.9-0.1,28.7-0.5,45.6-1.1c19.4-0.7,37.9-1.6,52.1-2.6c24.9-1.7,26.1-2.7,27.3-3.7c1-0.8,3.9-3.4,8.2-34.4
		C438.1,450.6,440,433.2,438,429.7L438,429.7z M274.1,442.2c15.2-3,130.2-3.1,145.8-0.1c0.7,7.9-1.9,38-4.5,43.4
		c-11.8,3.2-120.7,4.1-141,1.5C273.7,464.4,273.5,447.4,274.1,442.2L274.1,442.2z"/>
	<path class="st1" d="M230.6,384.3c-0.4-3.6-1.3-35.9-1.3-37.8v-42.4l-0.4-0.7c-0.7-1.4-2.7-4.8-5.9-4.8h-1.4l-1,1
		c-1.5,1.5-2.1,2.1-1.3,34.5c-1.9-0.5-4.3-1-7.4-1.5c-13.3-2.4-14.4-1.3-15.5-0.1s-2.4,2.4-2.4,20.1c0,33.8,1.2,35,2.4,36.2
		c0.7,0.7,1.7,1.7,7.8,1.7c2.7,0,6.3-0.2,11.4-0.7h0.2c2.1-0.4,3.9-0.7,5.3-1.1c0.1,1.1,0.9,2,1.9,2.4c0.6,0.3,1.2,0.4,1.9,0.4
		c1.5-0.1,2.9-0.7,3.9-1.8C230.1,388.4,231.2,386.4,230.6,384.3L230.6,384.3z M219.4,378.3c-4.9,1.2-9.8,2-14.8,2.3
		c-0.7-7.4-0.7-32.3,0-39.7c4.6,0.3,9.1,1.1,13.5,2.3C219.1,349.1,219.9,372.1,219.4,378.3L219.4,378.3z"/>
	<path class="st0" d="M274.9,338.3l-0.2-1l-0.7-0.7c-0.6-0.6-1.9-1.9-14.4-4.2c-13.3-2.4-14.5-1.2-15.6-0.1s-2.4,2.4-2.4,25.6
		c0,29.6,1.3,30.9,2.4,32.1c1.3,1.3,4.6,1.7,7.9,1.7c3.2,0,6.3-0.3,9.4-0.8c4.8-0.8,12.3-2.9,12.6-2.9l2.5-0.7v-2.6
		c0.1-3.4-2.6-6.2-6-6.3c-0.1,0-0.2,0-0.3,0h-1.4l-0.7,0.7c-2.3,0.9-11.9,2.5-16,2.6c-0.4-3-0.6-9.6-0.7-17.5
		c23.3-0.1,24.5-1.4,25.5-2.4l1-1v-1.4C277.8,353.3,275,338.9,274.9,338.3L274.9,338.3z M252,340.6c4.8,0.3,9.5,1.1,14.1,2.4
		c0.8,3.7,1.4,7.4,1.8,11.1c-3.3,0.4-10,0.5-16.6,0.5C251.4,348.3,251.6,343.1,252,340.6L252,340.6z"/>
</g>
</svg>
