<?xml version="1.0" encoding="utf-8"?>
<!-- Generator: Adobe Illustrator 22.1.0, SVG Export Plug-In . SVG Version: 6.00 Build 0)  -->
<svg version="1.1" id="Layer_1" xmlns="http://www.w3.org/2000/svg" xmlns:xlink="http://www.w3.org/1999/xlink" x="0px" y="0px"
	 viewBox="0 0 2170.3 107.5" style="enable-background:new 0 0 2170.3 107.5;" xml:space="preserve">
<style type="text/css">
	.st0{display:none;fill:#3B9BBC;}
	.st1{fill:#EC2024;}
	.st2{fill:#ECAD20;}
</style>
<rect x="-69" y="0" class="st0" width="2307.7" height="53.8"/>
<g>
	<path class="st1" d="M0.7,43.7c-0.8-0.2-1.5-0.6-2-1.2l-18.1-20.4L-33.8,4.5c-0.8-0.9-1.4-1.9-1.8-3c1.1-1.1,4.7-0.8,5.6,0.2
		l6.3,8.6L-5.1,32c0,0,4.7,5.2,5.5,5.4c0.2,0,4.1-4.6,7.5-8.7C16.4,18.6,29,2.6,29.6,1.9c2.2-2.4,4.9-2.2,6-1.4c0,0.7-1,1.8-1.8,2.8
		l-15,18.1L2.5,42.5C2.1,43,1.4,43.5,0.7,43.7z"/>
	<path class="st1" d="M1.4,64.1c0.8,0.2,1.5,0.6,2,1.2l18,20.4l14.4,17.6c0.8,0.9,1.4,1.9,1.9,3c-1.1,1.1-4.7,0.8-5.6-0.2l-6.3-8.7
		L7.1,75.7c0,0-4.8-5.2-5.5-5.4c-0.2,0-4.1,4.6-7.5,8.7c-8.4,10.1-21.1,26-21.7,26.8c-0.8,1-4.9,2.2-6,1.4c0-0.7,1-1.8,1.8-2.8
		l15-18.1l16.3-21.1C-0.1,64.8,0.6,64.3,1.4,64.1L1.4,64.1z"/>
	<path class="st1" d="M-81.4,43.7c-0.8-0.2-1.5-0.6-2-1.2l-18.1-20.4l-14.4-17.6c-0.8-0.9-1.4-1.9-1.8-3c1.1-1.1,4.7-0.8,5.6,0.2
		l6.3,8.6L-87.1,32c0,0,4.7,5.2,5.5,5.4c0.2,0,4.1-4.6,7.5-8.7C-65.7,18.6-53,2.6-52.4,1.9c2.2-2.4,4.9-2.2,6-1.4
		c0,0.7-1,1.8-1.8,2.8l-15,18.1l-16.3,21.1C-80,43-80.7,43.5-81.4,43.7z"/>
	<path class="st1" d="M-80.7,64.1c0.8,0.2,1.5,0.6,2,1.2l18,20.4l14.4,17.6c0.8,0.9,1.4,1.9,1.9,3c-1.1,1.1-4.7,0.8-5.6-0.2
		l-6.3-8.7L-75,75.7c0,0-4.8-5.2-5.5-5.4c-0.2,0-4.1,4.6-7.5,8.7c-8.4,10.1-21.1,26-21.7,26.8c-0.8,1-4.9,2.2-6,1.4
		c0-0.7,1-1.8,1.8-2.8l15-18.1l16.3-21.1C-82.1,64.8-81.5,64.3-80.7,64.1L-80.7,64.1z"/>
	<path class="st1" d="M84,43.7c-0.8-0.2-1.5-0.6-2-1.2L63.9,22.1L49.5,4.5c-0.8-0.9-1.4-1.9-1.8-3c1.1-1.1,4.7-0.8,5.6,0.2l6.3,8.6
		L78.3,32c0,0,4.7,5.2,5.5,5.4c0.2,0,4.1-4.6,7.5-8.7C99.7,18.6,112.4,2.6,113,1.9c2.2-2.4,4.9-2.2,6-1.4c0,0.7-1,1.8-1.8,2.8
		l-15,18.1L85.9,42.5C85.4,43,84.7,43.5,84,43.7z"/>
	<path class="st1" d="M84.7,64.1c0.8,0.2,1.5,0.6,2,1.2l18,20.4l14.4,17.6c0.8,0.9,1.4,1.9,1.9,3c-1.1,1.1-4.7,0.8-5.6-0.2l-6.3-8.7
		L90.4,75.7c0,0-4.8-5.2-5.5-5.4c-0.2,0-4.1,4.6-7.5,8.7c-8.4,10.1-21.1,26-21.7,26.8c-0.8,1-4.9,2.2-6,1.4c0-0.7,1-1.8,1.8-2.8
		l15-18.1l16.3-21.1C83.3,64.8,83.9,64.3,84.7,64.1L84.7,64.1z"/>
	<path class="st2" d="M42.6,17.7c-5.9,5.7-11.4,11.7-16.5,18.1c-4.4,5.5-8.3,11.3-11.8,17.4c1.9,2.6,7.7,9.5,14.7,17.4
		c7.8,8.9,13.1,14.4,15.5,16.6c1.8-2.1,5.1-6.5,8.1-10.4c2-2.6,4-5.4,6.1-8.1c2.7-3.5,5.3-6.8,7.7-9.7c2.1-2.6,4.3-5.4,5.4-6.9
		C68.1,46.2,48.4,22.6,42.6,17.7z M62.1,51.7c0,0.8,0,2-7.4,12.6S46,75.4,45.1,75.7c-0.3,0.1-0.6,0.1-0.9,0.1c-1,0-1.9-0.4-2.7-1
		c-2.6-1.9-7.7-7.4-10.5-10.5c-7.7-8.5-7.7-9.2-7.7-10.2C23.2,51,32.2,36.6,41.7,30l2.1-1.4l1.7,1.9C62.1,49.3,62.1,50.5,62.1,51.7
		L62.1,51.7z"/>
	<path class="st2" d="M-31.6,29.6c-3.3-4-6.9-8.5-8.8-10.4c-2,1.6-6.7,6.4-15.3,17.3c-6.5,8.1-11.5,15.2-13.3,17.9
		c4.1,5.5,23.3,27.7,29.4,34.1c5.9-6.7,24.3-29.4,28.1-35.1c-1.2-1.5-3.5-4.2-5.7-6.6c-2.4-2.8-5.2-6-8-9.4
		C-27.3,34.7-29.5,32.1-31.6,29.6L-31.6,29.6z M-37,76.3l-1.9,2.4l-2.2-2.2c-3.6-3.4-8.1-8.3-12.1-13.1c-6.7-7.9-6.7-9.1-6.7-10
		s0-1.7,7.3-10.5c2.7-3.2,7.5-8.9,10.1-10.9c1-0.9,2.3-1.3,3.6-1c0.9,0.3,2.2,0.6,10.1,11s7.8,11.5,7.8,12.3
		C-21.2,55.5-21.2,56.7-37,76.3L-37,76.3z"/>
	<path class="st1" d="M167.4,43.7c-0.8-0.2-1.5-0.6-2-1.2l-18.1-20.4L132.9,4.5c-0.8-0.9-1.4-1.9-1.8-3c1.1-1.1,4.7-0.8,5.6,0.2
		l6.3,8.6L161.7,32c0,0,4.7,5.2,5.5,5.4c0.2,0,4.1-4.6,7.5-8.7c8.4-10.1,21.1-26.1,21.7-26.8c2.2-2.4,4.9-2.2,6-1.4
		c0,0.7-1,1.8-1.8,2.8l-15,18.1l-16.3,21.1C168.8,43,168.1,43.5,167.4,43.7z"/>
	<path class="st1" d="M168.1,64.1c0.8,0.2,1.5,0.6,2,1.2l18,20.4l14.4,17.6c0.8,0.9,1.4,1.9,1.9,3c-1.1,1.1-4.7,0.8-5.6-0.2
		l-6.3-8.7l-18.7-21.7c0,0-4.8-5.2-5.5-5.4c-0.2,0-4.1,4.6-7.5,8.7c-8.4,10.1-21.1,26-21.7,26.8c-0.8,1-4.9,2.2-6,1.4
		c0-0.7,1-1.8,1.8-2.8l15-18.1l16.3-21.1C166.7,64.8,167.3,64.3,168.1,64.1L168.1,64.1z"/>
	<path class="st2" d="M135.1,29.6c-3.3-4-6.9-8.5-8.8-10.4c-2,1.6-6.7,6.4-15.3,17.3c-6.5,8.1-11.5,15.2-13.3,17.9
		c4.1,5.5,23.3,27.7,29.4,34.1c5.9-6.7,24.3-29.4,28.1-35.1c-1.2-1.5-3.5-4.2-5.7-6.6c-2.4-2.8-5.2-6-8-9.4
		C139.4,34.7,137.2,32.1,135.1,29.6L135.1,29.6z M129.7,76.3l-1.9,2.4l-2.2-2.2c-3.6-3.4-8.1-8.3-12.1-13.1c-6.7-7.9-6.7-9.1-6.7-10
		s0-1.7,7.3-10.5c2.7-3.2,7.5-8.9,10.1-10.9c1-0.9,2.3-1.3,3.6-1c0.9,0.3,2.2,0.6,10.1,11s7.8,11.5,7.8,12.3
		C145.5,55.5,145.5,56.7,129.7,76.3L129.7,76.3z"/>
</g>
<g>
	<path class="st1" d="M251,43.7c-0.8-0.2-1.5-0.6-2-1.2l-18.1-20.4L216.5,4.5c-0.8-0.9-1.4-1.9-1.8-3c1.1-1.1,4.7-0.8,5.6,0.2
		l6.3,8.6L245.3,32c0,0,4.7,5.2,5.5,5.4c0.2,0,4.1-4.6,7.5-8.7c8.4-10.1,21.1-26.1,21.7-26.8c2.2-2.4,4.9-2.2,6-1.4
		c0,0.7-1,1.8-1.8,2.8l-15,18.1l-16.3,21.1C252.4,43,251.7,43.5,251,43.7z"/>
	<path class="st1" d="M251.7,64.1c0.8,0.2,1.5,0.6,2,1.2l18,20.4l14.4,17.6c0.8,0.9,1.4,1.9,1.9,3c-1.1,1.1-4.7,0.8-5.6-0.2
		l-6.3-8.7l-18.7-21.7c0,0-4.8-5.2-5.5-5.4c-0.2,0-4.1,4.6-7.5,8.7c-8.4,10.1-21.1,26-21.7,26.8c-0.8,1-4.9,2.2-6,1.4
		c0-0.7,1-1.8,1.8-2.8l15-18.1l16.3-21.1C250.3,64.8,250.9,64.3,251.7,64.1L251.7,64.1z"/>
	<path class="st1" d="M334.4,43.7c-0.8-0.2-1.5-0.6-2-1.2l-18.1-20.4L299.9,4.5c-0.8-0.9-1.4-1.9-1.8-3c1.1-1.1,4.7-0.8,5.6,0.2
		l6.3,8.6L328.7,32c0,0,4.7,5.2,5.5,5.4c0.2,0,4.1-4.6,7.5-8.7c8.4-10.1,21.1-26.1,21.7-26.8c2.2-2.4,4.9-2.2,6-1.4
		c0,0.7-1,1.8-1.8,2.8l-15,18.1l-16.3,21.1C335.8,43,335.1,43.5,334.4,43.7z"/>
	<path class="st1" d="M335.1,64.1c0.8,0.2,1.5,0.6,2,1.2l18,20.4l14.4,17.6c0.8,0.9,1.4,1.9,1.9,3c-1.1,1.1-4.7,0.8-5.6-0.2
		l-6.3-8.7l-18.7-21.7c0,0-4.8-5.2-5.5-5.4c-0.2,0-4.1,4.6-7.5,8.7c-8.4,10.1-21.1,26-21.7,26.8c-0.8,1-4.9,2.2-6,1.4
		c0-0.7,1-1.8,1.8-2.8l15-18.1l16.3-21.1C333.7,64.8,334.3,64.3,335.1,64.1L335.1,64.1z"/>
	<path class="st2" d="M293,17.7c-5.9,5.7-11.4,11.7-16.5,18.1c-4.4,5.5-8.3,11.3-11.8,17.4c1.9,2.6,7.7,9.5,14.7,17.4
		c7.8,8.9,13.1,14.4,15.5,16.6c1.8-2.1,5.1-6.5,8.1-10.4c2-2.6,4-5.4,6.1-8.1c2.7-3.5,5.3-6.8,7.7-9.7c2.1-2.6,4.3-5.4,5.4-6.9
		C318.4,46.2,298.7,22.6,293,17.7z M312.4,51.7c0,0.8,0,2-7.4,12.6s-8.7,11.1-9.6,11.4c-0.3,0.1-0.6,0.1-0.9,0.1c-1,0-1.9-0.4-2.7-1
		c-2.6-1.9-7.7-7.4-10.5-10.5c-7.7-8.5-7.7-9.2-7.7-10.2C273.5,51,282.5,36.6,292,30l2.1-1.4l1.7,1.9
		C312.4,49.3,312.4,50.5,312.4,51.7L312.4,51.7z"/>
	<path class="st2" d="M218.7,29.6c-3.3-4-6.9-8.5-8.8-10.4c-2,1.6-6.7,6.4-15.3,17.3c-6.5,8.1-11.5,15.2-13.3,17.9
		c4.1,5.5,23.3,27.7,29.4,34.1c5.9-6.7,24.3-29.4,28.1-35.1c-1.2-1.5-3.5-4.2-5.7-6.6c-2.4-2.8-5.2-6-8-9.4
		C223,34.7,220.8,32.1,218.7,29.6L218.7,29.6z M213.3,76.3l-1.9,2.4l-2.2-2.2c-3.6-3.4-8.1-8.3-12.1-13.1c-6.7-7.9-6.7-9.1-6.7-10
		s0-1.7,7.3-10.5c2.7-3.2,7.5-8.9,10.1-10.9c1-0.9,2.3-1.3,3.6-1c0.9,0.3,2.2,0.6,10.1,11s7.8,11.5,7.8,12.3
		C229.1,55.5,229.1,56.7,213.3,76.3L213.3,76.3z"/>
	<path class="st1" d="M417.8,43.7c-0.8-0.2-1.5-0.6-2-1.2l-18.1-20.4L383.3,4.5c-0.8-0.9-1.4-1.9-1.8-3c1.1-1.1,4.7-0.8,5.6,0.2
		l6.3,8.6L412.1,32c0,0,4.7,5.2,5.5,5.4c0.2,0,4.1-4.6,7.5-8.7c8.4-10.1,21.1-26.1,21.7-26.8c2.2-2.4,4.9-2.2,6-1.4
		c0,0.7-1,1.8-1.8,2.8l-15,18.1l-16.3,21.1C419.2,43,418.5,43.5,417.8,43.7z"/>
	<path class="st1" d="M418.5,64.1c0.8,0.2,1.5,0.6,2,1.2l18,20.4l14.4,17.6c0.8,0.9,1.4,1.9,1.9,3c-1.1,1.1-4.7,0.8-5.6-0.2
		l-6.3-8.7l-18.7-21.7c0,0-4.8-5.2-5.5-5.4c-0.2,0-4.1,4.6-7.5,8.7c-8.4,10.1-21.1,26-21.7,26.8c-0.8,1-4.9,2.2-6,1.4
		c0-0.7,1-1.8,1.8-2.8l15-18.1l16.3-21.1C417.1,64.8,417.7,64.3,418.5,64.1L418.5,64.1z"/>
	<path class="st2" d="M385.5,29.6c-3.3-4-6.9-8.5-8.8-10.4c-2,1.6-6.7,6.4-15.3,17.3c-6.5,8.1-11.5,15.2-13.3,17.9
		c4.1,5.5,23.3,27.7,29.4,34.1c5.9-6.7,24.3-29.4,28.1-35.1c-1.2-1.5-3.5-4.2-5.7-6.6c-2.4-2.8-5.2-6-8-9.4
		C389.8,34.7,387.6,32.1,385.5,29.6L385.5,29.6z M380.1,76.3l-1.9,2.4l-2.2-2.2c-3.6-3.4-8.1-8.3-12.1-13.1c-6.7-7.9-6.7-9.1-6.7-10
		s0-1.7,7.3-10.5c2.7-3.2,7.5-8.9,10.1-10.9c1-0.9,2.3-1.3,3.6-1c0.9,0.3,2.2,0.6,10.1,11s7.8,11.5,7.8,12.3
		C395.9,55.5,395.9,56.7,380.1,76.3L380.1,76.3z"/>
</g>
<g>
	<path class="st1" d="M501.3,43.7c-0.8-0.2-1.5-0.6-2-1.2l-18.1-20.4L466.8,4.5c-0.8-0.9-1.4-1.9-1.8-3c1.1-1.1,4.7-0.8,5.6,0.2
		l6.3,8.6L495.6,32c0,0,4.7,5.2,5.5,5.4c0.2,0,4.1-4.6,7.5-8.7c8.4-10.1,21.1-26.1,21.7-26.8c2.2-2.4,4.9-2.2,6-1.4
		c0,0.7-1,1.8-1.8,2.8l-15,18.1l-16.3,21.1C502.7,43,502,43.5,501.3,43.7z"/>
	<path class="st1" d="M502,64.1c0.8,0.2,1.5,0.6,2,1.2l18,20.4l14.4,17.6c0.8,0.9,1.4,1.9,1.9,3c-1.1,1.1-4.7,0.8-5.6-0.2l-6.3-8.7
		l-18.7-21.7c0,0-4.8-5.2-5.5-5.4c-0.2,0-4.1,4.6-7.5,8.7c-8.4,10.1-21.1,26-21.7,26.8c-0.8,1-4.9,2.2-6,1.4c0-0.7,1-1.8,1.8-2.8
		l15-18.1l16.3-21.1C500.6,64.8,501.2,64.3,502,64.1L502,64.1z"/>
	<path class="st1" d="M584.7,43.7c-0.8-0.2-1.5-0.6-2-1.2l-18.1-20.4L550.2,4.5c-0.8-0.9-1.4-1.9-1.8-3c1.1-1.1,4.7-0.8,5.6,0.2
		l6.3,8.6L579,32c0,0,4.7,5.2,5.5,5.4c0.2,0,4.1-4.6,7.5-8.7c8.4-10.1,21.1-26.1,21.7-26.8c2.2-2.4,4.9-2.2,6-1.4
		c0,0.7-1,1.8-1.8,2.8l-15,18.1l-16.3,21.1C586.1,43,585.4,43.5,584.7,43.7z"/>
	<path class="st1" d="M585.4,64.1c0.8,0.2,1.5,0.6,2,1.2l18,20.4l14.4,17.6c0.8,0.9,1.4,1.9,1.9,3c-1.1,1.1-4.7,0.8-5.6-0.2
		l-6.3-8.7l-18.7-21.7c0,0-4.8-5.2-5.5-5.4c-0.2,0-4.1,4.6-7.5,8.7c-8.4,10.1-21.1,26-21.7,26.8c-0.8,1-4.9,2.2-6,1.4
		c0-0.7,1-1.8,1.8-2.8l15-18.1l16.3-21.1C584,64.8,584.6,64.3,585.4,64.1L585.4,64.1z"/>
	<path class="st2" d="M543.3,17.7c-5.9,5.7-11.4,11.7-16.5,18.1c-4.4,5.5-8.3,11.3-11.8,17.4c1.9,2.6,7.7,9.5,14.7,17.4
		c7.8,8.9,13.1,14.4,15.5,16.6c1.8-2.1,5.1-6.5,8.1-10.4c2-2.6,4-5.4,6.1-8.1c2.7-3.5,5.3-6.8,7.7-9.7c2.1-2.6,4.3-5.4,5.4-6.9
		C568.7,46.2,549,22.6,543.3,17.7z M562.7,51.7c0,0.8,0,2-7.4,12.6c-7.4,10.6-8.7,11.1-9.6,11.4c-0.3,0.1-0.6,0.1-0.9,0.1
		c-1,0-1.9-0.4-2.7-1c-2.6-1.9-7.7-7.4-10.5-10.5c-7.7-8.5-7.7-9.2-7.7-10.2c-0.1-3.1,8.9-17.5,18.4-24.1l2.1-1.4l1.7,1.9
		C562.7,49.3,562.7,50.5,562.7,51.7L562.7,51.7z"/>
	<path class="st2" d="M469,29.6c-3.3-4-6.9-8.5-8.8-10.4c-2,1.6-6.7,6.4-15.3,17.3c-6.5,8.1-11.5,15.2-13.3,17.9
		c4.1,5.5,23.3,27.7,29.4,34.1c5.9-6.7,24.3-29.4,28.1-35.1c-1.2-1.5-3.5-4.2-5.7-6.6c-2.4-2.8-5.2-6-8-9.4
		C473.3,34.7,471.1,32.1,469,29.6L469,29.6z M463.6,76.3l-1.9,2.4l-2.2-2.2c-3.6-3.4-8.1-8.3-12.1-13.1c-6.7-7.9-6.7-9.1-6.7-10
		s0-1.7,7.3-10.5c2.7-3.2,7.5-8.9,10.1-10.9c1-0.9,2.3-1.3,3.6-1c0.9,0.3,2.2,0.6,10.1,11s7.8,11.5,7.8,12.3
		C479.4,55.5,479.4,56.7,463.6,76.3L463.6,76.3z"/>
	<path class="st1" d="M668.1,43.7c-0.8-0.2-1.5-0.6-2-1.2L648,22.1L633.6,4.5c-0.8-0.9-1.4-1.9-1.8-3c1.1-1.1,4.7-0.8,5.6,0.2
		l6.3,8.6L662.4,32c0,0,4.7,5.2,5.5,5.4c0.2,0,4.1-4.6,7.5-8.7c8.4-10.1,21.1-26.1,21.7-26.8c2.2-2.4,4.9-2.2,6-1.4
		c0,0.7-1,1.8-1.8,2.8l-15,18.1L670,42.5C669.5,43,668.8,43.5,668.1,43.7z"/>
	<path class="st1" d="M668.8,64.1c0.8,0.2,1.5,0.6,2,1.2l18,20.4l14.4,17.6c0.8,0.9,1.4,1.9,1.9,3c-1.1,1.1-4.7,0.8-5.6-0.2
		l-6.3-8.7l-18.7-21.7c0,0-4.8-5.2-5.5-5.4c-0.2,0-4.1,4.6-7.5,8.7c-8.4,10.1-21.1,26-21.7,26.8c-0.8,1-4.9,2.2-6,1.4
		c0-0.7,1-1.8,1.8-2.8l15-18.1l16.3-21.1C667.4,64.8,668,64.3,668.8,64.1L668.8,64.1z"/>
	<path class="st2" d="M635.8,29.6c-3.3-4-6.9-8.5-8.8-10.4c-2,1.6-6.7,6.4-15.3,17.3c-6.5,8.1-11.5,15.2-13.3,17.9
		c4.1,5.5,23.3,27.7,29.4,34.1c5.9-6.7,24.3-29.4,28.1-35.1c-1.2-1.5-3.5-4.2-5.7-6.6c-2.4-2.8-5.2-6-8-9.4
		C640.1,34.7,637.9,32.1,635.8,29.6L635.8,29.6z M630.4,76.3l-1.9,2.4l-2.2-2.2c-3.6-3.4-8.1-8.3-12.1-13.1c-6.7-7.9-6.7-9.1-6.7-10
		s0-1.7,7.3-10.5c2.7-3.2,7.5-8.9,10.1-10.9c1-0.9,2.3-1.3,3.6-1c0.9,0.3,2.2,0.6,10.1,11c7.9,10.4,7.8,11.5,7.8,12.3
		C646.2,55.5,646.2,56.7,630.4,76.3L630.4,76.3z"/>
</g>
<g>
	<path class="st1" d="M751.6,43.7c-0.8-0.2-1.5-0.6-2-1.2l-18.1-20.4L717.1,4.5c-0.8-0.9-1.4-1.9-1.8-3c1.1-1.1,4.7-0.8,5.6,0.2
		l6.3,8.6L745.9,32c0,0,4.7,5.2,5.5,5.4c0.2,0,4.1-4.6,7.5-8.7c8.4-10.1,21.1-26.1,21.7-26.8c2.2-2.4,4.9-2.2,6-1.4
		c0,0.7-1,1.8-1.8,2.8l-15,18.1l-16.3,21.1C753,43,752.3,43.5,751.6,43.7z"/>
	<path class="st1" d="M752.3,64.1c0.8,0.2,1.5,0.6,2,1.2l18,20.4l14.4,17.6c0.8,0.9,1.4,1.9,1.9,3c-1.1,1.1-4.7,0.8-5.6-0.2
		l-6.3-8.7L758,75.7c0,0-4.8-5.2-5.5-5.4c-0.2,0-4.1,4.6-7.5,8.7c-8.4,10.1-21.1,26-21.7,26.8c-0.8,1-4.9,2.2-6,1.4
		c0-0.7,1-1.8,1.8-2.8l15-18.1l16.3-21.1C750.9,64.8,751.5,64.3,752.3,64.1L752.3,64.1z"/>
	<path class="st1" d="M835,43.7c-0.8-0.2-1.5-0.6-2-1.2l-18.1-20.4L800.5,4.5c-0.8-0.9-1.4-1.9-1.8-3c1.1-1.1,4.7-0.8,5.6,0.2
		l6.3,8.6L829.3,32c0,0,4.7,5.2,5.5,5.4c0.2,0,4.1-4.6,7.5-8.7c8.4-10.1,21.1-26.1,21.7-26.8c2.2-2.4,4.9-2.2,6-1.4
		c0,0.7-1,1.8-1.8,2.8l-15,18.1l-16.3,21.1C836.4,43,835.7,43.5,835,43.7z"/>
	<path class="st1" d="M835.7,64.1c0.8,0.2,1.5,0.6,2,1.2l18,20.4l14.4,17.6c0.8,0.9,1.4,1.9,1.9,3c-1.1,1.1-4.7,0.8-5.6-0.2
		l-6.3-8.7l-18.7-21.7c0,0-4.8-5.2-5.5-5.4c-0.2,0-4.1,4.6-7.5,8.7c-8.4,10.1-21.1,26-21.7,26.8c-0.8,1-4.9,2.2-6,1.4
		c0-0.7,1-1.8,1.8-2.8l15-18.1l16.3-21.1C834.3,64.8,834.9,64.3,835.7,64.1L835.7,64.1z"/>
	<path class="st2" d="M793.6,17.7c-5.9,5.7-11.4,11.7-16.5,18.1c-4.4,5.5-8.3,11.3-11.8,17.4c1.9,2.6,7.7,9.5,14.7,17.4
		c7.8,8.9,13.1,14.4,15.5,16.6c1.8-2.1,5.1-6.5,8.1-10.4c2-2.6,4-5.4,6.1-8.1c2.7-3.5,5.3-6.8,7.7-9.7c2.1-2.6,4.3-5.4,5.4-6.9
		C819,46.2,799.3,22.6,793.6,17.7z M813,51.7c0,0.8,0,2-7.4,12.6c-7.4,10.6-8.7,11.1-9.6,11.4c-0.3,0.1-0.6,0.1-0.9,0.1
		c-1,0-1.9-0.4-2.7-1c-2.6-1.9-7.7-7.4-10.5-10.5c-7.7-8.5-7.7-9.2-7.7-10.2c-0.1-3.1,8.9-17.5,18.4-24.1l2.1-1.4l1.7,1.9
		C813,49.3,813,50.5,813,51.7L813,51.7z"/>
	<path class="st2" d="M719.3,29.6c-3.3-4-6.9-8.5-8.8-10.4c-2,1.6-6.7,6.4-15.3,17.3c-6.5,8.1-11.5,15.2-13.3,17.9
		c4.1,5.5,23.3,27.7,29.4,34.1c5.9-6.7,24.3-29.4,28.1-35.1c-1.2-1.5-3.5-4.2-5.7-6.6c-2.4-2.8-5.2-6-8-9.4
		C723.6,34.7,721.4,32.1,719.3,29.6L719.3,29.6z M713.9,76.3l-1.9,2.4l-2.2-2.2c-3.6-3.4-8.1-8.3-12.1-13.1c-6.7-7.9-6.7-9.1-6.7-10
		s0-1.7,7.3-10.5c2.7-3.2,7.5-8.9,10.1-10.9c1-0.9,2.3-1.3,3.6-1c0.9,0.3,2.2,0.6,10.1,11c7.9,10.4,7.8,11.5,7.8,12.3
		C729.7,55.5,729.7,56.7,713.9,76.3L713.9,76.3z"/>
	<path class="st1" d="M918.4,43.7c-0.8-0.2-1.5-0.6-2-1.2l-18.1-20.4L883.9,4.5c-0.8-0.9-1.4-1.9-1.8-3c1.1-1.1,4.7-0.8,5.6,0.2
		l6.3,8.6L912.7,32c0,0,4.7,5.2,5.5,5.4c0.2,0,4.1-4.6,7.5-8.7c8.4-10.1,21.1-26.1,21.7-26.8c2.2-2.4,4.9-2.2,6-1.4
		c0,0.7-1,1.8-1.8,2.8l-15,18.1l-16.3,21.1C919.8,43,919.1,43.5,918.4,43.7z"/>
	<path class="st1" d="M919.1,64.1c0.8,0.2,1.5,0.6,2,1.2l18,20.4l14.4,17.6c0.8,0.9,1.4,1.9,1.9,3c-1.1,1.1-4.7,0.8-5.6-0.2
		l-6.3-8.7l-18.7-21.7c0,0-4.8-5.2-5.5-5.4c-0.2,0-4.1,4.6-7.5,8.7c-8.4,10.1-21.1,26-21.7,26.8c-0.8,1-4.9,2.2-6,1.4
		c0-0.7,1-1.8,1.8-2.8l15-18.1l16.3-21.1C917.7,64.8,918.3,64.3,919.1,64.1L919.1,64.1z"/>
	<path class="st2" d="M886.1,29.6c-3.3-4-6.9-8.5-8.8-10.4c-2,1.6-6.7,6.4-15.3,17.3c-6.5,8.1-11.5,15.2-13.3,17.9
		c4.1,5.5,23.3,27.7,29.4,34.1c5.9-6.7,24.3-29.4,28.1-35.1c-1.2-1.5-3.5-4.2-5.7-6.6c-2.4-2.8-5.2-6-8-9.4
		C890.4,34.7,888.2,32.1,886.1,29.6L886.1,29.6z M880.7,76.3l-1.9,2.4l-2.2-2.2c-3.6-3.4-8.1-8.3-12.1-13.1c-6.7-7.9-6.7-9.1-6.7-10
		s0-1.7,7.3-10.5c2.7-3.2,7.5-8.9,10.1-10.9c1-0.9,2.3-1.3,3.6-1c0.9,0.3,2.2,0.6,10.1,11c7.9,10.4,7.8,11.5,7.8,12.3
		C896.5,55.5,896.5,56.7,880.7,76.3L880.7,76.3z"/>
</g>
<g>
	<path class="st1" d="M1001.9,43.7c-0.8-0.2-1.5-0.6-2-1.2l-18.1-20.4L967.4,4.5c-0.8-0.9-1.4-1.9-1.8-3c1.1-1.1,4.7-0.8,5.6,0.2
		l6.3,8.6L996.2,32c0,0,4.7,5.2,5.5,5.4c0.2,0,4.1-4.6,7.5-8.7c8.4-10.1,21.1-26.1,21.7-26.8c2.2-2.4,4.9-2.2,6-1.4
		c0,0.7-1,1.8-1.8,2.8l-15,18.1l-16.3,21.1C1003.3,43,1002.6,43.5,1001.9,43.7z"/>
	<path class="st1" d="M1002.6,64.1c0.8,0.2,1.5,0.6,2,1.2l18,20.4l14.4,17.6c0.8,0.9,1.4,1.9,1.9,3c-1.1,1.1-4.7,0.8-5.6-0.2
		l-6.3-8.7l-18.7-21.7c0,0-4.8-5.2-5.5-5.4c-0.2,0-4.1,4.6-7.5,8.7c-8.4,10.1-21.1,26-21.7,26.8c-0.8,1-4.9,2.2-6,1.4
		c0-0.7,1-1.8,1.8-2.8l15-18.1l16.3-21.1C1001.2,64.8,1001.8,64.3,1002.6,64.1L1002.6,64.1z"/>
	<path class="st1" d="M1085.3,43.7c-0.8-0.2-1.5-0.6-2-1.2l-18.1-20.4l-14.4-17.6c-0.8-0.9-1.4-1.9-1.8-3c1.1-1.1,4.7-0.8,5.6,0.2
		l6.3,8.6l18.7,21.7c0,0,4.7,5.2,5.5,5.4c0.2,0,4.1-4.6,7.5-8.7c8.4-10.1,21.1-26.1,21.7-26.8c2.2-2.4,4.9-2.2,6-1.4
		c0,0.7-1,1.8-1.8,2.8l-15,18.1l-16.3,21.1C1086.7,43,1086,43.5,1085.3,43.7z"/>
	<path class="st1" d="M1086,64.1c0.8,0.2,1.5,0.6,2,1.2l18,20.4l14.4,17.6c0.8,0.9,1.4,1.9,1.9,3c-1.1,1.1-4.7,0.8-5.6-0.2l-6.3-8.7
		l-18.7-21.7c0,0-4.8-5.2-5.5-5.4c-0.2,0-4.1,4.6-7.5,8.7c-8.4,10.1-21.1,26-21.7,26.8c-0.8,1-4.9,2.2-6,1.4c0-0.7,1-1.8,1.8-2.8
		l15-18.1l16.3-21.1C1084.6,64.8,1085.2,64.3,1086,64.1L1086,64.1z"/>
	<path class="st2" d="M1043.9,17.7c-5.9,5.7-11.4,11.7-16.5,18.1c-4.4,5.5-8.3,11.3-11.8,17.4c1.9,2.6,7.7,9.5,14.7,17.4
		c7.8,8.9,13.1,14.4,15.5,16.6c1.8-2.1,5.1-6.5,8.1-10.4c2-2.6,4-5.4,6.1-8.1c2.7-3.5,5.3-6.8,7.7-9.7c2.1-2.6,4.3-5.4,5.4-6.9
		C1069.3,46.2,1049.6,22.6,1043.9,17.7z M1063.3,51.7c0,0.8,0,2-7.4,12.6s-8.7,11.1-9.6,11.4c-0.3,0.1-0.6,0.1-0.9,0.1
		c-1,0-1.9-0.4-2.7-1c-2.6-1.9-7.7-7.4-10.5-10.5c-7.7-8.5-7.7-9.2-7.7-10.2c-0.1-3.1,8.9-17.5,18.4-24.1l2.1-1.4l1.7,1.9
		C1063.3,49.3,1063.3,50.5,1063.3,51.7L1063.3,51.7z"/>
	<path class="st2" d="M969.6,29.6c-3.3-4-6.9-8.5-8.8-10.4c-2,1.6-6.7,6.4-15.3,17.3c-6.5,8.1-11.5,15.2-13.3,17.9
		c4.1,5.5,23.3,27.7,29.4,34.1c5.9-6.7,24.3-29.4,28.1-35.1c-1.2-1.5-3.5-4.2-5.7-6.6c-2.4-2.8-5.2-6-8-9.4
		C973.9,34.7,971.7,32.1,969.6,29.6L969.6,29.6z M964.2,76.3l-1.9,2.4l-2.2-2.2c-3.6-3.4-8.1-8.3-12.1-13.1c-6.7-7.9-6.7-9.1-6.7-10
		s0-1.7,7.3-10.5c2.7-3.2,7.5-8.9,10.1-10.9c1-0.9,2.3-1.3,3.6-1c0.9,0.3,2.2,0.6,10.1,11c7.9,10.4,7.8,11.5,7.8,12.3
		C980,55.5,980,56.7,964.2,76.3L964.2,76.3z"/>
	<path class="st1" d="M1168.7,43.7c-0.8-0.2-1.5-0.6-2-1.2l-18.1-20.4l-14.4-17.6c-0.8-0.9-1.4-1.9-1.8-3c1.1-1.1,4.7-0.8,5.6,0.2
		l6.3,8.6L1163,32c0,0,4.7,5.2,5.5,5.4c0.2,0,4.1-4.6,7.5-8.7c8.4-10.1,21.1-26.1,21.7-26.8c2.2-2.4,4.9-2.2,6-1.4
		c0,0.7-1,1.8-1.8,2.8l-15,18.1l-16.3,21.1C1170.1,43,1169.4,43.5,1168.7,43.7z"/>
	<path class="st1" d="M1169.4,64.1c0.8,0.2,1.5,0.6,2,1.2l18,20.4l14.4,17.6c0.8,0.9,1.4,1.9,1.9,3c-1.1,1.1-4.7,0.8-5.6-0.2
		l-6.3-8.7l-18.7-21.7c0,0-4.8-5.2-5.5-5.4c-0.2,0-4.1,4.6-7.5,8.7c-8.4,10.1-21.1,26-21.7,26.8c-0.8,1-4.9,2.2-6,1.4
		c0-0.7,1-1.8,1.8-2.8l15-18.1l16.3-21.1C1168,64.8,1168.6,64.3,1169.4,64.1L1169.4,64.1z"/>
	<path class="st2" d="M1136.4,29.6c-3.3-4-6.9-8.5-8.8-10.4c-2,1.6-6.7,6.4-15.3,17.3c-6.5,8.1-11.5,15.2-13.3,17.9
		c4.1,5.5,23.3,27.7,29.4,34.1c5.9-6.7,24.3-29.4,28.1-35.1c-1.2-1.5-3.5-4.2-5.7-6.6c-2.4-2.8-5.2-6-8-9.4
		C1140.7,34.7,1138.5,32.1,1136.4,29.6L1136.4,29.6z M1131,76.3l-1.9,2.4l-2.2-2.2c-3.6-3.4-8.1-8.3-12.1-13.1
		c-6.7-7.9-6.7-9.1-6.7-10s0-1.7,7.3-10.5c2.7-3.2,7.5-8.9,10.1-10.9c1-0.9,2.3-1.3,3.6-1c0.9,0.3,2.2,0.6,10.1,11
		s7.8,11.5,7.8,12.3C1146.8,55.5,1146.8,56.7,1131,76.3L1131,76.3z"/>
</g>
<g>
	<path class="st1" d="M1252.2,43.7c-0.8-0.2-1.5-0.6-2-1.2l-18.1-20.4l-14.4-17.6c-0.8-0.9-1.4-1.9-1.8-3c1.1-1.1,4.7-0.8,5.6,0.2
		l6.3,8.6l18.7,21.7c0,0,4.7,5.2,5.5,5.4c0.2,0,4.1-4.6,7.5-8.7c8.4-10.1,21.1-26.1,21.7-26.8c2.2-2.4,4.9-2.2,6-1.4
		c0,0.7-1,1.8-1.8,2.8l-15,18.1l-16.3,21.1C1253.6,43,1252.9,43.5,1252.2,43.7z"/>
	<path class="st1" d="M1252.9,64.1c0.8,0.2,1.5,0.6,2,1.2l18,20.4l14.4,17.6c0.8,0.9,1.4,1.9,1.9,3c-1.1,1.1-4.7,0.8-5.6-0.2
		l-6.3-8.7l-18.7-21.7c0,0-4.8-5.2-5.5-5.4c-0.2,0-4.1,4.6-7.5,8.7c-8.4,10.1-21.1,26-21.7,26.8c-0.8,1-4.9,2.2-6,1.4
		c0-0.7,1-1.8,1.8-2.8l15-18.1l16.3-21.1C1251.5,64.8,1252.1,64.3,1252.9,64.1L1252.9,64.1z"/>
	<path class="st1" d="M1335.6,43.7c-0.8-0.2-1.5-0.6-2-1.2l-18.1-20.4l-14.4-17.6c-0.8-0.9-1.4-1.9-1.8-3c1.1-1.1,4.7-0.8,5.6,0.2
		l6.3,8.6l18.7,21.7c0,0,4.7,5.2,5.5,5.4c0.2,0,4.1-4.6,7.5-8.7c8.4-10.1,21.1-26.1,21.7-26.8c2.2-2.4,4.9-2.2,6-1.4
		c0,0.7-1,1.8-1.8,2.8l-15,18.1l-16.3,21.1C1337,43,1336.3,43.5,1335.6,43.7z"/>
	<path class="st1" d="M1336.3,64.1c0.8,0.2,1.5,0.6,2,1.2l18,20.4l14.4,17.6c0.8,0.9,1.4,1.9,1.9,3c-1.1,1.1-4.7,0.8-5.6-0.2
		l-6.3-8.7L1342,75.7c0,0-4.8-5.2-5.5-5.4c-0.2,0-4.1,4.6-7.5,8.7c-8.4,10.1-21.1,26-21.7,26.8c-0.8,1-4.9,2.2-6,1.4
		c0-0.7,1-1.8,1.8-2.8l15-18.1l16.3-21.1C1334.9,64.8,1335.5,64.3,1336.3,64.1L1336.3,64.1z"/>
	<path class="st2" d="M1294.2,17.7c-5.9,5.7-11.4,11.7-16.5,18.1c-4.4,5.5-8.3,11.3-11.8,17.4c1.9,2.6,7.7,9.5,14.7,17.4
		c7.8,8.9,13.1,14.4,15.5,16.6c1.8-2.1,5.1-6.5,8.1-10.4c2-2.6,4-5.4,6.1-8.1c2.7-3.5,5.3-6.8,7.7-9.7c2.1-2.6,4.3-5.4,5.4-6.9
		C1319.6,46.2,1299.9,22.6,1294.2,17.7z M1313.6,51.7c0,0.8,0,2-7.4,12.6s-8.7,11.1-9.6,11.4c-0.3,0.1-0.6,0.1-0.9,0.1
		c-1,0-1.9-0.4-2.7-1c-2.6-1.9-7.7-7.4-10.5-10.5c-7.7-8.5-7.7-9.2-7.7-10.2c-0.1-3.1,8.9-17.5,18.4-24.1l2.1-1.4l1.7,1.9
		C1313.6,49.3,1313.6,50.5,1313.6,51.7L1313.6,51.7z"/>
	<path class="st2" d="M1219.9,29.6c-3.3-4-6.9-8.5-8.8-10.4c-2,1.6-6.7,6.4-15.3,17.3c-6.5,8.1-11.5,15.2-13.3,17.9
		c4.1,5.5,23.3,27.7,29.4,34.1c5.9-6.7,24.3-29.4,28.1-35.1c-1.2-1.5-3.5-4.2-5.7-6.6c-2.4-2.8-5.2-6-8-9.4
		C1224.2,34.7,1222,32.1,1219.9,29.6L1219.9,29.6z M1214.5,76.3l-1.9,2.4l-2.2-2.2c-3.6-3.4-8.1-8.3-12.1-13.1
		c-6.7-7.9-6.7-9.1-6.7-10s0-1.7,7.3-10.5c2.7-3.2,7.5-8.9,10.1-10.9c1-0.9,2.3-1.3,3.6-1c0.9,0.3,2.2,0.6,10.1,11
		s7.8,11.5,7.8,12.3C1230.3,55.5,1230.3,56.7,1214.5,76.3L1214.5,76.3z"/>
	<path class="st1" d="M1419,43.7c-0.8-0.2-1.5-0.6-2-1.2l-18.1-20.4l-14.4-17.6c-0.8-0.9-1.4-1.9-1.8-3c1.1-1.1,4.7-0.8,5.6,0.2
		l6.3,8.6l18.7,21.7c0,0,4.7,5.2,5.5,5.4c0.2,0,4.1-4.6,7.5-8.7c8.4-10.1,21.1-26.1,21.7-26.8c2.2-2.4,4.9-2.2,6-1.4
		c0,0.7-1,1.8-1.8,2.8l-15,18.1l-16.3,21.1C1420.4,43,1419.7,43.5,1419,43.7z"/>
	<path class="st1" d="M1419.7,64.1c0.8,0.2,1.5,0.6,2,1.2l18,20.4l14.4,17.6c0.8,0.9,1.4,1.9,1.9,3c-1.1,1.1-4.7,0.8-5.6-0.2
		l-6.3-8.7l-18.7-21.7c0,0-4.8-5.2-5.5-5.4c-0.2,0-4.1,4.6-7.5,8.7c-8.4,10.1-21.1,26-21.7,26.8c-0.8,1-4.9,2.2-6,1.4
		c0-0.7,1-1.8,1.8-2.8l15-18.1l16.3-21.1C1418.3,64.8,1418.9,64.3,1419.7,64.1L1419.7,64.1z"/>
	<path class="st2" d="M1386.7,29.6c-3.3-4-6.9-8.5-8.8-10.4c-2,1.6-6.7,6.4-15.3,17.3c-6.5,8.1-11.5,15.2-13.3,17.9
		c4.1,5.5,23.3,27.7,29.4,34.1c5.9-6.7,24.3-29.4,28.1-35.1c-1.2-1.5-3.5-4.2-5.7-6.6c-2.4-2.8-5.2-6-8-9.4
		C1391,34.7,1388.8,32.1,1386.7,29.6L1386.7,29.6z M1381.3,76.3l-1.9,2.4l-2.2-2.2c-3.6-3.4-8.1-8.3-12.1-13.1
		c-6.7-7.9-6.7-9.1-6.7-10s0-1.7,7.3-10.5c2.7-3.2,7.5-8.9,10.1-10.9c1-0.9,2.3-1.3,3.6-1c0.9,0.3,2.2,0.6,10.1,11
		s7.8,11.5,7.8,12.3C1397.1,55.5,1397.1,56.7,1381.3,76.3L1381.3,76.3z"/>
</g>
<g>
	<path class="st1" d="M1502.5,43.7c-0.8-0.2-1.5-0.6-2-1.2l-18.1-20.4L1468,4.5c-0.8-0.9-1.4-1.9-1.8-3c1.1-1.1,4.7-0.8,5.6,0.2
		l6.3,8.6l18.7,21.7c0,0,4.7,5.2,5.5,5.4c0.2,0,4.1-4.6,7.5-8.7c8.4-10.1,21.1-26.1,21.7-26.8c2.2-2.4,4.9-2.2,6-1.4
		c0,0.7-1,1.8-1.8,2.8l-15,18.1l-16.3,21.1C1503.9,43,1503.2,43.5,1502.5,43.7z"/>
	<path class="st1" d="M1503.2,64.1c0.8,0.2,1.5,0.6,2,1.2l18,20.4l14.4,17.6c0.8,0.9,1.4,1.9,1.9,3c-1.1,1.1-4.7,0.8-5.6-0.2
		l-6.3-8.7l-18.7-21.7c0,0-4.8-5.2-5.5-5.4c-0.2,0-4.1,4.6-7.5,8.7c-8.4,10.1-21.1,26-21.7,26.8c-0.8,1-4.9,2.2-6,1.4
		c0-0.7,1-1.8,1.8-2.8l15-18.1l16.3-21.1C1501.8,64.8,1502.4,64.3,1503.2,64.1L1503.2,64.1z"/>
	<path class="st1" d="M1585.9,43.7c-0.8-0.2-1.5-0.6-2-1.2l-18.1-20.4l-14.4-17.6c-0.8-0.9-1.4-1.9-1.8-3c1.1-1.1,4.7-0.8,5.6,0.2
		l6.3,8.6l18.7,21.7c0,0,4.7,5.2,5.5,5.4c0.2,0,4.1-4.6,7.5-8.7c8.4-10.1,21.1-26.1,21.7-26.8c2.2-2.4,4.9-2.2,6-1.4
		c0,0.7-1,1.8-1.8,2.8l-15,18.1l-16.3,21.1C1587.3,43,1586.6,43.5,1585.9,43.7z"/>
	<path class="st1" d="M1586.6,64.1c0.8,0.2,1.5,0.6,2,1.2l18,20.4l14.4,17.6c0.8,0.9,1.4,1.9,1.9,3c-1.1,1.1-4.7,0.8-5.6-0.2
		l-6.3-8.7l-18.7-21.7c0,0-4.8-5.2-5.5-5.4c-0.2,0-4.1,4.6-7.5,8.7c-8.4,10.1-21.1,26-21.7,26.8c-0.8,1-4.9,2.2-6,1.4
		c0-0.7,1-1.8,1.8-2.8l15-18.1l16.3-21.1C1585.2,64.8,1585.8,64.3,1586.6,64.1L1586.6,64.1z"/>
	<path class="st2" d="M1544.5,17.7c-5.9,5.7-11.4,11.7-16.5,18.1c-4.4,5.5-8.3,11.3-11.8,17.4c1.9,2.6,7.7,9.5,14.7,17.4
		c7.8,8.9,13.1,14.4,15.5,16.6c1.8-2.1,5.1-6.5,8.1-10.4c2-2.6,4-5.4,6.1-8.1c2.7-3.5,5.3-6.8,7.7-9.7c2.1-2.6,4.3-5.4,5.4-6.9
		C1569.9,46.2,1550.2,22.6,1544.5,17.7z M1563.9,51.7c0,0.8,0,2-7.4,12.6s-8.7,11.1-9.6,11.4c-0.3,0.1-0.6,0.1-0.9,0.1
		c-1,0-1.9-0.4-2.7-1c-2.6-1.9-7.7-7.4-10.5-10.5c-7.7-8.5-7.7-9.2-7.7-10.2c-0.1-3.1,8.9-17.5,18.4-24.1l2.1-1.4l1.7,1.9
		C1563.9,49.3,1563.9,50.5,1563.9,51.7L1563.9,51.7z"/>
	<path class="st2" d="M1470.2,29.6c-3.3-4-6.9-8.5-8.8-10.4c-2,1.6-6.7,6.4-15.3,17.3c-6.5,8.1-11.5,15.2-13.3,17.9
		c4.1,5.5,23.3,27.7,29.4,34.1c5.9-6.7,24.3-29.4,28.1-35.1c-1.2-1.5-3.5-4.2-5.7-6.6c-2.4-2.8-5.2-6-8-9.4
		C1474.5,34.7,1472.3,32.1,1470.2,29.6L1470.2,29.6z M1464.8,76.3l-1.9,2.4l-2.2-2.2c-3.6-3.4-8.1-8.3-12.1-13.1
		c-6.7-7.9-6.7-9.1-6.7-10s0-1.7,7.3-10.5c2.7-3.2,7.5-8.9,10.1-10.9c1-0.9,2.3-1.3,3.6-1c0.9,0.3,2.2,0.6,10.1,11
		s7.8,11.5,7.8,12.3C1480.6,55.5,1480.6,56.7,1464.8,76.3L1464.8,76.3z"/>
	<path class="st1" d="M1669.3,43.7c-0.8-0.2-1.5-0.6-2-1.2l-18.1-20.4l-14.4-17.6c-0.8-0.9-1.4-1.9-1.8-3c1.1-1.1,4.7-0.8,5.6,0.2
		l6.3,8.6l18.7,21.7c0,0,4.7,5.2,5.5,5.4c0.2,0,4.1-4.6,7.5-8.7c8.4-10.1,21.1-26.1,21.7-26.8c2.2-2.4,4.9-2.2,6-1.4
		c0,0.7-1,1.8-1.8,2.8l-15,18.1l-16.3,21.1C1670.7,43,1670,43.5,1669.3,43.7z"/>
	<path class="st1" d="M1670,64.1c0.8,0.2,1.5,0.6,2,1.2l18,20.4l14.4,17.6c0.8,0.9,1.4,1.9,1.9,3c-1.1,1.1-4.7,0.8-5.6-0.2l-6.3-8.7
		l-18.7-21.7c0,0-4.8-5.2-5.5-5.4c-0.2,0-4.1,4.6-7.5,8.7c-8.4,10.1-21.1,26-21.7,26.8c-0.8,1-4.9,2.2-6,1.4c0-0.7,1-1.8,1.8-2.8
		l15-18.1l16.3-21.1C1668.6,64.8,1669.2,64.3,1670,64.1L1670,64.1z"/>
	<path class="st2" d="M1637,29.6c-3.3-4-6.9-8.5-8.8-10.4c-2,1.6-6.7,6.4-15.3,17.3c-6.5,8.1-11.5,15.2-13.3,17.9
		c4.1,5.5,23.3,27.7,29.4,34.1c5.9-6.7,24.3-29.4,28.1-35.1c-1.2-1.5-3.5-4.2-5.7-6.6c-2.4-2.8-5.2-6-8-9.4
		C1641.3,34.7,1639.1,32.1,1637,29.6L1637,29.6z M1631.6,76.3l-1.9,2.4l-2.2-2.2c-3.6-3.4-8.1-8.3-12.1-13.1
		c-6.7-7.9-6.7-9.1-6.7-10s0-1.7,7.3-10.5c2.7-3.2,7.5-8.9,10.1-10.9c1-0.9,2.3-1.3,3.6-1c0.9,0.3,2.2,0.6,10.1,11
		s7.8,11.5,7.8,12.3C1647.4,55.5,1647.4,56.7,1631.6,76.3L1631.6,76.3z"/>
</g>
<g>
	<path class="st1" d="M1752.8,43.7c-0.8-0.2-1.5-0.6-2-1.2l-18.1-20.4l-14.4-17.6c-0.8-0.9-1.4-1.9-1.8-3c1.1-1.1,4.7-0.8,5.6,0.2
		l6.3,8.6l18.7,21.7c0,0,4.7,5.2,5.5,5.4c0.2,0,4.1-4.6,7.5-8.7c8.4-10.1,21.1-26.1,21.7-26.8c2.2-2.4,4.9-2.2,6-1.4
		c0,0.7-1,1.8-1.8,2.8l-15,18.1l-16.3,21.1C1754.2,43,1753.5,43.5,1752.8,43.7z"/>
	<path class="st1" d="M1753.5,64.1c0.8,0.2,1.5,0.6,2,1.2l18,20.4l14.4,17.6c0.8,0.9,1.4,1.9,1.9,3c-1.1,1.1-4.7,0.8-5.6-0.2
		l-6.3-8.7l-18.7-21.7c0,0-4.8-5.2-5.5-5.4c-0.2,0-4.1,4.6-7.5,8.7c-8.4,10.1-21.1,26-21.7,26.8c-0.8,1-4.9,2.2-6,1.4
		c0-0.7,1-1.8,1.8-2.8l15-18.1l16.3-21.1C1752.1,64.8,1752.7,64.3,1753.5,64.1L1753.5,64.1z"/>
	<path class="st1" d="M1836.2,43.7c-0.8-0.2-1.5-0.6-2-1.2l-18.1-20.4l-14.4-17.6c-0.8-0.9-1.4-1.9-1.8-3c1.1-1.1,4.7-0.8,5.6,0.2
		l6.3,8.6l18.7,21.7c0,0,4.7,5.2,5.5,5.4c0.2,0,4.1-4.6,7.5-8.7c8.4-10.1,21.1-26.1,21.7-26.8c2.2-2.4,4.9-2.2,6-1.4
		c0,0.7-1,1.8-1.8,2.8l-15,18.1l-16.3,21.1C1837.6,43,1836.9,43.5,1836.2,43.7z"/>
	<path class="st1" d="M1836.9,64.1c0.8,0.2,1.5,0.6,2,1.2l18,20.4l14.4,17.6c0.8,0.9,1.4,1.9,1.9,3c-1.1,1.1-4.7,0.8-5.6-0.2
		l-6.3-8.7l-18.7-21.7c0,0-4.8-5.2-5.5-5.4c-0.2,0-4.1,4.6-7.5,8.7c-8.4,10.1-21.1,26-21.7,26.8c-0.8,1-4.9,2.2-6,1.4
		c0-0.7,1-1.8,1.8-2.8l15-18.1l16.3-21.1C1835.5,64.8,1836.1,64.3,1836.9,64.1L1836.9,64.1z"/>
	<path class="st2" d="M1794.8,17.7c-5.9,5.7-11.4,11.7-16.5,18.1c-4.4,5.5-8.3,11.3-11.8,17.4c1.9,2.6,7.7,9.5,14.7,17.4
		c7.8,8.9,13.1,14.4,15.5,16.6c1.8-2.1,5.1-6.5,8.1-10.4c2-2.6,4-5.4,6.1-8.1c2.7-3.5,5.3-6.8,7.7-9.7c2.1-2.6,4.3-5.4,5.4-6.9
		C1820.2,46.2,1800.5,22.6,1794.8,17.7z M1814.2,51.7c0,0.8,0,2-7.4,12.6s-8.7,11.1-9.6,11.4c-0.3,0.1-0.6,0.1-0.9,0.1
		c-1,0-1.9-0.4-2.7-1c-2.6-1.9-7.7-7.4-10.5-10.5c-7.7-8.5-7.7-9.2-7.7-10.2c-0.1-3.1,8.9-17.5,18.4-24.1l2.1-1.4l1.7,1.9
		C1814.2,49.3,1814.2,50.5,1814.2,51.7L1814.2,51.7z"/>
	<path class="st2" d="M1720.5,29.6c-3.3-4-6.9-8.5-8.8-10.4c-2,1.6-6.7,6.4-15.3,17.3c-6.5,8.1-11.5,15.2-13.3,17.9
		c4.1,5.5,23.3,27.7,29.4,34.1c5.9-6.7,24.3-29.4,28.1-35.1c-1.2-1.5-3.5-4.2-5.7-6.6c-2.4-2.8-5.2-6-8-9.4
		C1724.8,34.7,1722.6,32.1,1720.5,29.6L1720.5,29.6z M1715.1,76.3l-1.9,2.4l-2.2-2.2c-3.6-3.4-8.1-8.3-12.1-13.1
		c-6.7-7.9-6.7-9.1-6.7-10s0-1.7,7.3-10.5c2.7-3.2,7.5-8.9,10.1-10.9c1-0.9,2.3-1.3,3.6-1c0.9,0.3,2.2,0.6,10.1,11
		s7.8,11.5,7.8,12.3C1730.9,55.5,1730.9,56.7,1715.1,76.3L1715.1,76.3z"/>
	<path class="st1" d="M1919.6,43.7c-0.8-0.2-1.5-0.6-2-1.2l-18.1-20.4l-14.4-17.6c-0.8-0.9-1.4-1.9-1.8-3c1.1-1.1,4.7-0.8,5.6,0.2
		l6.3,8.6l18.7,21.7c0,0,4.7,5.2,5.5,5.4c0.2,0,4.1-4.6,7.5-8.7c8.4-10.1,21.1-26.1,21.7-26.8c2.2-2.4,4.9-2.2,6-1.4
		c0,0.7-1,1.8-1.8,2.8l-15,18.1l-16.3,21.1C1921,43,1920.3,43.5,1919.6,43.7z"/>
	<path class="st1" d="M1920.3,64.1c0.8,0.2,1.5,0.6,2,1.2l18,20.4l14.4,17.6c0.8,0.9,1.4,1.9,1.9,3c-1.1,1.1-4.7,0.8-5.6-0.2
		l-6.3-8.7L1926,75.7c0,0-4.8-5.2-5.5-5.4c-0.2,0-4.1,4.6-7.5,8.7c-8.4,10.1-21.1,26-21.7,26.8c-0.8,1-4.9,2.2-6,1.4
		c0-0.7,1-1.8,1.8-2.8l15-18.1l16.3-21.1C1918.9,64.8,1919.5,64.3,1920.3,64.1L1920.3,64.1z"/>
	<path class="st2" d="M1887.3,29.6c-3.3-4-6.9-8.5-8.8-10.4c-2,1.6-6.7,6.4-15.3,17.3c-6.5,8.1-11.5,15.2-13.3,17.9
		c4.1,5.5,23.3,27.7,29.4,34.1c5.9-6.7,24.3-29.4,28.1-35.1c-1.2-1.5-3.5-4.2-5.7-6.6c-2.4-2.8-5.2-6-8-9.4
		C1891.6,34.7,1889.4,32.1,1887.3,29.6L1887.3,29.6z M1881.9,76.3l-1.9,2.4l-2.2-2.2c-3.6-3.4-8.1-8.3-12.1-13.1
		c-6.7-7.9-6.7-9.1-6.7-10s0-1.7,7.3-10.5c2.7-3.2,7.5-8.9,10.1-10.9c1-0.9,2.3-1.3,3.6-1c0.9,0.3,2.2,0.6,10.1,11
		s7.8,11.5,7.8,12.3C1897.7,55.5,1897.7,56.7,1881.9,76.3L1881.9,76.3z"/>
</g>
<g>
	<path class="st1" d="M2003.1,43.7c-0.8-0.2-1.5-0.6-2-1.2L1983,22.1l-14.4-17.6c-0.8-0.9-1.4-1.9-1.8-3c1.1-1.1,4.7-0.8,5.6,0.2
		l6.3,8.6l18.7,21.7c0,0,4.7,5.2,5.5,5.4c0.2,0,4.1-4.6,7.5-8.7c8.4-10.1,21.1-26.1,21.7-26.8c2.2-2.4,4.9-2.2,6-1.4
		c0,0.7-1,1.8-1.8,2.8l-15,18.1L2005,42.5C2004.5,43,2003.8,43.5,2003.1,43.7z"/>
	<path class="st1" d="M2003.8,64.1c0.8,0.2,1.5,0.6,2,1.2l18,20.4l14.4,17.6c0.8,0.9,1.4,1.9,1.9,3c-1.1,1.1-4.7,0.8-5.6-0.2
		l-6.3-8.7l-18.7-21.7c0,0-4.8-5.2-5.5-5.4c-0.2,0-4.1,4.6-7.5,8.7c-8.4,10.1-21.1,26-21.7,26.8c-0.8,1-4.9,2.2-6,1.4
		c0-0.7,1-1.8,1.8-2.8l15-18.1l16.3-21.1C2002.4,64.8,2003,64.3,2003.8,64.1L2003.8,64.1z"/>
	<path class="st1" d="M2086.5,43.7c-0.8-0.2-1.5-0.6-2-1.2l-18.1-20.4L2052,4.5c-0.8-0.9-1.4-1.9-1.8-3c1.1-1.1,4.7-0.8,5.6,0.2
		l6.3,8.6l18.7,21.7c0,0,4.7,5.2,5.5,5.4c0.2,0,4.1-4.6,7.5-8.7c8.4-10.1,21.1-26.1,21.7-26.8c2.2-2.4,4.9-2.2,6-1.4
		c0,0.7-1,1.8-1.8,2.8l-15,18.1l-16.3,21.1C2087.9,43,2087.2,43.5,2086.5,43.7z"/>
	<path class="st1" d="M2087.2,64.1c0.8,0.2,1.5,0.6,2,1.2l18,20.4l14.4,17.6c0.8,0.9,1.4,1.9,1.9,3c-1.1,1.1-4.7,0.8-5.6-0.2
		l-6.3-8.7l-18.7-21.7c0,0-4.8-5.2-5.5-5.4c-0.2,0-4.1,4.6-7.5,8.7c-8.4,10.1-21.1,26-21.7,26.8c-0.8,1-4.9,2.2-6,1.4
		c0-0.7,1-1.8,1.8-2.8l15-18.1l16.3-21.1C2085.8,64.8,2086.4,64.3,2087.2,64.1L2087.2,64.1z"/>
	<path class="st2" d="M2045.1,17.7c-5.9,5.7-11.4,11.7-16.5,18.1c-4.4,5.5-8.3,11.3-11.8,17.4c1.9,2.6,7.7,9.5,14.7,17.4
		c7.8,8.9,13.1,14.4,15.5,16.6c1.8-2.1,5.1-6.5,8.1-10.4c2-2.6,4-5.4,6.1-8.1c2.7-3.5,5.3-6.8,7.7-9.7c2.1-2.6,4.3-5.4,5.4-6.9
		C2070.5,46.2,2050.8,22.6,2045.1,17.7z M2064.5,51.7c0,0.8,0,2-7.4,12.6c-7.4,10.6-8.7,11.1-9.6,11.4c-0.3,0.1-0.6,0.1-0.9,0.1
		c-1,0-1.9-0.4-2.7-1c-2.6-1.9-7.7-7.4-10.5-10.5c-7.7-8.5-7.7-9.2-7.7-10.2c-0.1-3.1,8.9-17.5,18.4-24.1l2.1-1.4l1.7,1.9
		C2064.5,49.3,2064.5,50.5,2064.5,51.7L2064.5,51.7z"/>
	<path class="st2" d="M1970.8,29.6c-3.3-4-6.9-8.5-8.8-10.4c-2,1.6-6.7,6.4-15.3,17.3c-6.5,8.1-11.5,15.2-13.3,17.9
		c4.1,5.5,23.3,27.7,29.4,34.1c5.9-6.7,24.3-29.4,28.1-35.1c-1.2-1.5-3.5-4.2-5.7-6.6c-2.4-2.8-5.2-6-8-9.4
		C1975.1,34.7,1972.9,32.1,1970.8,29.6L1970.8,29.6z M1965.4,76.3l-1.9,2.4l-2.2-2.2c-3.6-3.4-8.1-8.3-12.1-13.1
		c-6.7-7.9-6.7-9.1-6.7-10s0-1.7,7.3-10.5c2.7-3.2,7.5-8.9,10.1-10.9c1-0.9,2.3-1.3,3.6-1c0.9,0.3,2.2,0.6,10.1,11
		s7.8,11.5,7.8,12.3C1981.2,55.5,1981.2,56.7,1965.4,76.3L1965.4,76.3z"/>
	<path class="st1" d="M2169.9,43.7c-0.8-0.2-1.5-0.6-2-1.2l-18.1-20.4l-14.4-17.6c-0.8-0.9-1.4-1.9-1.8-3c1.1-1.1,4.7-0.8,5.6,0.2
		l6.3,8.6l18.7,21.7c0,0,4.7,5.2,5.5,5.4c0.2,0,4.1-4.6,7.5-8.7c8.4-10.1,21.1-26.1,21.7-26.8c2.2-2.4,4.9-2.2,6-1.4
		c0,0.7-1,1.8-1.8,2.8l-15,18.1l-16.3,21.1C2171.3,43,2170.6,43.5,2169.9,43.7z"/>
	<path class="st1" d="M2170.6,64.1c0.8,0.2,1.5,0.6,2,1.2l18,20.4l14.4,17.6c0.8,0.9,1.4,1.9,1.9,3c-1.1,1.1-4.7,0.8-5.6-0.2
		l-6.3-8.7l-18.7-21.7c0,0-4.8-5.2-5.5-5.4c-0.2,0-4.1,4.6-7.5,8.7c-8.4,10.1-21.1,26-21.7,26.8c-0.8,1-4.9,2.2-6,1.4
		c0-0.7,1-1.8,1.8-2.8l15-18.1l16.3-21.1C2169.2,64.8,2169.8,64.3,2170.6,64.1L2170.6,64.1z"/>
	<path class="st1" d="M2248.3,43.7c-0.8-0.2-1.5-0.6-2-1.2l-18.1-20.4l-14.4-17.6c-0.8-0.9-1.4-1.9-1.8-3c1.1-1.1,4.7-0.8,5.6,0.2
		l6.3,8.6l18.7,21.7c0,0,4.7,5.2,5.5,5.4c0.2,0,4.1-4.6,7.5-8.7c8.4-10.1,21.1-26.1,21.7-26.8c2.2-2.4,4.9-2.2,6-1.4
		c0,0.7-1,1.8-1.8,2.8l-15,18.1l-16.3,21.1C2249.7,43,2249,43.5,2248.3,43.7z"/>
	<path class="st1" d="M2249,64.1c0.8,0.2,1.5,0.6,2,1.2l18,20.4l14.4,17.6c0.8,0.9,1.4,1.9,1.9,3c-1.1,1.1-4.7,0.8-5.6-0.2l-6.3-8.7
		l-18.7-21.7c0,0-4.8-5.2-5.5-5.4c-0.2,0-4.1,4.6-7.5,8.7c-8.4,10.1-21.1,26-21.7,26.8c-0.8,1-4.9,2.2-6,1.4c0-0.7,1-1.8,1.8-2.8
		l15-18.1l16.3-21.1C2247.6,64.8,2248.2,64.3,2249,64.1L2249,64.1z"/>
	<path class="st2" d="M2137.6,29.6c-3.3-4-6.9-8.5-8.8-10.4c-2,1.6-6.7,6.4-15.3,17.3c-6.5,8.1-11.5,15.2-13.3,17.9
		c4.1,5.5,23.3,27.7,29.4,34.1c5.9-6.7,24.3-29.4,28.1-35.1c-1.2-1.5-3.5-4.2-5.7-6.6c-2.4-2.8-5.2-6-8-9.4
		C2141.9,34.7,2139.7,32.1,2137.6,29.6L2137.6,29.6z M2132.2,76.3l-1.9,2.4l-2.2-2.2c-3.6-3.4-8.1-8.3-12.1-13.1
		c-6.7-7.9-6.7-9.1-6.7-10s0-1.7,7.3-10.5c2.7-3.2,7.5-8.9,10.1-10.9c1-0.9,2.3-1.3,3.6-1c0.9,0.3,2.2,0.6,10.1,11
		c7.9,10.4,7.8,11.5,7.8,12.3C2148,55.5,2148,56.7,2132.2,76.3L2132.2,76.3z"/>
	<path class="st2" d="M2218.6,29.6c-3.3-4-6.9-8.5-8.8-10.4c-2,1.6-6.7,6.4-15.3,17.3c-6.5,8.1-11.5,15.2-13.3,17.9
		c4.1,5.5,23.3,27.7,29.4,34.1c5.9-6.7,24.3-29.4,28.1-35.1c-1.2-1.5-3.5-4.2-5.7-6.6c-2.4-2.8-5.2-6-8-9.4
		C2222.9,34.7,2220.7,32.1,2218.6,29.6L2218.6,29.6z M2213.2,76.3l-1.9,2.4l-2.2-2.2c-3.6-3.4-8.1-8.3-12.1-13.1
		c-6.7-7.9-6.7-9.1-6.7-10s0-1.7,7.3-10.5c2.7-3.2,7.5-8.9,10.1-10.9c1-0.9,2.3-1.3,3.6-1c0.9,0.3,2.2,0.6,10.1,11
		c7.9,10.4,7.8,11.5,7.8,12.3C2229,55.5,2229,56.7,2213.2,76.3L2213.2,76.3z"/>
</g>
</svg>
