<svg enable-background="new 0 0 350 350" viewBox="0 0 350 350" xmlns="http://www.w3.org/2000/svg"><g fill="#fff"><path d="m109.9 315c-4 1.2-8 2.8-12.3 3.1-2.7.2-5.4 1-8.1 1.5-1.8.3-3.6.5-5.4.7-1.6.2-3.2 0-4.6.9-.7.2-1.5.3-2.2.3-3.2.5-6.4.9-9.5-.2-1.3-.6-2.4-1.5-3.4-2.5-.8-.8-1.7-1.5-2.7-2-2.5-.9-4.5-3-5.3-5.5-1.2-3.1-2.7-6.1-4-9.2-1.6-3.2-2.7-6.6-3.4-10.1-.2-1.6-.5-3.2-.9-4.8-.2-.9-.3-1.9-1.7-1.6-.7-2.3-3.4-2.3-4.3-3.6.5-2.1.9-3.8 1.3-5.5.6-2.8 1-5.7 1.8-8.5.5-1.8 1-3.8 3.1-4.6.1 0 .3-.1.3-.2.4-2.6 3-3.4 4.5-5.2.8-1 2.4-1 3.8-1 1.2.1 1.6-.4 2-1.5.8-2 1.7-4 2.7-5.8 1.1-2 2.3-3.9 3.6-5.8.3-.4.7-.6 1.1-.7 4.1-.1 8-1.5 12.1-2 3.1-.3 6.4-.7 9.4.8.4.3.8.6 1.2.9l-4.7-1.1-.1.4c1.7.5 3.4 1 5.1 1.4.1 0 .3-.1.4-.2 2 .7 3.9 1.9 6 2.1 3.4.5 6.3 2.1 9.5 3.1 2.7.9 5.3 1.8 8 2.8 1.4.7 2.8 1.5 4.1 2.4 2 1.2 4 2.5 6 3.8.4.3.7.6.8 1 .4 1.1 1.5 1.8 2.7 1.5.3 0 .6.2.9.2h-.3v.1l.2-.1c2.1.7 4.2 1.2 6.3 1.7 3.3.3 6.6 1.3 9.6 2.7 2 1.1 4 .6 6 .6 5.9-.2 11.8-.5 17.7-.7 4.8-.2 9.6-.5 14.4-.5 4.3 0 8.7.2 13 .3 1.2 0 2.5.2 3.7.3.3 0 .5-.1.8-.2l6.3-3.6c2.6-1.5 5.2-3.1 7.8-4.7 2.1-1.3 4-2.7 6.1-3.9.6-.3 1-1 .8-1.7-.1-.8-.1-1.7-.5-2.2-.6-.5-1.3-.7-2-.6-3.7.1-7.4.4-11 .6-3 .2-6 .3-9 .8-3.5.5-6.9 1.3-10.3 2.1-2.9.7-5.7 1.6-8.4 2.6-1.7.6-3.2 1.5-4.6 2.7-1.9 1.5-4 1.3-6.1 1.1-.4-.1-.6-.4-.8-.7 0-.3.3-.6.6-.8 1.4-1 2.9-1.9 4.4-2.8.7-.4 1.6-.6 2.3-1 3.3-1.9 6.8-3.5 10.4-4.8 1.3-.5 2.5-1.3 3.8-1.8.7-.2 1.3-.4 2-.6 0-.1 0-.2.1-.3-.2-.8-.2-2.1-.5-2.1-1.3-.4-2.8-.3-4.1.3-.6.3-1.2.6-1.8.8-1.7.4-3.3.8-5 1.1-.2 0-.5.1-.7.2-.9.6-1.9 1.1-2.8 1.7-2 1.3-3.9 2.6-5.9 3.8-.5.3-1.1.6-1.8.6-1.7.1-3.3 1.1-5 .4-.4-.2-.8-.2-1.1-.4-1.1-.6-1.1-1.1-.2-1.9 1.7-1.6 3.6-3.1 5.5-4.4 1.3-.7 2.7-1.3 4.2-1.7 2.7-1.1 5.5-2.2 8.2-3.4 2.4-1.1 4.8-2.3 7.1-3.5.3-.1.6-.9.5-1-.4-.3-.9-.8-1.3-.7-2 .4-3.9.9-5.8 1.3-2.4.6-4.7 1-7 1.7-1.3.3-2.5.8-3.6 1.5-1.6 1.1-3.1 2.6-4.7 3.7s-3.1 2.7-5.4 2.3c-.9-.2-1.8-.5-2.6-1-.3-.4-.3-.9-.1-1.4 2.3-2.4 4.7-4.6 7.2-6.7 1.6-1.3 3.8-2 5.7-2.9 2.3-1.1 4.5-2.1 6.8-3.2 1.9-.9 3.7-1.8 5.6-2.6.4-.1.9-.2 1.4-.2 1.3-.1 2-1.1 2.8-1.9.9-.7 2-1.2 3.1-1.4 2.5-.6 4.9-1.2 7.4-1.6 2.9-.5 5.8-.8 8.8-1.1 5.1-.4 10.2-1.2 15.2-2.5-.9-1-1.6-1.9-2.4-2.7-2-2-3.5-4.5-6-5.9-2.6-1.3-5.2-2.6-7.9-3.6-1.4-.5-2.8-.9-4.2-1.2-1.1-.3-1.6.1-1.8 1.2 0 .1-.1.2-.1.3-.2 1.3-.4 2.6-2.3 2.5.1.3.2.5.3.7.4.5.7 1 .2 1.6s-1.1 1.5-2.2 1.2c-4.4-1.2-8.9-2.5-13.3-3.7-2.3-.6-4.5-1.2-6.8-1.9s-4.1-1.5-6.1-2.4c-4.5-2-9.1-3.7-13.7-5.2-1.5-.6-3-1.3-4.4-2.1-2-1-4-2.1-6.1-3.1-.5-.2-1.2-.2-1.7-.4-1.9-1-3.8-2-5.7-3.2-.7-.5-1.6-.6-2.4-.1-2 1-3.1 2.8-4.4 4.4-2.3 2.9-4.4 6-6.7 8.9-1.9 2.3-3.9 4.6-6.2 6.6-1.3 1.2-3.1 2-4.6 3-1.1.7-2 1.5-3.1 2.3-.3.2-.6.4-1 .5-1.4.2-2.8.3-4.1.5-.9.1-1.5-.6-1-1.4.9-2 2.1-3.7 3.6-5.3.8-.9 1.5-1.9 2.2-2.9 1.6-1.8 3.2-3.5 4.8-5.3 2.9-3.4 5.8-6.8 8.7-10.1 2.3-2.7 4.7-5.3 7.1-7.9.4-.4.7-1 .9-1.6-.7.1-1.4.2-2.1.3s-1.3 0-1.9.1c-.3 0-.7 0-.9.2-2.4 2.2-4.7 4.5-7 6.7-1.1 1.1-2.2 2.1-3.2 3.2s-2.2 2.6-3.2 3.9c-1.7 2.2-3.2 4.5-5 6.7-1.2 1.7-2.9 3.1-4.8 3.9-1.2.7-2.5 1.2-3.9 1.7-1.5.2-3 .3-4.5.3-.4-.1-.8-.1-1.2-.3 1.3-1.4 2.5-2.7 3.6-4 1.6-1.7 3.1-3.4 4.6-5.1s3.1-3.7 4.6-5.5c2.2-2.6 4.3-5.3 6.6-7.8 1.9-2.1 4-4 5.9-6.1.9-1.3 1.8-2.6 2.5-4 .4-.6 1-1 1.4-1.5.2-.3.3-.7.2-1.1-.2-.8 0-1.2.9-1.6 2.2-.8 4.5-1.2 6.8-1 2.4.1 4.8.1 7.2.3 1.6.1 3.3.3 5.1.5-.1-.3-.3-.5-.5-.8-2-1.6-3.9-3.3-6-4.9-2.5-2-5-3.9-7.5-5.9-1.9-1.5-3.7-3.1-5.8-4.4-2.2-1.7-4.1-3.7-5.6-6.1-.9-1.4-1.9-2.7-3.1-3.8-1.9-1.6-4-3-6.3-4.6-.1-1-1-1.9-2-2-1.3-.2-2.7-.4-4-.5-1.7-.1-3.3-.1-5-.1-1.3.1-2.7.2-4 .4-3 .4-6 .2-8.8-.5-1.7-.4-3.5-.3-5.1-.8-3.3-1-6.6-.5-9.9-1-2.8-.4-5.5-1-8.2-1.7-4.8-1.2-9.3-3.6-12.9-7-2.9-2.7-5.5-5.8-7.6-9.1-1.4-2.4-3.2-4.6-4.8-7-1.1-1.4-2-3-2.7-4.6-.6-2.1-1-4.3-1.2-6.5-.3-2.8-.5-5.6-.9-8.4-.4-3.3.2-6.5.6-9.8 0-.3.1-.7.3-.8 1.3-.7 1.2-2 1.4-3.1.7-3.9 2.5-7.4 4.2-10.9.6-1.1.9-2.4 1.6-3.5 2.1-3.5 4.2-6.9 6.5-10.3.9-1.3 2-2.6 3.2-3.7 2.2-2.1 4.2-4.3 7-5.8 3-1.6 5.9-3.3 9.2-4.1 2.8-.7 5.6-1.8 8.5-2.5 4.5-1.3 9.3-2.4 14-3.4 4.2-.9 8.4-1.8 12.6-2.4 7-1.1 14-2 21-2.8 5.3-.6 10.7-1.1 16.1-1.5 1.7 0 3.5.1 5.2.5.4 0 .6.7 1 1-.4.2-.9.6-1.4.6-2.1-.1-4.3-.1-6.4.2-1.5.2-3 .2-4.5.2-1.3.1-2.7.3-4 .4-3 .2-5.9.4-8.9.6-1.3.1-2.7.4-4 .5s-2.6.2-3.8.4c-2.7.4-5.5 1-8.2 1.2-2.4.2-4.7.6-7.1 1.1-1.2.2-2.4.3-3.6.5-2.4.5-4.8.9-7.1 1.4-2.7.6-5.3 1.2-8 1.9-3.2.8-6.4 1.7-9.6 2.7-1.8.6-3.4 1.8-5.1 2.5-1.8.7-3.3 1.8-4.6 3.2-.8.7-1.7 1.3-2.7 1.9-.6.4-1.1 1-1.6 1.5-1.5 1.9-3.5 3.2-4.6 5.5-1.1 1.9-2.4 3.7-3.7 5.5-.7 1.1-1.4 2.2-1.9 3.4-1 2.4-1.7 4.9-2.7 7.3-.6 1.7-1.4 3.3-2.1 5 0 .1-.1.2-.1.2.9 1.5-.7 2.7-.4 4.3 0 1.1-.2 2.2-.8 3.2-.5 1.3-.8 2.7-.7 4.2.2 2.2-.1 4.5.2 6.6.2 1.3.9 2.5.6 3.9-.2 1.7.1 3.4.9 4.9.1.2.3.6.5.7 1.8.5 2 2.2 2.6 3.6l.3.6c1.3 1.3 2.6 2.7 4 3.9 2.6 2.2 5.3 4.2 7.9 6.4 3 2.5 6.4 4.5 10 6.1 1.9.7 3.9 1.4 5.9 1.9 2 .6 4 1.4 6 1.9 2.3.5 4.7.8 7.1 1.2.2 0 .4 0 .6.1 1.9 1 3.8.6 5.7.4 2.8-.3 5.5-.8 8.3-1.2.1 0 .2-.1.2-.2s0-.2 0-.2c-1.7-.2-2.3-1.7-3.4-2.8s-2.1-2.3-3.2-3.4c-.4-.3-1-.5-1.5-.6-4.3-.5-8.7-.7-12.9-1.5-2.4-.5-4.6-2-7-2.8-4.2-1.4-7.5-4.2-11.2-6.4-2.1-1.4-4-3.1-5.5-5.1-1.1-1.3-1.5-3.2-2.1-4.9-1.2-3.4-1.7-7.1-1.4-10.7.4-3 1-6 1.9-9 .7-3.3 1.9-6.4 3.6-9.3 1.6-2.6 3.2-5.2 5-7.7s3.9-4.9 6.2-7.1c1.5-1.4 3.7-2.2 5.5-3.3 4.2-2.2 8.7-3.9 13.4-5 3-.8 6-1.1 9-1.6 1.1-.2 2.2-.6 3.3-.7 2.6-.3 5.3-.6 8-.7 5.6-.2 11.2-.1 16.8-.3 3.9-.1 7.7-.6 11.6-.8 4.4-.3 8.8-.5 13.1-.8 3.3-.2 6.7-.6 10-.7 2.9-.1 5.8.1 8.6.1 1.8 0 3.5-.2 5.3-.2 2 0 4 .5 5.8 1.4-1.1 1-2.6 1.4-4.1 1.3-2.3 0-4.6-.1-6.9-.1-.2 0-.4 0-.6 0-3.3-1.1-6.7-.2-10.1-.4-2.1-.1-4.3.6-6.4.9-.5 0-1 0-1.5-.1-.1 0-.3-.2-.4-.2-3.1.2-6.3.6-9.4.5-1.2 0-2.4.1-3.6.4-.3.1-.6.1-.8.1-1.6-.5-3.1.1-4.6.2s-3.3-.1-5 0-3.4.3-5.1.3c-3.1.2-6.1.1-9.2-.1-2.7-.2-5.5.1-8.1 1-.7.2-1.6.1-2.3.2-2.2.4-4.4.9-6.6 1.3-2.4.4-4.9.9-7.2 1.5-3.1 1-6.1 2.3-8.9 4-.8.6-1.9.9-2.7 1.5-1.4 1.1-2.7 2.3-3.9 3.6-2 2.3-3.9 4.7-5.7 7.3-1.2 2-2.3 4-3.3 6.1-.1.1 0 .3-.1.5-1.5 1.7-1.6 3.9-2.3 5.9-.9 1.9-1.4 3.9-1.5 6 0 1.6-.6 3.2-.6 4.8 0 1.8.1 3.5.3 5.3.1.5.4.9.7 1.2 3.3 3.3 6.3 6.9 10.5 9.1 1.6.8 3.5 1.2 5.1 2 1.9.9 3.6.3 5.3-.2 5-1.4 9.9-3 14.9-4.4.3-.1.5-.2 1-.4-4.1-4.1-7.7-8.6-13.7-10.2.3-.2.5-.4.7-.5 2-.5 4-1.1 6.1-1.5.5-.1 1.2.4 1.8.6 1 .4 2 1 3.2.2.6-.4 1.2-.4 1.7.6.2.5 1.3.7 2.1.8 1.4.3 2.8.5 4.2.7 1.1 0 2.3-.1 3.4-.4 3.9-1 7.8-2.2 11.6-3.6 3.8-1.6 7.9-2.2 11.8-3.2 2.3-.6 4.7-.3 7-.6 1-.2 2-.4 3-.7 1.4-.4 2.7-.8 4.1-1.1s2.7-.5 4.1-.7c.6-.1 1.2 0 1.8-.1 1.2-.1 2.4-.2 3.7-.2 1.3-.1 2.7 0 4 .1 1.8.1 3.6.5 5.4.6 2 0 4-.3 5.9-.3 3.2 0 6.4 0 9.6.1 1.9 0 3.8.2 5.7.4 1.5.1 2.9.3 4.4.6 2.6.4 5.1.7 7.7 1.2 3.3.6 6.6 1.3 9.7 2.2 2 .7 4 1.6 5.9 2.6 2 .9 4 1.8 6 2.8 3.5 1.7 6.7 3.9 9.6 6.5 1.9 1.8 3.9 3.6 5.8 5.4 1.1 1.1 2 2.3 3.1 3.4 1.4 1.3 2.8 2.6 4.2 3.8.4.3.7.7.9 1.1.8 1.2.8 1.3-.3 2.6 1.4.2 2.6.3 3.8.5 1.8.4 3.6.9 5.4 1.5 3 1 6 2.2 8.9 3.6 4.1 1.9 8 4.1 11.8 6.6 2.5 1.7 4.5 4.2 6.8 6.3.5.5 1.1.8 1.7 1.2 1 .8 1.9 1.7 2.9 2.6.1.1.2.2.1.3-.5 1.8 1 2 2.1 2.5 1 .4 1.8 1.3 1.9 2.4.1 1.2 1 2.2 2.2 2.4.2-1.1 1-1 1.8-.8 2.2.6 4.3 1.6 6.1 3 2.3 1.7 4.7 3.3 6.9 5.1 3.5 2.8 6.3 6.4 8 10.5 1.1 2.3 2.3 4.6 3.7 6.8l5.7 10.2c.1.2.2.5.3.8.8 3 1.8 6 2.4 9.1.5 2.3.4 4.8.6 7.1.1 2.1.3 4.1.8 6.1.4 1.7.2 3.5-.6 5-.3.5-.2 1.2-.5 1.9l-.2-1.1-.9 1.4 1.1.5c.1 1.3.3 2.5.6 3.7.3 1.1.2 2.3-.3 3.4-.4.6-.3 1.5.4 1.9.1.1.2.1.4.2-1.8 1.8-1.5 4.3-2.2 6.5-1.2 3.8-2.2 7.7-3.5 11.5-1.5 4.3-3.3 8.5-4.9 12.7-1.1 2.8-2 5.7-3.3 8.4-1.9 3.9-4.2 7.7-7.6 10.5-2.1 1.8-4.2 3.5-6.4 5.2-1 .8-2.2 1.1-3.4.9-.7-.1-1.6.8-2.2 1.5-1.1 1.5-2 3.2-3.2 4.7s-2.3 2.9-4.3 3.4c-1 .2-1.3.1-1.3-1l-2 .6c-.3-.2-.6-.5-.9-.5-.9 0-1.7.2-2.5.4-.5.2-.9.6-1.2 1-2.2 3-4.3 6-6.5 9-.1.2-.3.3-.4.5-.6 1.6-2.1 2.2-3.4 3-3.9 2.3-7.9 4.4-12.5 4.8-3.5.3-6.8 1.5-10.3 1.8-2.5.1-5.1.5-7.5 1.2-.3.1-.6-.2-1-.2l-7.5-.9c-.2 0-.3 0-.5 0-1.3.7-2.4.1-3.5-.6-1.4-.9-2.5-.4-3.2 1.1 0 .1-.1.2-.1.2-.8.1-1.6.2-2.4.4-2.6.7-5.1 1.6-7.8 2.2-1.4.1-2.8.1-4.2 0-3.4 0-6.8.1-10.1 0-2.4-.1-4.7-.6-7-.9-5.9-.7-11.9-1.5-17.8-2.1-4.1-.5-8.3-.7-12.4-1.2-2.8-.4-5.6-1.1-8.4-1.7-.3 0-.5 0-.8.1-2 .6-3.8 1.7-6 1.3-.4-.1-.8 0-1.1.3-1.1 1-2.5 1.3-3.9.9-2.1-.4-3.8.7-5.7 1.3-2.4.8-4.8 2.1-7.3 2.7-3.9 1-7.8 1.6-11.7 2.4-1.7.4-3.4.9-5 1.5 1.3.4 2.6.4 3.9 0 .4-.5 1.6-.7 2.9-.8zm107.7-137c-.1.2-.2.4-.3.5v-.1zm-18.4 94.4v-.2h-.1zm-90.2 28c.1.1.1.3 0 0 .1.3.1.2 0 0zm112.3-21.5h.7v-.2l-.7.2h-.2l.1.1zm-73.1-83.8v-.1.1l.7.1v-.2zm76.5 109.2.1.2-.1-.2-.1-1-.4.1zm31.8-9.3-.3-.1c-.1-.4-.2-.8-.4-1.1-.8-1.3-1.7-2.5-2.4-3.8-.8-1.7-.8-1.7.7-3 0-.1.1-.1.1-.2l-.3-1.5c1.7.2 3.2.3 4.7.5.8.1 1.1.6 1.3 1.3.3.9.6 1.7.9 2.6l3.5-2.5c-.9-4-21.6-22.5-25.2-24.8l-1.1 1.4c-.9-.7-1.8-1.5-2.6-2.3-2.4-2.8-5.5-5-9-6.2-.2-.1-.5-.1-.8 0-1.2.6-2.5 1.1-3.7 1.7-3.5 2-7.1 3.7-10.8 5.3-2.6 1-5.4 1.8-7.1 4.2-1 1.4-1.9 3-2.9 4.5l.3.2c1.4-.6 2.8-1.1 4.2-1.7 2-.8 4-1.8 6-2.5s3.9-1.2 5.8-1.7c1.8-.5 3.5-1 5.3-1.4 3.7-.8 7.5.2 10.3 2.8 1.9 1.6 3.6 3.5 4.9 5.6s2.5 4.3 3.6 6.6c.8 2.1 1.5 4.3 1.9 6.5.7 3 1.2 6 1.8 9 .1.7-.2.9-.8.9-.8-.1-1.6-.2-2.4-.2-1.3.2-2.3.1-2.9-.9-1.1.5-2.1 1-3.1 1.4-1.7.8-3.4 1.5-5.2 1.9-4.4.6-8.8 1.8-13-.6-.3-.2-.6-.5-.9-.8.3-.2.6-.3 1-.4.8 0 1.1-.4.8-1.2s-.7-1.7-.9-2.6c-1.1-3.7-2.1-7.3-3.2-11-.3-1-.4-2-.7-3.1l1.3-.1c2.3-.3 4.7-.5 7-.9 2.8-.6 5.2-.8 6.7-.2l-1.9.5.3.7c-.1.1-.2.2-.4.2-1.5-.1-2.9 0-3.7 1.5-.1.2-.4.3-.6.3-.4-.1-.8-.2-1.2-.4-.5 1.6 1.5 2.8.5 4.4-.1.1 0 .3.1.5.6 1.8 1.3 3.7 1.7 5.6.3 1.4 1.1 1.5 2.2 1.3.6-.1 1.3-.5 1.9-.3 1.9.7 3.6.1 5.2-.6l4.2-.9c0-.3-.1-.8 0-.8.7-.2.6-.8.5-1.3-.9-2.8-2-5.6-3.3-8.3-1.9-3.6-4.8-6.4-7.6-9.3-1.1-1-2.9-1-3.9.2-.2.3-.4.6-.6.9-.3.7-.9 1.2-1.6 1.4-2.3.5-4.6.9-6.9 1.3-2.5.4-5 .8-7.5 1.2-.8.2-1.6.5-2.3.9-.3.3-.5.7-.4 1.1.4 1 .9 1.9 1.3 2.8 1.2 3 2.3 6.1 3.7 9.1 1 2.4 2.3 4.6 3.7 6.8 1.4 1.9 3 3.7 4.7 5.4 1.4 1.5 2.8 2.9 4.4 4.2.5.3 1.1.5 1.7.6-.4-4.1-.4-4.1 1-3.8.2-.7.4-1.5.7-2.2.5 0 1-.2 1.3-.1.8.5 1.6.2 2.4.1.4 0 1.2.1 1.2.4.4 1.1 1.4 2.1.8 3.6-.2.4 0 .9.4 1.1.2.1.4.1.6 0 1.6-.4 3.1-.8 4.7-1.3l-.2-.8c-.4-1.5-.9-3-1.2-4.5-.2-1 .2-1.5 1.3-1.4 1.1.2 2 .3 2.9.4 1.7.1 2.1.5 2.2 2.2.1.6.2 1.2.4 1.7.6 0 1.1-.2 1.2 0 .8 1 1.4 0 2.1-.2h-.8l-.1-.2 3.2-1.2c-.3-1-.6-2-.8-2.9-.8-3.3-.8-3.3 2.2-4.7 1.8-.8 2.5-.5 3.1 1.4.3 1 .8 2 1.1 2.9l3.2-1.1-.4.7c-.6.4-1.2.7-1.8 1.1-.2.1-.2.5-.3.7.3.1.5.2.8.2.4-.7 1.5-1 1.2-2 1.1.2 1.5.2 1-.7h.2zm22.7-12-1.6.5.2.5zm-149.7-177.2c-1-.7-1.4 0-1.9.8zm93.6 25.7c-.6 1.2-1.1 2.4-1.7 3.6-.2.4-.4.8-.5 1.2l.3.2c.2-.2.4-.5.6-.8.4-.9 1.9-2.1 2.6-1.9 1.5.4 2.9.9 4.4 1.4l3.1.9c.1-1.1.1-2.3-.1-3.4-.7-2-1.9-3.8-3.5-5.3-.7-.7-1.4-1.4-2.3-2.2-.5 1-.8 1.8-1.3 2.5-.4.6-.8 1.1-1.3 1.6-.6.6-.8 1.8-.3 2.2zm-51.4 56.8c-1.8-.9-3.6-1.9-5.5-2.8-1.3-.6-2.7-.9-4-1.4-1.7-.8-3.4-1.7-5.1-2.6-1.6-.9-3.3-1.7-5-2.3-4.6-1.2-9.3-2.1-14-3.2l-.8-.2c2.5-.7 5.2-.6 7.6.3h-1.5v.3l5.9 1.3c-2.3-2-5.1-3.2-8.1-3.5-2.1-.2-4.3-.4-6.4-.6-2-.2-3.9-.5-5.9-.7-.3 0-.8.6-.8 1 0 .5.1.9.3 1.4.5 1.1 1.9 1.6 3 1.1.1 0 .2-.1.3-.2 0 .6-.2 1.1-.5 1.6-.9.7-1.1 2-.4 2.9l.6.6.5-.5c.8-.4 1.1-2 2.4-1 0 0 .3-.3.5-.4l1.9-1.2.6 1.8c.6-1.4 1.7-1.2 2.6-.9.4.1.7 1 .9 1.4 1.7.1 3.4.3 5.1.7 3.3.9 6.6 1.9 10 2.9 1.9.6 3.7 1.2 5.6 1.8 3.2.9 6.5 1.8 9.8 2.7.1-.2.2-.2.4-.3zm115.7-7.6c-.5-.7-.4-1.2.4-1.6.8-.3 1.6-.6 2.3-1 1.4-.9 2.8-1.8 4.1-2.8.3-.4.5-.9.3-1.5-.3-.7-.7-1.3-1.2-1.9-.3.3-.6.6-1 .8-.8.4-1.7 1-2.4.8-1.3-.4-2.5-.9-3.7-1.6-.8-.4-.8-.9 0-1.4l4-2.9-3.6-2.8-2.2 1.8c-.3.2-.6.5-.9.7-.8.8-1.6.8-2.2-.1s-1.3-1.5-2.6-.6c.1-.9-1-1.4-.1-2.3.7-.8 1.4-1.7 1.9-2.7.3-.3.3-.7 0-1-.1-.1-.3-.2-.4-.2-.3-.1-.7-.2-1.1-.2-5.2 10.3-10.4 20.3-15.5 30.4l.3.4c1.3-.7 2.6-1.4 3.9-2.2 1.4-1.1 2.5-2.4 3.8-3.6.5-.4 1.2-.8 1.9-.9 1.2-.4 2.5-.5 3.8-.9 2-.7 3.9-1.7 5.9-2.5.3-.1.7 0 1 .2 1 .8 2.5.6 3.3-.4.1 0 .1 0 0 0 .7.7 1.2 1.4 1.8 2.1.1.2.3.3.6.4 1.7.6 2.3 2.1 2.8 3.5 1.5 3.8 3 7.7 4.4 11.6.1.5 0 1-.4 1.4-1 .7-2.1 1.3-3.2 1.8-2.2 1.1-4.5 2.1-6.7 3.1s-4.3 2-6.5 3c-3.3 1.4-6.8 2.5-9.8 4.7-1 .7-1.4.6-1.9-.6-.4-1-.7-2.1-1.1-3.4-3.5 2-6.9 3.9-10.3 5.9-.3.3-.4.6-.3 1 .3 1.4.6 2.7.9 4 .3 1.6.7 1.9 2.2 1.1 2.5-1.1 4.9-2.4 7.4-3.4 3.2-1.3 6.5-2.5 9.8-3.7 1.2-.5 2.5-.9 3.8-1.2 3-.7 6-1.3 9.1-2 2.8-.6 5.6-1.2 8.4-1.7 2.1-.4 4.2-.7 6.4-.9 1.3-.1 1.6-.8 1.5-1.9-.1-1.3-.1-2.7-.2-4-.2-2.6.4-3.2-3.1-2.2-.8.2-1.7 0-2.3-.5-.7-.5-1.4-.9-2.2-1.3-.3-.1-.5-.3-1-.5l7.2-3.1-1.2-4.3c-.3-1-.9-1.3-1.8-.8s-1.6.8-2.3 1.3c-1.2.7-2 .3-2-1.1-1.2.8-2.2.2-3.2-.6.9-1.1 2.1-1.9 3.5-2.5 1.3-.3 2.3-1.2 2.9-2.3l-2.4-4.2c-.8.1-1.4.2-2 .3-.4 0-.7.1-1 .3-1.1.6-2.2 1.2-3.3 1.9-.2.1-.5.1-.8.1l-.1-.3 3.9-2.5v-.3c-.5-.1-1.1-.5-1.5-.4-1 .3-1.8 1-2.7 1.4s-1.9 1.7-3.3.8zm-218 99.4c2.6 0 5.2 0 7.8.1 2.2.1 2.5.3 3.1-2.2.3-1.3.3-2.6.6-3.9.5-1.9 1.1-3.8 1.7-5.7.1-.4.6-1 .9-1 .5 0 1 .3 1.3.7.8 1.1 1.2 2.4 1 3.8-.2 1.2.1 2.5-.4 3.5-.6 1.4-.7 2.9-.3 4.3.2.4.6.8 1 .9.7.3 1.5.3 2.3.6 1 .3 1.7 0 1.9-.9.4-2.1.9-4.2 1.3-6.3.1-.3.4-.7.7-.9.7-.5.8-1.5.4-2.2l2 .2c-.2.3-.4.4-.4.5-.1.3-.1.7-.1 1 0 .1.4.2.5.2.2-.2.4-.5.6-.7.2-.3.3-.9.4-.9 1 0 2.1-.6 3 .5-1.7.2-1.2 1.3-1.2 2.3 0 .5 0 1-.2 1.5s-.7.9-.8 1.4c-.1 1.1-.2 2.2-.3 3.3 0 0 .1.1.2.1l.3-.5h.2l-.2 1.6-.6-.3-.3.2c.3.6.4 1.4.9 1.7.8.5 1.7.8 2.7 1 1.3.2 1.8-.3 1.8-1.7-.1-.7.1-1.5.5-2.1.6-.7 1.7-1.1.8-2.3 0-.1.2-.3.2-.5.5-1 1-2.1 1.4-3.1.1-.4.1-.7 0-1.1l.9-.6v1.9l1.7-1.5.2 1 3.5.4c-.3 1-.6 2-.9 3-.6 2.2-1 4.4-1.4 6.6-.3 2.5-.9 3.3-3.4 3.7-1.3.2-2.7.3-4 .3-.9 0-1.7-.1-2.6-.3-1.5-.6-3.1-.6-4.6 0-.3.1-.7 0-1-.1-.7-.2-1.3-.4-2-.5-1.2-.1-2.4-.1-3.6-.2-3.5-.3-6.9-.8-10.4-1.1-1.5-.1-3 .1-4.5.2-3.3.1-6.6.1-9.8.2-.4 0-.8.5-1.1.8.3.2.7.6 1 .5 1.3-.2 2.5-.6 3.7-.8.9-.1 2.2-.2 2.6.2.6 1.1 1 2.3 1.1 3.5 0 .4-.6 1.1-1 1.2-1.4.6-2.8 1.1-4.3 1.4-2.1.6-2.4 1.1-1.4 3.1.2.5.4.9.7 1.3l.2-1.3c1.5-.3 3-.5 4.6-.6 1 0 2.3-.2 2.8.9.4.9.7 1.9.8 2.9 0 .4-.2.8-.6 1-1.4.5-2.8.8-4.2 1.2-.7.2-1.5.3-1.1 1.4.4 1.4.7 1.7 2 1.3 1.4-.4 2.8-1 4.2-1.3 2.2-.4 4.2-1.3 6-2.6 0 .7.2 1.3.3 2 .6 1.2.2 2.7-1 3.3 0 0-.1 0-.1.1-1.2.7-2.5 1.3-3.8 2-1.1.6-2.1 1.2-3.6 2 .9.7 1.5 1.5 2.2 1.6 1.1.1 2.2.1 3.3 0 3-.1 6-.2 9-.4 1.3-.1 2.6-.2 3.8-.4-1.2-2.2-2.2-4.1-3.4-6-1.2-1.8-2-3.9-2.2-6l1.4-.2c-.8-.5-1.8-.7-1.9-1.2-.6-2.1-1-4.3-1.5-6.5 2.1 0 4.1-.8 6-.1.2.6.4 1.1.6 1.7 1.1 2.2 2.2 4.4 3.3 6.6 1.6 3.3 3.2 6.6 4.8 9.9.3.4.8.7 1.3.7.8-.1 1.5-.2 2.3-.4 0-.3 0-.5 0-.5-1.1-1.9-2.4-3.8-3.3-5.8-1.2-2.6-2-5.3-2.9-8-.2-.5-.1-1.1.2-1.6 1.1-1.3 2.7-1.5 4.2-2 .5.8 1 1.6 1.4 2.4.2.4.4.9.5 1.3.5 1.8 1.1 3.6 1.9 5.3 1.2 2.4 2.8 4.7 4.2 7.1.1.2.3.3.6.3.8-.1 1.6-.3 2.4-.4 0-.2 0-.3 0-.5-1.3-3.8-2.6-7.6-3.9-11.4-.4-1.3-.8-2.7-1.1-4 0-.4.2-.8.5-1 .1-.1.8 0 .8.1.3.9 1.8.8 1.5 2.1.3.2.6.3.9.4l-.2-1.6c1.6-.1 1.9.1 2.5 1.3.2.3.4.5.6.7 0 .3 0 .6.1.9.7 1.9 1.3 3.8 2 5.7.1.4.2.8.3 1.3l.1.1v-.1c.6 1.3 1.2 2.6 1.8 4 .2.6.4 1 1.2.9l6.6-1.5v-.5l-.8-.3c-.1-1-.2-2-.4-2.9-.4-1.8-.9-3.5-1.3-5.3s-.8-3.5-1.1-5.3c-.3-1.3.1-2.2 1.1-2.4 2.4-.5 3.4.3 3.9 2.7.2 1.1.4 2.3.8 3.4.9 2.5 1.9 5 2.8 7.6.3 1 .7 1.2 1.6.8 1.4-.6 2.9-1.1 4.4-1.6.5-.1 1.1.1 1.5-.2.5-.5 1.4-.6 2 0 .1.1.2.2.3.4-.2-.9-.4-1.9-.8-2.8s-.7-1.9-.9-2.9-.2-2-.4-3c0-.2-.6-.6-.8-.6-1 .2-2 .5-2.9 1.1-1.6 1.4-3.2.7-4.8.5-.2 0-.4-.5-.6-.8 1.7.4 2.2 0 2.3-1.6 0-.4 0-.9.1-1.3.2-.6.5-1.1 1-1.5 1-.5 2-.9 3.1-1.1 1.2-.4 1.4-.6.9-1.8s-3.2-1.5-3.8-.3c-.5.9-1.1.7-1.8.6-.9-.1-1.8-.3-2.7-.5-.4-.1-.7-.3-.9-.6-.1-.3.1-.7.2-1.1.2-.6.4-1.1.5-1.7.2-1.4.6-1.9 2.1-2.1 1.8-.2 3.6-.2 5.3-.3l.2-1.7-9.1-.6c.1-1 .3-2 .6-2.9.2-.5.7-.8 1.2-.9 2.3-.2 4.5-.4 6.8-.4 1.8 0 2.4-.4 2.6-2.1.1-.7-.2-1.1-1-1.4-2.1-.7-4.3-1.5-6.4-2.3-1.2-.5-2.4-1-3.7-1.5-2.2-.9-4.4-1.6-6.6-2.7-1.6-.8-2.9-2.1-4.5-2.7-2.7-1-5.6-1.7-8.4-2.5-1.5-.4-3-.5-4.4-1-4-1.4-8.1-2.4-12.3-3-3.4-.4-6.8-.9-10.2-1.2-.4 0-.9.2-1.1.6-.3 1-.6 2-.8 3 2.3.7 4.4 1.4 6.6 2 2.5.7 5 1.2 7.5 1.8.6.2.9-.1 1.2-.6.7-1 1.4-1.9 2.3-2.7.2-.2.7 0 1.1 0s.6.3 1 .4c1.8.5 1.9.7 1.2 2.4-.1.1-.1.3-.2.4-.6 2-.6 2.7 1.8 2.9.3-.4.4-.8.6-1.3.1-1.1.6-1.2 1.4-.7.5.4 1.2.4 1.7-.1.1-.1.1-.1.1-.2.3-.3.7-.5 1.1-.6.4 2.4.4 2.4 1.3 2.4-.8 3.2-.8 3.5 1.3 3.8.1-.5.1-1 .2-1.5.1-.9.5-1.4 1.5-1.3l.3.9c.2-.2.4-.5.6-.7s.4-.8.7-.9c1.8-.9 2.4-.8 3.8.6v.1c0 .6 0 1.2.1 1.8.5 1.6-.3 3.3-1.9 3.8-.2.1-.4.2-.5.2l.2.3 4.1.9c-1.4 1.5-3.1 1.4-4.9 1.1-3.5-.8-7.1-1.4-10.6-2.1-1.4-.3-2.8-.7-4.3-.8-2.9-.3-5.9-.4-8.6-1.6s-5.4-2.4-8.1-3.6c-.5-.2-1-.3-1.5-.3-.6-.1-1.2-.2-1.7-.4-.6-.3-2.2-.2-2.4.2-.3.8-.7 1.7-1 2.5-.1.7-.8 1.2-1.5 1-.2 0-.3-.1-.5-.2-2.5-1.2-5.2-1.9-8-2.2-.4 0-.9.2-1.2.4l.1.3c3 .8 6.1 1.1 8.8 2.9l-2.7 2.8c-.8-.3-1.6-.5-2.5-.7-1.7-.2-3.5-.4-5.2-.5-.6 0-1.6 0-1.3 1 1.5.4 3 .7 4.3 1.2s2.8 1.2 4.2 1.9c-.5.2-1.1.2-1.6.1-1.8-.4-3.6-.9-5.4-1.4-.6-.1-1.3-.2-1.6.7l4.8 1.6c-.4.3-.9.4-1.4.4-1.5 0-3.1-.2-4.6-.2-.4.1-.8.3-.9.7-.1.2.2.7.4 1 1.2 1.3 2.9 2.2 4.7 2.6.9.2 1.8.5 1.8 1.5 2.4-.2 4.8-.4 7.1-.5.1.7.5.7.9.8-.1.1-.2.1 0 0zm118-124.1c1.5 1 2.9 2 4.5 3 .3.2 1.1.1 1.3-.1.7-1.1 1.2-2.2 1.7-3.4.3-.5.2-1-.3-1.3-1.7-.9-3.3-1.9-5-2.6-1.1-.5-2.3-.9-3-2 .4-.7.6-1.7 1.2-1.9 1.6-.6 3.2-1.6 5-.6 1.7.9 3.4 1.6 5.2 2.5l1.4-3.5c-1.6-.4-1.6-.4-2.5-2-.2-.2-.4-.4-.6-.4-.7-.3-1.4-.6-2.1-1-.9-.6-.9-1-.1-1.8.5-.6 1-1.2 1.6-1.7s1.5-.8 2.3-.9c1.4.4 2.7 1 3.9 1.7.2-.7.5-1.4.8-2 .7-.9.3-1.5-.5-1.9-1.8-1.1-3.8-1.9-5.8-2.1-.6-.1-1.1-.2-1.6-.3 1.8-2.1 6.6-2.6 10.3-1.1.5-1.2 1-2.4 1.6-3.6.6-1 .3-1.4-.7-1.8-2.2-.7-4.3-1.5-6.6-2.3 1.1-.6 1.5-2.3 3.3-1.7.1 0 .2-.1.3-.2 1.1-1.2 2.9-1.3 4.3-.4l2.1 1.2c1-3.6 1.9-6.9 2.9-10.3-1.3-.6-2.6-1.2-3.8-1.9-.8-.5-1.3-.4-1.7.4-1.1 2.1-2.2 4.2-3.1 6.4s-1 2.3-3.3 2c-.7-.1-1.4-.1-2-.2-.3-.1-.7-.4-.7-.6 0-1 .1-2 .4-2.9 1.1-2.4 2.4-4.8 3.6-7.2.1-.2 0-.8-.2-.9-1.6-.8-3.2-1.5-4.8-2.3-.9-.4-1.2 0-1.3.8-.1.7-.3 1.4-.6 2-.5 1.2-1.1 2.4-1.8 3.5-.2.3-.6.7-.9.7-1.4-.1-2.9-.4-4.3-.6-.8-.1-.9-.5-.6-1.2s.7-1.6 1-2.4c.5-1.3 1-2.7 1.4-4 0-.5-.3-.9-.7-1.1-1.2-.4-2.4-.7-3.7-1.1-.1.1-.1.2-.1.3-.4 2.4-.6 4.8-1.9 6.9-.2.3-.5.6-.9.7-1.4.2-2.8.3-4.2.4-.3 0-.7-.1-1-.2 1.4-2.8 1.7-5.6 2-8.5 0-.4-.2-.8-.6-1.1-1.3-.4-2.6-.7-3.9-1-.8-.2-1.3 0-1.2 1 .2 1.1.3 2.1.2 3.2 0 1.7-.4 2.9-2 3.2-1.2.2-2.4.3-3.6.3-.6 0-.6-.4-.6-1 .1-2.1.1-4.1.1-6.2.1-.8-.6-1.5-1.3-1.5h-.1c-1-.1-2-.2-3-.3s-1.1.3-1.1 1.2c0 1.9-.2 3.8-.4 5.7-.2.5-.5.8-1 1-1.4.3-2.8.4-4.3.6-.8.1-.9-.4-.8-1 .3-2.2.6-4.4.8-6.6-.1-.5-.4-1-.9-1.2-1.3-.3-2.7-.4-4.1-.6v4.1c0 .6.2 1.3 0 1.6-1.2 1.8-1.1 3.9-1.7 5.8-.3 1.5-1.3 2.8-2.8 3.5-3 1.4-6.2 2.5-9.3 3.6-1.5.4-3 .7-4.5 1-5.4 1.3-10.4.2-15.4-1.7-2.1-.9-4-2.1-5.8-3.5-2.1-1.4-2.7-3.6-3.2-5.9-1.1.1-2.2.3-3.3.6-1 .4-2 .8-3 1.4-.3.2-.5.5-.6.8 0 .8-.6 1-1.2 1.1-.7.1-1.5.2-2.3.2s-1.7-.1-2.5-.1c-.5 0-1 .1-1.5.1v.4l1.5.9c1.4.8 2.8 1.5 4.4.9.8-.2 1.7-.4 2.6-.5l.1.3-2.9 1.3c.4.4.9.8 1.3 1.1.9.4 1.8.9 2.7 1.5 1.1 1.1 2.8 1.4 4.2.9 1.2-.3 2.4-.4 3.7-.5l.1.5-4.1 2.1c1.7 2.7 4.2 4.1 7.7 3.2-1.3 1.7-3.2 2-4.7 2.8.4.3.7.6 1 .9.3.7.6 1.4 1 2.1 1.6 1.8 3.7 3.2 5 5.4 1.1 1.8 3.2 3.1 4.6 4.3 1.9 0 3.5-.1 5.1 0 .5 0 1.3.3 1.3.5 0 .6-.1 1.1-.4 1.6-.6.7-1.2 1.4-1.9 2.1l2.5 2.9c.6-.3 1.3-.5 2-.5 1.6.1 3.1.4 4.7.7.2.3.3.7.1 1.1-.5.5-1 1-1.7 1.3-1.2.8-1.4 1.1-.5 2.1 1.4 1.7 3 3.2 4.6 4.8.5-.4.9-.8 1.4-1.2 2-2.3 4.4-2.3 7.1-1.6.3.1.9.3.9.5.1.5 0 .9-.3 1.3-.5.6-1.3 1-1.8 1.6-.8.8-1.5 1.6-2.2 2.5-.2.4-.2.8 0 1.1 1.1 1.3 2.3 2.5 3.4 3.7 4.6-3.2 6.6-3.7 9-2.3-.5 1.3-1.8 1.7-2.8 2.4-.8.6-1.5 1.2-2.2 1.9-.2.3-.2.7 0 1 1.8 1.7 3.6 3.3 5.5 4.9 1-1.2 1.8-2.4 2.6-3.7.3-.8 1.1-1.2 1.9-1 .9.1 1.9.2 2.8.4.7.2 1 1 .8 1.6v.1c-.5.6-.9 1.3-1.2 2-.7 2.2-1.7 4.3-4.1 5.5l8.2 4.1c.8-1.5 1.4-2.9 2.2-4.2s1.9-2.9 3.6-3.1c1.4-.3 2.9-.3 4.3.1.7.2.6.6.3 1.1-.7.9-1.3 1.8-1.8 2.8-.8 1.4-1.3 2.9-2.1 4.2-1 1.7-1.1 1.8.8 2.6l.9.3c.7.3 1 .1 1.3-.6.8-1.6 1.6-3.2 2.4-4.8.2-.3.6-.7.9-.7 1.6 0 3.2.1 4.9.2 1 .1 1.1.6.6 1.3-1.6 2.4-2.2 5.3-4.6 7.3l5.4 1.9c.1-1.5-.6-2.9 1.2-3.7.1.4.1.6.1.9.1 1 .2 2 .4 3 .1.3.4.6.6.9.2-.3.7-.6.7-.9.1-1.5 0-2.9 0-4.5.3-.1.6-.2.9-.1 1.1.1 1.7-.4 2.2-1.4.4-.8 1-1.5 1.6-2 .3-.2.7-.2.9 0 1.2 1 2.3 2.1 3.3 3.3 1.7 2.1 3.4 4.3 6 5.6.3-.4.6-.8.9-1.2.8-.6.4-1.1-.1-1.6-1.7-1.8-3.4-3.5-5-5.3-1-1.1-2-2.4-.4-3.9.1-.1.1-.2.1-.3 1.3-2.5 2-2.6 3.7-.4.1.1.2.3.3.4 1.5 1.9 3.3 3.6 5.4 4.9 1.9-1.6 1.9-1.7.3-3.2-.2-.2-.3-.3-.5-.5-2-2.4-4-4.8-5.9-7.1.7-.5 1.5-1 2.2-1.6.6-.6 1.2-1.3 1.6-1.8 1.6.8 3.2 1.2 4.2 2.7 1.1 1.7 2.6 3.2 4 4.9l2.5-3.2c-1.8-1.6-3.4-3.2-5.1-4.6s-3.6-2.5-5.5-3.8c1.2-1.3 2.5-2.7 3.8-3.9.4-.3.9-.3 1.3-.2 1.7 1.1 3.4 2.2 5.1 3.5 1.2.9 2.2 1.9 3.4 2.9.7-.9 1.3-1.6 1.8-2.4.6-.7.6-1.8-.1-2.4-.2-.1-.3-.3-.6-.3-2.6-1.3-5.2-2.6-7.9-3.9l-1-.5c-.8-.3-.8-.9-.3-1.4.6-.8 1.3-1.6 1.9-2.4.9-1.3 2.7-1.6 4-.8 1.8 1.1 3.6 2.2 5.4 3.1s1.9.8 2.9-.9c.9-1.4.7-1.9-.9-2.2-.3-.1-.6-.2-.9-.3-2.5-.8-5.1-1.6-7.6-2.5-.5-.1-.9-.5-.8-1 0-.2.1-.4.3-.6.7-.9 1.6-1.6 2.3-2.5.9-1.2 2.1-1 3.2-.7 1.8.5 3.5 1.2 5.2 1.9.7.3 1.1.2 1.4-.6.3-1 .6-2 1.1-2.9.6-1 .1-1.1-.7-1.4-1.6-.5-3.3-.9-4.9-1.6s-3-1.3-4.6-2c-.5 1.1-.8 2.1-1.3 3-2.4 4.4-4.8 8.8-7.4 13.1-2.2 3.6-4.7 7-7.1 10.4-1.9 2.7-3.9 5.4-6.1 7.9-1.5 1.5-3.1 2.9-4.9 4-1.1.7-2.3 1.6-3.8 1.4-.8 0-1.7 0-2.5.1-1 .1-1.1-.4-.9-1.2l1.2-.1v-.2l-1.2-.4c.4-1.2-.8-1.2-1.3-1.7-1.5-1.4-2.9-2.8-4.3-4.2-2.1-2.2-4.3-4.4-6.3-6.7s-4-4.7-5.9-7.1c-1.1-1.3-2.1-2.6-3.1-3.8-.6-.7-1.1-1.4-1.6-2.1-.3-.2-.6-.3-.9-.3-.5-.1-1.3.1-1.6-.1-1.2-1-2.3-2.2-3.3-3.4-1.2-1.5-2.2-3.2-3.4-4.7s-2.3-2.9-3.4-4.4c-.8-1.1-.3-1.9 1-1.7.7.1.9-.2 1.1-.7.5-1 1.1-1.9 1.7-2.8s1.6-2 2.3-3c1-1.6 2-3.2 2.8-4.9 1.7-3.5 3.9-6.7 5-10.5.3-1.1 1.4-1.8 2.5-1.6.3.1.7 0 1-.1 1.5-1 2-.9 3.1.4.3.4.6.7 1 .9 2.1 1.4 4.2 2.7 6.4 4 1.6 1 3.2 1.8 4.8 2.8 1.9 1.1 3.8 2.3 5.7 3.5 2.2 1.5 4.3 3 6.6 4.7-1 1.5-2.1 3.2-3.4 4.9-2.3 3-4.6 6-7 9-.3.3-.7.4-1.1.4-.9 0-1.9-.2-2.8-.2-1.5 0-1.7-.2-1.3-1.6.1-.2.1-.4.2-.5-.9-.4-1.3-1.4-1-2.3.1-.2.2-.4.3-.5.5-.6 1-1.2 1.5-1.9.8-1.1 1.7-2.3 2.5-3.5-.3-.2-.4-.2-.6-.3-1.5-.5-3-1.1-4.4-1.8-2.4-1.4-4.7-3-7-4.5-.6-.6-1.6-.5-2.1.1-.1.1-.1.1-.2.2-.5.7-.9 1.4-1.3 2.1l-4.9 8.1c-.4.6-.2 1 .3 1.4 3.1 2.3 6.1 4.6 9.1 6.9 2.2 1.7 4.5 3.4 6.7 5.2 2.7 2.2 5.4 4.4 8.1 6.7zm22 42.8c.8.2 1.5.4 2.3.4 2.7-.3 4.9.6 7.2 1.9 2.1 1.2 3.9 2.7 5.6 4.4 1.6 1.8 2.8 4 4.3 6 .3.4.8.7 1.3.8 2 .5 3.6-.6 5.2-1.5 1.3-.7 2.4-1.7 3.6-2.5 1.8-1.2 3.7-2.5 5.5-3.7.6-.4.7-.8.1-1.4-1.6-1.7-3-3.6-4.6-5.2-1.5-1.5-3.1-2.8-4.8-4s-3.6-2.3-5.3-3.4c-1.3-.8-2.5-1.6-3.7-2.5-.1-.1-.1-.3-.2-.4-.6-1.1-.5-2.5.2-3.5 1.3-1.9 2.3-3.9 3.5-5.8 2-3.4 4.1-6.8 6.1-10.2.8-1.3 1.3-2.7 2-4.1 1.5-2.9 3-5.9 4.4-8.8 1-2.2 1.8-4.5 2.6-6.8.4-1 .9-1.7 2.1-1.1 1.5.7 3 1.5 4.6 2 3 1 5.6 2.9 8.3 4.5.9.5 1.8 1.1 2.6 1.8.6.7 1.1 1.5 1.6 2.2 1 1.3.9 1.9-.6 2.8-.6.3-1 .9-1.2 1.5-1.1 3.3-1.9 6.7-3.8 9.7-1.7 2.8-3.2 5.6-5.9 7.7-2 1.6-4.6 2.1-7 1.2-1.6-.5-2-1.4-1.1-2.9 1.2-2.1 2.6-4.1 4-6.1 1-1.6 2.1-3.1 3.1-4.6s2-3.2 2.9-4.9c.1-.3.1-.6-.1-.9-1.4-1-2.9-1.9-4.5-2.9-.7 1.4-1.2 2.7-1.9 4-1 2-2.1 3.9-3.1 5.9-.2.5-.4 1-.6 1.5-1.5 2.1-3.2 4-4.4 6.1-1.2 2-1.9 4.2-2.9 6.3-.4.7-.2 1.6.5 2h.1c.3.2.7.4 1 .6 2.1 1.4 4.2 2.7 6.2 4.1 1.2.8 2.3 1.6 3.5 2.5.8.6 1.4.2 1.8-.5 1.3-2.1 2.7-4.2 4-6.4 2.6-4.5 5-9.1 7.6-13.6 2.1-3.7 4.4-7.2 6.4-10.9 1.1-2.2 2-4.5 2.7-6.8.2-1.1.2-2.2 0-3.3-1.9.6-3.1 2.5-5.3 1.5 1.3-.8 2.4-1.5 3.4-2.2.4-.3.8-.9.7-1.2-.5-1.2-1-2.3-1.6-3.4l-2.6 2.3c-.7.6-3.4-.1-3.7-.9-.1-.2-.1-.3 0-.5.6-1.5 1.3-2.9 3.1-3.2.3-.1.6-.2.9-.3l-2.6-2.9c-.4.6-.8 1.2-1.2 1.8-1.2 1.2-2 3.2-4.3 2.4-.9-.3-1.7-.6-2.5-1-.2-.2-.2-.5-.1-.8.5-.7 1.1-1.3 1.6-2s1-1.3 1.4-2.1c.1-.2 0-.6-.1-.7-1-.6-2-1-3-1.6-.7 4.3-3.6 5.8-6.5 3.6.1-.3.3-.6.5-.8.9-1.3 1.2-3 .6-4.4-.3-.8-1.8-1-2.8-1.5-.1-.1-.3-.1-.4-.2-.7-.4-.9-.2-1.1.6-.6 2.3-1.3 4.5-1.9 6.7-.2.7-.4 1.4-.6 2.2-.4 2.1-1 4.3-1.8 6.3-1.2 2.8-2.8 5.3-3.1 8.4-.3 2.7-2.1 4.6-3.2 7s-2.3 4.7-3.5 7c-.1.3-.2.5-.4.7-1 1.3-2 2.6-2.9 4-1.6 2.7-3 5.5-4.7 8.1-1.4 2.2-3.1 4.2-4.7 6.3s-3.5 4.4-5.3 6.5c-1.2 1-2.3 1.9-3.5 3.1zm-32.8 75.2c.8.5 1.7.9 2.5 1.2.8.2 1.6.3 2.4.4.3.1.8.3.9.6.4 1.1.6 2.3.8 3.5.2 1.4.2 2.9 0 4.3-.3 1.8-.7 3.6-1.2 5.3-.2.9-.5 1.8-1 2.6-.8 1-1.7 2-2.7 2.9-.4.3-.8.8-1.2.8-2.1 0-4.2-.1-6.2-.2-1.8-.3-3.6-.4-5.4-.5-3.4.1-6.8.4-10.2.7-2.8.3-5.1-.9-7.4-2.3-1.2-.8-1.2-1.6-.3-2.8.1-.2.2-.5.2-.8.4-1.6.8-3.2 1.4-4.8.3-.5.9-.7 1.4-.7.9.4 1.9.3 2.8 1.2.7.7 2.2.5 3.3.7.3.1.9 0 1 .2.6 1.6 2.1 1.8 3.5 1.9s2.9.2 4.3.3c2.4.1 4.8.1 7.1 0 .4-.1.7-.4.8-.7.2-2.2.3-4.4.2-6.7-.1-1.7-.2-1.7-1.8-1.3-.3 0-.5 0-.8 0-3.8 0-7.6 0-11.4 0-.3 0-.8.2-.8.3-.1 1-.7.8-1.4.8-.3 0-.6.1-.9.3-.9 1.1-2.1.8-3.2.7-.7 0-1.4-.2-2.1-.2-2.6.1-5.2.3-7.8.5-1.4.1-2.7.3-4.1.4-.9 0-1.1.5-.9 1.2.5 2.4.9 4.8 1.5 7.2s1.2 4.8 1.9 7.1c.2.6.7 1 1.2 1.3 1 .4 2 .6 3 .8.6.1 1-.2 1.2-.9s.4-1.5.6-2.2.7-1.2 1.7-1c-.2 1.4-.3 2.8-.5 4.3.3-.1.7-.1 1-.1 1 .4 2 .8 3 1.1 1.4.2 2.9-.2 4.4.4.1.1.7-.4.8-.6.3-1.2.6-2.5.8-3.8.1-.9.5-1.3 1.4-1.1s1.7.4 2.5.6c1.1.3 1.7 1.4 1.5 2.4v.2c-.4.9-.6 1.9-.9 3h1.3c.9.1 1.9.3 2.8.6.8.3 1.1-.2 1.2-.8.2-1.1.4-2.3.5-3.4.1-.7.2-1.3 1.2-1.1 1.4.3 2.9.6 4.4 1-.1 1.2-.2 2.3-.4 3.5-.1.9 0 1.4 1 1.5.6.1 1.2.3 1.9.4 1.4.2 2.8.4 4.2.6.1-2.5.3-4.8.4-7.1 0-.3.3-.6.4-.9.3.2.7.4.9.7.2.5.4 1 .6 1.6.5-.3.9-.6 1.3-1s1-.5 1.4-.1c.1.1.2.3.3.4.3.5.6 1.1.9 1.6.1.2.1.4.1.7-.1 1.4-.3 2.8-.4 4.2 0 .3.2.6.4.7.8.3 1.6.4 2.4.6.1-.3.1-.6.2-.8.1-1.8.1-3.6.3-5.5.1-.8.3-1.7 1.3-1.7 1-.1 2 0 3 0-.1.6-.2 1.2-.2 1.8-.1.8.1 1.6.4 2.4.5.6.4 1.5-.2 1.9-.1.1-.2.1-.2.2-.5.4-1 1-1.5 1.4l.2.3c1.1-.1 2.1-.1 3.2-.2 1.7-.2 3.5-.4 5.2-.7.3-.1.9-.6.8-.9-.4-3.1-.8-6.2-1.3-9.3-.3-2.1-1-4.1-1.3-6.2-.2-2.6-.6-5.2-1.1-7.8-.3-1.3-.7-2.7-1.2-4-.3-1-.8-2-1.1-3 1.2.8 2 .1 2.9-.4-1.6-1.2-2-3.6-4.5-3.4l.7 1.6c-.6-.4-.9-.5-1.1-.7-.6-1-1.6-1.6-2.8-1.5-1.2 0-2.4-.1-3.6-.3-4.2-.5-8.5-.1-12.7.1s-8.5.3-12.7.6c-2.1.2-4.5-.7-6.4.8-.2.1-.4.1-.6.1-5.2-.1-10.4 1.2-15.7.5-.3 0-.6.2-.8.5-.3.7-.4 1.5-.7 2.5 1.4-.2 2.7-.3 4-.4 1.4-.1 2.8-.1 4.2 0 1.1.1 2.2.5 3.2.7s2.3.2 3.5.4c1.4.3 2.8.5 4.2.6 3.4 0 6.8-.1 10.3-.2l3.9-.1v-.5c-.3-.1-.6-.2-.8-.3-.2-.2-.4-.4-.6-.6.3-.1.5-.2.8-.2 1.2.1 2.4.4 3.6.5.5 0 1-.2 1.5-.4zm77-20c.9-1.2 1.8-2.4 2.8-3.5.5-.5 1.3-.8 2-.8 2.3.2 4.5.6 6.7 1.2 4.9 1.5 10 1.5 15 2.1.9.1 1.2-.3 1.2-1 .1-.9.1-1.8.2-2.8.2-1.8.5-3.6.8-5.5-.4-.1-.7-.1-1.1-.1-3.1.1-6.3.3-9.4.4-2.9.1-5.8.1-8.7 0s-5.9 0-8.9-.1c-2.1 0-4.3-.1-6.4-.2-.8 0-1.1.3-1.2 1.1-.2 1.9-.6 3.8-1.1 5.6-.7 2.3-.9 2.3 1.7 3.5.4.2.8.2 1.1.4 3.8 1.5 7.6 2.9 11.3 4.5 1.5.7 3 1.5 4.4 2.4 3.3 2 6.8 3.6 10.4 4.8 2.8 1 5.6 2.2 8.3 3.5.2.1.3.2.5.4 1.3 1.4 1.4 1.4 2.8-.2-.4-.3-.7-.5-1-.8-.4-.3-.7-.6-1-1-.4-.6-.9-1.2-1.4-1.7-.7-.6-.7-1.2-.1-1.6 1.2 0 2.3-.2 3.5-.3.3 0 .7 0 1 .2.6.8 1.8.9 2.6.3.2-.1.3-.3.4-.5.4-.5.8-1.1.9-1.8.5-1.2 1-2.4 1.6-3.6.5-1 .8-2.1 1.2-3.1-.9 0-1.5 0-2.2 0-.4 0-.9 0-1.1.2-1 1.5-2.6 1.6-4.1 2-.7.2-1.3.8-2 .8-1.7 0-3.4-.3-5-.5-2-.2-4-.8-5.9-.7-3.2.3-6.4.1-9.5-.6-1.3-.3-2.5-.7-3.8-1.1-.9-.3-1.8-.9-2.8-1.2-.9-.2-2.2-.3-3.7-.7zm22.9-51.4c2.9-.4 5.7-.7 8.5-1.1.3 0 .6-.5.7-.9s.2-.8.2-1.2c.3-1.2.5-2.5.5-3.8-.4-2.3-1.1-4.6-1.6-6.9 0-.5-.4-.8-.9-.8-.1 0-.2 0-.3.1-1.1.1-2.2.4-3.2.7-2.5.8-5 1.8-7.4 3-3.4 1.8-6.6 3.9-9.8 6.1-3 2-5.7 4.3-8.6 6.3-2.7 1.9-5.5 3.7-8.2 5.6-1 .7-2.8.9-2.6 2.8 0 .1-.2.2-.3.3-2.3 1.5-4.6 3-7 4.4-1.2.7-1.7 1.4-1.5 2.7.1.5.3 1 .4 1.5.3 1.7.6 3.4.9 5.1.1.7.5 1 1.1.9 1.2-.2 2.4-.4 3.5-.6 1.9-.4 3.9-.9 5.8-1.2 1.6-.3 3.3-.5 5-.8-1.3-4.5-2.5-8.9-2.4-13.7 2 1.6 2 1.6 2.9 1.2-.2-.2-.5-.4-.5-.6-.1-.5-.1-.9-.1-1.4.4.1.7.2 1.1.2s.6.1.7 0c2.3-1.4 4.7-2.9 7-4.4 1.6-1 3.1-2 4.6-3.1 1-.5 1.8-1.3 2.5-2.1.5-.8 1.3-1.4 2.2-1.8.4-.2.8-.3 1.1-.5.9-.5 1.7-.9 2.5.2.1.2.6.3 1 .3.9-.1 1.7.6 1.8 1.5 0 .8.1 1.4.4 2zm-35 33.5v.4c.6-.2 1.2-.3 1.9-.4 1.1-.1 2.2 0 3.3-.1 1.7-.2 3.4-.6 5.1-.7s3.3 0 4.9 0c1.8 0 3.7-.3 5.5-.2 3.4.1 6.7.5 10.1.7 1.9.1 3.8.1 5.7-.1 2.2-.2 4.3-.6 6.5-.7 2.5-.1 5 .1 7.5.2-.8 2.7 1 4.8.9 6.9 1.3.1 2.5.2 3.6.2.4 0 .8-.3 1.1-.5-.3-.2-.5-.6-.8-.6-1-.3-2-.5-3-.7.3-1.6.7-1.9 2.6-1.7 2.1.2 2.4 0 2.5-2-.4-.1-.8-.2-1.2-.2-2-.2-3.7-1.7-2.9-4.3.2-.8.5-1.6.7-2.4.2-.6.5-.6 1-.2 1 .5 2 1 3.1 1.4.5.2.8-.1 1-.7.2-1.1.6-2.2.9-3.4.1-.9.2-1.8.2-2.7-1.4.2-2.5.3-3.6.4-2.5.2-5 .4-7.5.6-2.3.3-4.6.6-6.8 1.1-1.4.3-2.8.8-4.1 1.3-.9.5-1.9 1-2.9 1.4-2 .5-4 .8-6 1.2l-11.5 2.1c-2.9.5-5.9 1.1-8.8 1.7s-6.4.5-9 2zm-51.6-30.8c.6-1 .2-1.5-1.1-2-3.8-1.2-7.5-2.5-11.2-3.7-.8-.2-1.5-.4-2.3-.6-1.4-.3-2.8-.5-4.2-.9-3.5-1.1-6.4-3.8-10.1-4.5-.2 0-.3-.1-.4-.2-.9-.6-1.9-1.1-2.9-1.6-2.5-1-5-1.9-7.6-2.9.8-.8 2-1.1 3.1-.7 2.5.8 5 1.4 7.5 2.2 1.5.5 2.8 1.4 4.3 1.9 2.2 1 4.6 1.8 7 2.3 4.7.7 9.4 1.2 13.9 2.9 1.5.6 3 1 4.4 1.5-.2-.3-.4-.6-.8-.8-2.8-1.2-5.6-2.4-8.5-3.4-3-1.1-6.1-2.2-9.2-3.2-2.6-.9-5.1-1.8-7.7-2.6-3.2-1-6.3-2-9.6-2.8-2.9-.7-5.4-2.5-8.5-2.7-.6-.1-1.1-.5-1.7-.7-1.2-.4-2.4-.7-3.9-1.1-.2.6-.2 1.2-.2 1.9.1 1.1.4 2.3.7 3.4.3.9.8 2.1 1.5 2.4 1.6.6 3.2 1.1 4.9 1.4 2.9.7 5.7 1.9 8.2 3.5.3.2.7.4 1.1.5 2.6.7 5.3 1.4 7.9 2.2 2.8.8 5.6 1.7 8.4 2.6 3.2 1 6.4 2.1 9.6 3.2zm-73.1-112.1c-1.2.4-2.2 1.2-2.7 2.4-.5 1.5-.7 3.1-.5 4.7.4 2.2 1.1 4.3 1.9 6.3.4 1.3 1 2.4 1.9 3.4 1.2 1.1 2.3 2.6 4.2 2.9 1.7.4 3.3 1.1 4.8 1.9 1.6.8 3.4-.6 4.9.6 2.8-.4 5.7-.2 8.2-2 2.1-1.5 3.9-3.1 4.1-6 .2-2.6.7-5.2.9-7.8.1-.9.1-1.8 0-2.7l-1.1-.1c-.1.5-.3 1.1-.2 1.5.6 1.5-.1 3-.6 4.2-1.3 3.1-4.1 5.4-7.4 5.9-3.2.8-6.5 1.2-9.8 1-1.9-.2-3.8-1.1-5.7-1.6-1.3-.4-2.4-1.3-3-2.6-1-2.1-1.4-4.4-1.1-6.7.2-1.6.7-3.4 1.2-5.3zm133.4 166.7c.1.5.1.8.2.9 1.2 1.4 2.5 2.6 4 3.6 2 1.1 3.1 3 4.7 4.4s2.5 3.8 4.6 5c.8.5 1.3 1.2 1.7 2 .8 1.7 2.1 3.2 3.5 4.4.2-3.1.2-3.1 3.2-3.8l.2-.1c1.6-.5 1.9-.3 2.5 1.3.2.7.8 1.2 1.6 1.4 2.5.8 4-.4 5.4-2.6-1-1.3-6.7-5-9-5.8-2-.6-4-1.4-5.9-2.2-5.2-2.6-10.2-5.4-15.4-8.1-.4-.1-.8-.3-1.3-.4zm-29-37.8c-3.5.2-6.9.4-10.2.6-1.7 0-3.5.1-5.2.3-4.1.7-8.2 1.4-12.2 2.4-2.5.6-3.8 1.3-3.3 4.5.4 0 .8 0 1.1-.1 2.5-.3 5.1-.6 7.6-.9 1.4-.1 2.8-.1 4.2-.3 2.7-.4 5.3-.9 8-1.2 3.1-.3 6.2.1 8.7-2.4.9-.8.9-1.9 1.3-2.9zm-14.1 23.9v.1c2.6-.3 5.2-.6 7.8-1 2-.2 3.8-1.5 4.7-3.3.4-.8.3-1.4-.6-1.5-2.6-.2-5.1-.5-7.7-.5-2.3 0-4.5.3-6.8.4-.7 0-1.4-.1-2.1 0-2.9.2-5.7.8-8.4 1.8-.6.2-1.3 1.1-1.2 1.5.2.7.8 1.3 1.5 1.6 2.5.5 5.1.9 7.6 1.1 1.7.1 3.4 0 5.2-.2zm-4.5-13-.1-.4c-2 .3-4.1.4-6.1.8-1.2.3-2.4.7-3.5 1.2-.8.4-.9 1.4-.2 1.7 2.4 1.1 5 1.5 7.6 1.4 2-.1 4.1-.5 6-1.1 1.7-.5 3.4-.8 5.2-.9 1.8-.3 3.6-.4 5.3-.9.9-.2 2.2-.1 2.3-1.3 0-.6-.8-1.4-1.3-1.9-.3-.3-.9-.2-1.4-.2s-1.1.1-1.7.1c-2.2.1-4.3.2-6.5.4-1.8.3-3.7.8-5.6 1.1zm30.6 5.1c0 .6-.1 1.2-.2 1.8-.6 2.2-1.2 4.4-1.9 6.5-.6 2.1-.6 1.9 1.1 2.9l1.6-1c.3-3.1.6-6.1.9-9.1h.4l.7 1.4c.4-.4.7-.9 1.1-.9.8-.1 1-.6 1.2-1.2.1-.3.7-.5 1.1-.8.3-.2.6-.5.9-.9.1-.3.2-.7.2-1l-8.3.9.1 1.2zm-130.3-136.6c.7-.2 1.5-.3 2.2-.4.3 0 .7.3 1 .4-.2.3-.5.6-.7.9-.2.2-.6.2-.8.3-.2.2-.3.5-.3.8.3 1.3 1.6 2.2 3 1.9.4-.1.8-.3 1.1-.6-.2-.6-.4-1.2-.6-1.8s-.3-1.3-.4-2c-.5-1.9-1.4-2.6-3.1-2.4-.6.1-1.3 0-1.9.1-.3 0-.8.1-.8.3-.1.3 0 .7.2 1 .3.5.7 1 1.1 1.5zm190.1 142.2c-.1.3-.1.7-.1 1 .1 1.5.3 2.9.4 4.4.1 1.7.2 1.8 2.2 1.7.5-1.8 1-3.7 1.5-5.6 0-.2-.3-.7-.6-.7-1.1-.3-2.2-.5-3.4-.8zm-101-52.9 7.2 2.4-6.3-7.1-.5.2zm-102.9-82.5c1 .7 2.1 1.2 3.3 1.6.9.1 1.7-.3 2.2-.9.4-.8-1.2-2.1-2.1-1.8s-2 .6-3.4 1.1zm60.8 87.3-.1.4 9.4 3.9.2-.3c-.1-.2-.2-.6-.3-.6-3-1.3-6.1-2.3-9.2-3.4zm-44.1 98.2 2.5 5.2.3-.1-1.2-5.1zm114.4-50.2c-.6.4-1.2.7-1.8 1s-1.2.6-1.8.9c2.5 1.3 3.7.6 3.6-1.9zm-59.5 59c1.5-.5 1-1.6 1.1-2.4 0-.2-.3-.5-.4-.7-.2.2-.6.3-.7.5zm-62.2-202.7 2.1-1.5-3.4.2v.3zm-3.8 163.4-.5.7 1.8 1.2c.1.1.5-.3.8-.5zm108.1 25.9-.1.1c.1.5.1 1.1 0 1.6-.2 1.2.4 1.2 1.4 1.1-.5-1-.9-1.9-1.3-2.8zm90-36.1-.1.6c.6.1 1.1.2 1.7.2.2 0 .3-.5.6-1.1zm-11.8-48.2.1.4 2.6-1.1-.1-.3zm-138.9 97.4c-.6-.8-.9-.8-1.8-.2zm-58.7-180.1.1-.2-2.3-.2v.3zm-1.2-11.8v-.4h-1.1v.3zm190.7 174v.3l1-.1v-.2zm-198-151.1v-.3l-1 .1v.2zm187.4 156.5c.1-.2.2-.3.2-.4s-.2-.2-.3-.2c-.1.1-.2.2-.3.3.1 0 .2.1.4.3zm-52.4-86.2-.1.3.6.1v-.2zm-9.6 68h-.3v.5h.2zm-120.4-149.9.2-.1s0-.1-.1-.1h-.2zm132.7 106.9h-.1l.1.1zm-65-34c-.1 0-.1 0 0 0z"/><path d="m41.1 123.7-.6-.6.2-.1z"/><path d="m43.4 125.4.6.1v.1z"/><path d="m34.4 113.8-.1.1v-.1z"/><path d="m38.2 119.8c-.1-.1-.1-.1-.1-.2h.1c-.1.1-.1.2 0 .2z"/><path d="m36.9 118.1c.1 0 .1 0 0 0 .1.1.1.1.1.1z"/><path d="m41.1 123.7.6.5z"/><path d="m33.9 112.9v-.2z"/><path d="m89.1 242.9.5.2z"/><path d="m180.5 313h.1l-.1-.1z"/><path d="m180.5 312.9v.1z"/><path d="m88.8 242.7.2.3z"/><path d="m33.9 112.8-.1.1h.1z"/><path d="m42.5 124.7-.1-.1z"/><path d="m42.4 124.6h.1v.1z"/><path d="m187.4 184.2-.2.1c0-.1-.1-.1-.1-.2.1-.1.1-.1.2-.2z"/><path d="m115.6 292.2-1.1-1.3.1-.4c.5.1 1.2.1 1.4.4.3.7.6 1.5.8 2.2l-.5.2-.7-1.1h.2z"/><path d="m104.1 273.5-.6-.5.3-.2c.1.2.2.4.3.7z"/><path d="m126.5 289.5s-.1.1 0 0c-.1 0-.1 0-.2-.1l.1-.1z"/><path d="m102.3 279.1h-.1s0 0 0-.1z"/><path d="m109.9 293.8.2-.1v.1z"/><path d="m244.2 183-.2.1-.1-.2c.1 0 .1-.1.2-.1s.1.1.1.2z"/><path d="m151.1 298.3.1-1.8h.7l-.4 1.9z"/><path d="m161.6 280.6-.7-.1v-.1h.7z"/><path d="m150.7 300.2c.1 0 .1 0 .2.1 0 0 0 .1-.1.1z"/><path d="m196.1 272.6-.1-.2s.1-.1.1-.1.1.1.1.1c0 .1-.1.2-.1.2z"/><path d="m144.9 273.5s-.1.1-.1.1h-.1v-.1z"/><path d="m197.2 304.5-.1.1v-.1z"/><path d="m233.4 290.2-2.7.2v-.3z"/><path d="m234.1 289.8.8-.3z"/><path d="m234.1 289.8c-.1 0-.2 0 0 0z"/><path d="m235 289.5-.1-.1z"/><path d="m205.3 227.2-.3.3z"/><path d="m205.3 227.2h.1z"/><path d="m207.8 225.8v-.2z"/><path d="m205 227.5v.1z"/><path d="m207.8 225.8h-.2z"/><path d="m223.1 131.5v-.2z"/></g></svg>